<svg width="13" height="12" viewBox="0 0 13 12" fill="none" xmlns="http://www.w3.org/2000/svg">
<path d="M1.33333 0C0.593333 0 0 0.6 0 1.33333V10.6667C0 11.0203 0.140476 11.3594 0.390524 11.6095C0.640573 11.8595 0.979711 12 1.33333 12H10.6667C11.0203 12 11.3594 11.8595 11.6095 11.6095C11.8595 11.3594 12 11.0203 12 10.6667V9.14667C12.3933 8.91333 12.6667 8.49333 12.6667 8V4C12.6667 3.50667 12.3933 3.08667 12 2.85333V1.33333C12 0.979711 11.8595 0.640573 11.6095 0.390524C11.3594 0.140476 11.0203 0 10.6667 0H1.33333ZM1.33333 1.33333H10.6667V2.66667H6.66667C6.31305 2.66667 5.97391 2.80714 5.72386 3.05719C5.47381 3.30724 5.33333 3.64638 5.33333 4V8C5.33333 8.35362 5.47381 8.69276 5.72386 8.94281C5.97391 9.19286 6.31305 9.33333 6.66667 9.33333H10.6667V10.6667H1.33333V1.33333ZM6.66667 4H11.3333V8H6.66667V4ZM8.66667 5C8.40145 5 8.1471 5.10536 7.95956 5.29289C7.77202 5.48043 7.66667 5.73478 7.66667 6C7.66667 6.26522 7.77202 6.51957 7.95956 6.70711C8.1471 6.89464 8.40145 7 8.66667 7C8.93188 7 9.18624 6.89464 9.37377 6.70711C9.56131 6.51957 9.66667 6.26522 9.66667 6C9.66667 5.73478 9.56131 5.48043 9.37377 5.29289C9.18624 5.10536 8.93188 5 8.66667 5Z" fill="#263238"/>
</svg>
