<svg width="32" height="24" viewBox="0 0 32 24" fill="none" xmlns="http://www.w3.org/2000/svg">
<path d="M29.5175 4.51194L29.5177 4.46219L29.2494 4.46134L29.2427 6.57524C28.605 6.04723 27.8793 5.61179 27.1814 5.26468C25.3862 4.37193 23.4252 3.82574 21.4432 3.49165L21.4463 2.48684C22.4182 1.64854 23.2899 2.87353 23.9341 1.66341C22.4206 1.68327 22.7529 0.756867 21.4516 0.836731L21.4518 0.78698L21.1835 0.786133L21.1751 3.44683C20.691 3.36989 20.2062 3.30528 19.7225 3.25114C17.0221 2.94893 14.2652 2.97242 11.5728 3.34448C11.3241 3.37883 11.0749 3.41687 10.8254 3.45715L10.817 0.786133L10.5487 0.78698L10.5488 0.836731C9.24752 0.756867 9.57984 1.68335 8.06635 1.66341C8.71042 2.87353 9.5823 1.64854 10.554 2.48684L10.5573 3.50097C8.32088 3.8815 6.07783 4.52011 4.12012 5.661C3.66828 5.92431 3.19718 6.24146 2.75789 6.60712L2.75111 4.46127L2.48279 4.46211L2.48295 4.51186C1.18125 4.43192 1.51364 5.35849 0 5.33862C0.644381 6.54867 1.51603 5.32383 2.4878 6.16213L2.49003 6.83994C1.54091 7.70404 0.806265 8.80904 0.86703 10.1055C0.937267 11.6065 1.81331 12.7738 2.93757 13.6673V15.8104C2.51822 15.4523 2.19584 15.083 1.98312 14.7348C1.86568 14.5432 1.77626 14.3613 1.71011 14.1974C1.64634 14.0328 1.60136 13.8873 1.57518 13.7667C1.54853 13.6463 1.53066 13.5521 1.52342 13.4881C1.51488 13.424 1.51049 13.3909 1.51049 13.3909C1.51049 13.3909 1.50794 13.4242 1.50309 13.4888C1.49755 13.5535 1.49316 13.6503 1.49855 13.7769C1.51056 14.0282 1.55392 14.4101 1.74476 14.8564C1.83803 15.0794 1.96287 15.3186 2.12398 15.5631C2.28402 15.8083 2.48457 16.0545 2.71499 16.3012C2.78569 16.3763 2.86063 16.451 2.93749 16.5253V18.4752C2.51814 18.1171 2.19576 17.7478 1.98305 17.3996C1.8656 17.208 1.77619 17.0262 1.71003 16.8622C1.64626 16.6977 1.60129 16.5522 1.5751 16.4316C1.54845 16.3112 1.53059 16.2168 1.52335 16.153C1.5148 16.0888 1.51041 16.0557 1.51041 16.0557C1.51041 16.0557 1.50787 16.0891 1.50302 16.1536C1.49747 16.2184 1.49308 16.3152 1.49847 16.4418C1.51049 16.693 1.55385 17.0749 1.74484 17.5212C1.83811 17.7442 1.96295 17.9834 2.12406 18.2279C2.2841 18.4731 2.48464 18.7193 2.71507 18.966C2.78577 19.041 2.86055 19.1156 2.93741 19.1899L2.9944 19.2439C3.41028 19.6372 3.91003 20.0171 4.4777 20.3693C4.82804 20.5869 5.20457 20.7929 5.60165 20.9895C5.99905 21.1854 6.41916 21.3664 6.85583 21.5392C7.73095 21.8793 8.67723 22.1715 9.6711 22.4031C10.1675 22.5216 10.6764 22.6214 11.1932 22.7096C11.2188 22.7139 11.2445 22.7178 11.2701 22.7221L11.4178 23.2142L11.7299 23.1206L12.0419 23.0269L10.9347 19.3392C14.3394 18.4744 17.6607 18.4744 21.0652 19.3392L19.958 23.0269L20.2701 23.1206L20.5821 23.2143L20.7298 22.7223C20.7554 22.7179 20.7813 22.714 20.8067 22.7096C21.3237 22.6215 21.8325 22.5216 22.329 22.4032C23.3226 22.1716 24.2691 21.8793 25.1442 21.5392C25.5808 21.3665 26.001 21.1854 26.3984 20.9896C26.7954 20.793 27.172 20.587 27.5222 20.3694C28.0899 20.0172 28.5896 19.6373 29.0057 19.244L29.0627 19.19C29.1395 19.1157 29.2143 19.0411 29.2849 18.966C29.7493 18.4755 30.0738 17.9704 30.2564 17.5219C30.4442 17.0742 30.4927 16.6939 30.5019 16.442C30.5068 16.315 30.5028 16.2177 30.4971 16.1537C30.4922 16.0892 30.4897 16.0558 30.4897 16.0558C30.4897 16.0558 30.4851 16.0889 30.4766 16.1531C30.4692 16.2178 30.4518 16.3115 30.4245 16.4316C30.3977 16.552 30.3522 16.6973 30.2891 16.8621C30.224 17.0263 30.1342 17.208 30.0156 17.399C29.8959 17.5893 29.7486 17.7898 29.5671 17.9895C29.4188 18.1511 29.2507 18.3147 29.0626 18.4754V16.5253C29.1395 16.451 29.2144 16.3763 29.2849 16.3012C29.7493 15.8107 30.0739 15.3055 30.2563 14.857C30.4442 14.4093 30.4926 14.029 30.5018 13.777C30.5067 13.6501 30.5028 13.5527 30.497 13.4888C30.4921 13.4242 30.4896 13.3909 30.4896 13.3909C30.4896 13.3909 30.485 13.424 30.4765 13.4881C30.4691 13.5528 30.4517 13.6466 30.4244 13.7666C30.3976 13.8872 30.3521 14.0324 30.2892 14.1971C30.224 14.3613 30.1342 14.5431 30.0157 14.7341C29.8958 14.9244 29.7487 15.1249 29.5672 15.3246C29.4189 15.4863 29.2506 15.6499 29.0625 15.8105V13.6959C30.1989 12.7966 31.0745 11.6196 31.1625 10.0985C31.1578 8.7623 30.4607 7.67177 29.5102 6.80774L29.5121 6.16206C30.484 5.32375 31.3557 6.54859 31.9999 5.33854C30.4864 5.35849 30.8188 4.43192 29.5175 4.51194ZM21.5662 4.82216C22.845 5.06421 24.1032 5.40631 25.3122 5.87733C26.3904 6.29745 27.7159 6.90586 28.6502 7.79384L23.5164 10.9821C22.4996 10.1987 20.8686 9.58966 18.9121 9.28191L21.5662 4.82216ZM17.708 4.36816C18.7255 4.42415 19.7484 4.52542 20.7622 4.68422L18.0909 9.17278C17.4214 9.09962 16.721 9.0605 16.0001 9.0605C15.279 9.0605 14.5788 9.09954 13.9091 9.17278L11.2373 4.68307C13.3734 4.3449 15.5492 4.2494 17.708 4.36816ZM4.28486 7.06975C6.11033 5.86362 8.29516 5.22086 10.4339 4.822L13.088 9.28184C11.1315 9.58966 9.50051 10.1986 8.48369 10.982L3.34721 7.79199C3.63894 7.52359 3.95947 7.28462 4.28486 7.06975ZM6.5574 20.3787C5.94622 20.1699 5.37523 19.939 4.85469 19.687C4.50543 19.5211 4.1822 19.3412 3.883 19.1577C3.82031 19.1194 3.75939 19.0804 3.69901 19.0412V17.1722C3.9416 17.3551 4.20153 17.5332 4.4777 17.7047C4.82804 17.9223 5.20464 18.1283 5.60165 18.3249C5.90763 18.4757 6.22724 18.6176 6.5574 18.7538V20.3787ZM6.5574 17.714C5.94622 17.5052 5.37508 17.2742 4.85453 17.0222C4.50527 16.8563 4.1822 16.6764 3.883 16.4929C3.82015 16.4547 3.75939 16.4156 3.69901 16.3764V14.2113C3.96556 14.3831 4.23811 14.5422 4.51113 14.6892C5.1686 15.0431 5.85418 15.3442 6.5574 15.6036V17.714ZM5.8856 13.9096C4.82257 13.4231 3.74907 12.8188 2.96822 11.9299C2.59123 11.5009 2.04435 10.6949 2.15656 10.0645C2.21116 9.75794 2.29765 9.24025 2.49196 8.85186C2.58715 8.67881 2.69743 8.51539 2.81866 8.36013L7.90747 11.5205C7.54735 11.9393 7.34957 12.3931 7.34957 12.8675C7.34957 13.6129 7.83692 14.3081 8.67823 14.8953C7.71963 14.6411 6.78151 14.3196 5.8856 13.9096ZM9.91531 21.2345C9.00585 21.0684 8.13374 20.8627 7.31877 20.6207V19.0468C8.06188 19.3138 8.84989 19.5471 9.67102 19.7385C9.91893 19.7976 10.17 19.8522 10.4235 19.9029L10.8704 21.3914C10.5484 21.3429 10.2297 21.2902 9.91531 21.2345ZM24.6814 20.6207C23.8664 20.8627 22.9943 21.0684 22.0847 21.2345C21.7705 21.2902 21.4516 21.3429 21.1296 21.3915L21.5765 19.903C21.8301 19.8522 22.0811 19.7977 22.3291 19.7386C23.1503 19.5472 23.9384 19.3138 24.6815 19.0469V20.6207H24.6814ZM24.6814 17.956C23.8664 18.198 22.9943 18.4037 22.0848 18.5698C21.8052 18.6194 21.5219 18.6665 21.2361 18.7106C17.7164 17.8147 14.2837 17.8147 10.764 18.7106C10.4782 18.6665 10.195 18.6194 9.91531 18.5698C9.0057 18.4038 8.13374 18.198 7.31877 17.956V15.8665C8.86491 16.3623 10.4804 16.6692 12.0723 16.8644C14.7126 17.188 17.4034 17.1838 20.043 16.8564C21.602 16.6629 23.1733 16.3592 24.6814 15.8773V17.956ZM28.3011 19.0413C28.2408 19.0805 28.1799 19.1194 28.117 19.1578C27.8178 19.3412 27.4947 19.5211 27.1455 19.687C26.6248 19.939 26.0537 20.1699 25.4428 20.3788V18.7539C25.7728 18.6176 26.0926 18.4758 26.3985 18.325C26.7954 18.1284 27.1721 17.9223 27.5223 17.7048C27.7986 17.5333 28.0586 17.3551 28.3011 17.1723V19.0413ZM28.3011 16.3764C28.2408 16.4156 28.1799 16.4547 28.1172 16.4929C27.818 16.6764 27.4949 16.8562 27.1456 17.0222C26.625 17.2742 26.0539 17.5052 25.4428 17.714V15.6151C26.087 15.3788 26.7177 15.1081 27.3272 14.7947C27.6559 14.6258 27.9834 14.4399 28.3011 14.2366V16.3764ZM29.8155 10.0598C29.8043 11.2187 28.7651 12.313 27.7483 12.994C26.4267 13.8791 24.908 14.4673 23.3497 14.8755C24.1739 14.2926 24.6504 13.6045 24.6504 12.8674C24.6504 12.3931 24.4528 11.9392 24.0927 11.5204L29.1651 8.37029C29.5295 8.85949 29.7714 9.41892 29.8155 10.0598Z" fill="#B0BEC5"/>
</svg>
