<svg width="16" height="16" viewBox="0 0 16 16" fill="none" xmlns="http://www.w3.org/2000/svg">
<path fill-rule="evenodd" clip-rule="evenodd" d="M8.66634 1.33301V8.3902L11.333 5.72353L12.2758 6.66634L7.99967 10.9425L3.72353 6.66634L4.66634 5.72353L7.33301 8.3902V1.33301H8.66634ZM2.66634 9.33301V10.7997C2.66634 11.3707 2.66686 11.7589 2.69138 12.059C2.71526 12.3513 2.75854 12.5007 2.81167 12.605C2.9395 12.8559 3.14347 13.0599 3.39435 13.1877C3.49862 13.2408 3.64809 13.2841 3.94037 13.308C4.24043 13.3325 4.62862 13.333 5.19967 13.333H10.7997C11.3707 13.333 11.7589 13.3325 12.059 13.308C12.3513 13.2841 12.5007 13.2408 12.605 13.1877C12.8559 13.0599 13.0599 12.8559 13.1877 12.605C13.2408 12.5007 13.2841 12.3513 13.308 12.059C13.3325 11.7589 13.333 11.3707 13.333 10.7997V9.33301H14.6663V10.8272C14.6663 11.3639 14.6664 11.8068 14.6369 12.1676C14.6063 12.5423 14.5406 12.8868 14.3757 13.2103C14.12 13.7121 13.7121 14.12 13.2103 14.3757C12.8868 14.5406 12.5423 14.6063 12.1676 14.6369C11.8068 14.6664 11.3639 14.6664 10.8272 14.6663H5.17213C4.63549 14.6664 4.19258 14.6664 3.83179 14.6369C3.45706 14.6063 3.11259 14.5406 2.78903 14.3757C2.28727 14.12 1.87932 13.7121 1.62366 13.2103C1.4588 12.8868 1.39309 12.5423 1.36247 12.1676C1.33299 11.8068 1.333 11.3639 1.33301 10.8272L1.33301 9.33301H2.66634Z" fill="#388E3B"/>
</svg>
