<svg width="124" height="106" viewBox="0 0 124 106" fill="none" xmlns="http://www.w3.org/2000/svg">
<path d="M97.4034 99.7353L92.8896 92.6622C92.8896 92.6622 99.6414 98.6131 99.6414 98.5015C99.6414 98.3899 104.781 87.0469 104.781 87.0469C104.781 87.0469 102.18 97.6826 102.253 99.2449C102.253 99.2449 104.854 96.8802 106.092 96.6868C107.33 96.4935 104.397 98.9078 104.4 100.323H97.673L97.4034 99.7353Z" fill="#EEEEEE"/>
<path d="M66.2851 106C98.1602 106 124 104.416 124 102.461C124 100.506 98.1602 98.9209 66.2851 98.9209C34.4101 98.9209 8.57031 100.506 8.57031 102.461C8.57031 104.416 34.4101 106 66.2851 106Z" fill="#EEEEEE"/>
<path d="M24.9322 42.9239C26.4411 40.8563 22.6948 35.5752 16.5644 31.1282C10.434 26.6812 4.24115 24.7522 2.7322 26.8198C1.22325 28.8874 4.96964 34.1685 11.1 38.6155C17.2304 43.0625 23.4232 44.9914 24.9322 42.9239Z" fill="#EEEEEE"/>
<path d="M38.9576 40.9401C42.4841 34.2491 43.5024 27.8608 41.232 26.6714C38.9616 25.482 34.2624 29.942 30.7359 36.633C27.2094 43.3239 26.1911 49.7122 28.4614 50.9016C30.7318 52.091 35.4311 47.631 38.9576 40.9401Z" fill="#EEEEEE"/>
<path d="M28.9139 60.5556C30.2779 58.3903 26.1791 53.3761 19.7588 49.3562C13.3385 45.3363 7.02814 43.8329 5.66412 45.9982C4.30009 48.1636 8.39898 53.1777 14.8192 57.1976C21.2395 61.2175 27.5499 62.7209 28.9139 60.5556Z" fill="#EEEEEE"/>
<path d="M20.8516 27.5029C20.8516 27.5029 34.1288 71.847 28.6998 103.532H37.8377C37.8377 103.532 31.4139 43.4073 20.8516 27.5029Z" fill="#EEEEEE"/>
<path d="M95.6722 62.142H26.2686C26.4283 61.7044 26.703 61.3176 27.0639 61.0221C27.0692 61.0176 27.0747 61.0134 27.0805 61.0095L27.2161 60.9065L59.3705 36.5717C59.8305 36.223 60.3925 36.0342 60.9704 36.0342C61.5482 36.0342 62.1102 36.223 62.5702 36.5717L94.7231 60.9065L94.8587 61.0095L94.876 61.0221C94.9115 61.0496 94.943 61.0794 94.9753 61.1085C95.0077 61.1376 95.0234 61.1533 95.0471 61.1761C95.1195 61.2462 95.1871 61.3211 95.2497 61.4001C95.2796 61.4355 95.3072 61.4716 95.3285 61.507C95.439 61.6575 95.5319 61.8202 95.6052 61.9919C95.6265 62.0382 95.6454 62.087 95.6651 62.1357C95.6706 62.1357 95.6722 62.1373 95.6722 62.142Z" fill="#78909C"/>
<path d="M34.9324 40.6836H86.1485C86.7628 40.6836 87.371 40.8043 87.9384 41.0387C88.5059 41.2731 89.0214 41.6168 89.4556 42.0499C89.8898 42.4831 90.2341 42.9973 90.4689 43.5632C90.7037 44.1291 90.8243 44.7356 90.8239 45.348V100.134H30.2578V45.348C30.2574 44.7356 30.378 44.1292 30.6127 43.5634C30.8474 42.9976 31.1917 42.4834 31.6258 42.0502C32.0599 41.6171 32.5754 41.2734 33.1427 41.0389C33.7101 40.8044 34.3182 40.6837 34.9324 40.6836Z" fill="#FBC02D"/>
<path d="M82.7927 51.0977H38.2888C37.6628 51.0977 37.1553 51.6036 37.1553 52.2278V52.7088C37.1553 53.3329 37.6628 53.8389 38.2888 53.8389H82.7927C83.4187 53.8389 83.9262 53.3329 83.9262 52.7088V52.2278C83.9262 51.6036 83.4187 51.0977 82.7927 51.0977Z" fill="#F9A825"/>
<path d="M82.7927 56.9521H38.2888C37.6628 56.9521 37.1553 57.4581 37.1553 58.0823V58.5633C37.1553 59.1874 37.6628 59.6934 38.2888 59.6934H82.7927C83.4187 59.6934 83.9262 59.1874 83.9262 58.5633V58.0823C83.9262 57.4581 83.4187 56.9521 82.7927 56.9521Z" fill="#F9A825"/>
<path d="M82.7927 62.8076H38.2888C37.6628 62.8076 37.1553 63.3136 37.1553 63.9378V64.4179C37.1553 65.0421 37.6628 65.5481 38.2888 65.5481H82.7927C83.4187 65.5481 83.9262 65.0421 83.9262 64.4179V63.9378C83.9262 63.3136 83.4187 62.8076 82.7927 62.8076Z" fill="#F9A825"/>
<path d="M82.7927 68.6631H38.2888C37.6628 68.6631 37.1553 69.1691 37.1553 69.7932V70.2742C37.1553 70.8983 37.6628 71.4043 38.2888 71.4043H82.7927C83.4187 71.4043 83.9262 70.8983 83.9262 70.2742V69.7932C83.9262 69.1691 83.4187 68.6631 82.7927 68.6631Z" fill="#F9A825"/>
<path d="M82.7927 74.5186H38.2888C37.6628 74.5186 37.1553 75.0245 37.1553 75.6487V76.1297C37.1553 76.7538 37.6628 77.2598 38.2888 77.2598H82.7927C83.4187 77.2598 83.9262 76.7538 83.9262 76.1297V75.6487C83.9262 75.0245 83.4187 74.5186 82.7927 74.5186Z" fill="#F9A825"/>
<path d="M60.9727 82.2025C60.8668 82.3167 60.7459 82.4161 60.6133 82.498L28.8687 102.028H28.7269C28.4701 102.029 28.2147 101.991 27.9693 101.915C27.9354 101.905 27.9015 101.895 27.87 101.884C27.4571 101.743 27.0869 101.499 26.794 101.177C26.7664 101.148 26.7388 101.115 26.7112 101.082C26.6306 100.986 26.5579 100.883 26.4936 100.776C26.47 100.74 26.451 100.704 26.4298 100.669C26.4085 100.634 26.3896 100.59 26.373 100.555C26.203 100.203 26.1149 99.8177 26.1152 99.4272V63.0295C26.1146 62.6452 26.1996 62.2655 26.3642 61.918C26.5287 61.5704 26.7687 61.2637 27.0667 61.0199C27.072 61.0154 27.0775 61.0112 27.0833 61.0074L27.2188 60.9044C27.6591 60.5918 28.1864 60.4245 28.7269 60.4258H29.3228L32.1086 62.1422L57.803 77.9484L58.7695 78.5433L60.6133 79.6774C60.7459 79.759 60.8668 79.8581 60.9727 79.9721C61.2494 80.278 61.4026 80.6753 61.4026 81.0873C61.4026 81.4992 61.2494 81.8965 60.9727 82.2025Z" fill="#78909C"/>
<path d="M95.83 63.03V99.4245C95.83 99.4685 95.83 99.5126 95.8253 99.5589C95.8264 99.5801 95.8264 99.6014 95.8253 99.6226C95.8253 99.6414 95.8253 99.6627 95.8213 99.6839C95.8213 99.6917 95.8213 99.7004 95.8213 99.709C95.8213 99.7177 95.8213 99.7365 95.815 99.7491C95.815 99.7806 95.8064 99.812 95.8024 99.8434C95.7985 99.8749 95.7914 99.9047 95.7851 99.9346C95.7851 99.9385 95.7851 99.9448 95.7851 99.9495C95.7851 99.9542 95.7803 99.9684 95.7764 99.9786C95.7763 99.9902 95.7742 100.002 95.7701 100.012C95.7676 100.027 95.7639 100.042 95.7591 100.056C95.7527 100.084 95.7464 100.109 95.7386 100.135C95.7382 100.14 95.7366 100.145 95.7338 100.15C95.7212 100.196 95.7062 100.243 95.6897 100.287C95.6902 100.288 95.6904 100.289 95.6904 100.29C95.6904 100.291 95.6902 100.293 95.6897 100.294C95.6818 100.317 95.6747 100.338 95.6645 100.361C95.6542 100.383 95.6495 100.399 95.6416 100.419C95.6389 100.425 95.6368 100.431 95.6353 100.437C95.6093 100.493 95.5841 100.552 95.5565 100.607L95.5265 100.665C95.5163 100.684 95.5052 100.7 95.495 100.719C95.4847 100.738 95.4761 100.755 95.4634 100.772C95.4422 100.808 95.4185 100.844 95.3957 100.878C95.3728 100.911 95.3657 100.919 95.3531 100.941C95.3168 100.989 95.2813 101.033 95.2451 101.077C95.2088 101.121 95.1899 101.143 95.1663 101.172C95.1426 101.201 95.1087 101.234 95.0795 101.263C95.0669 101.278 95.052 101.29 95.037 101.305C95.0245 101.318 95.0111 101.33 94.9968 101.341C94.9818 101.356 94.9653 101.37 94.9479 101.385C94.9433 101.39 94.9383 101.394 94.9329 101.398C94.8932 101.434 94.8517 101.468 94.8084 101.499C94.8038 101.502 94.7996 101.506 94.7958 101.51C94.7619 101.533 94.728 101.558 94.6925 101.582L94.6586 101.605C94.6397 101.617 94.62 101.63 94.6011 101.641C94.5863 101.651 94.5708 101.66 94.5545 101.668C94.538 101.679 94.5207 101.689 94.5041 101.697C94.3852 101.765 94.2607 101.822 94.132 101.868C94.1233 101.868 94.1147 101.874 94.1084 101.877L94.0808 101.885C94.0516 101.895 94.0217 101.906 93.9901 101.914C93.9373 101.932 93.8845 101.944 93.8325 101.957L93.7536 101.976C93.7363 101.98 93.7186 101.983 93.7008 101.984L93.6354 101.997H93.6291L93.5739 102.005C93.5652 102.005 93.5574 102.005 93.5487 102.005L93.5022 102.012H93.4746L93.3776 102.018C93.3311 102.018 93.2846 102.023 93.2381 102.023H93.0938L61.3296 82.4977C61.1972 82.4164 61.077 82.3169 60.9725 82.2022C60.6948 81.8967 60.541 81.4992 60.541 81.087C60.541 80.6747 60.6948 80.2772 60.9725 79.9718C61.0771 79.8573 61.1973 79.7581 61.3296 79.677L63.1718 78.543L64.1383 77.9481L89.8366 62.1419L92.624 60.4278H93.2208C93.2829 60.4271 93.345 60.43 93.4068 60.4365C93.418 60.4345 93.4295 60.4345 93.4407 60.4365C93.4998 60.4412 93.5613 60.4475 93.618 60.4553L93.6583 60.4616C93.7087 60.4703 93.7599 60.4813 93.808 60.4938C93.8211 60.4953 93.834 60.498 93.8467 60.5017C93.9074 60.5166 93.9673 60.5339 94.0264 60.5528C94.0855 60.5717 94.1383 60.5905 94.1911 60.6117C94.267 60.642 94.3413 60.6764 94.4134 60.7147C94.4539 60.7339 94.4934 60.7551 94.5317 60.7783C94.5994 60.816 94.6645 60.8583 94.7264 60.9049L94.862 61.0078L94.8793 61.0204C94.9148 61.0479 94.9463 61.0778 94.9786 61.1068C95.011 61.1359 95.0267 61.1517 95.0504 61.1744C95.1228 61.2446 95.1905 61.3194 95.253 61.3984C95.2829 61.4338 95.3105 61.4699 95.3318 61.5053C95.4424 61.6558 95.5352 61.8186 95.6085 61.9902C95.6298 62.0366 95.6487 62.0853 95.6684 62.134C95.6684 62.134 95.6684 62.134 95.6684 62.1403C95.6973 62.2175 95.722 62.2962 95.7425 62.3761C95.7528 62.4162 95.7614 62.4547 95.7701 62.494C95.7788 62.5333 95.7827 62.5553 95.7866 62.5867C95.7906 62.6182 95.7977 62.6504 95.8016 62.6818C95.8082 62.7195 95.8124 62.7576 95.8142 62.7958C95.8187 62.8278 95.8208 62.8601 95.8205 62.8924C95.8276 62.9396 95.83 62.986 95.83 63.03Z" fill="#78909C"/>
<path d="M95.8302 99.061V99.4241C95.83 100.115 95.5548 100.777 95.0651 101.265C94.5753 101.753 93.9112 102.028 93.2186 102.028H28.7268C28.0342 102.028 27.3699 101.753 26.8802 101.265C26.3904 100.777 26.1152 100.115 26.1152 99.4241V99.061L59.2866 78.2156C59.7912 77.8987 60.3755 77.7305 60.9719 77.7305C61.5684 77.7305 62.1527 77.8987 62.6573 78.2156L95.8302 99.061Z" fill="#B0BEC5"/>
<path d="M57.6982 45.2412H38.2888C37.6628 45.2412 37.1553 45.7472 37.1553 46.3713V46.8515C37.1553 47.4757 37.6628 47.9817 38.2888 47.9817H57.6982C58.3242 47.9817 58.8317 47.4757 58.8317 46.8515V46.3713C58.8317 45.7472 58.3242 45.2412 57.6982 45.2412Z" fill="white"/>
<path d="M111.679 101.752C111.65 102.052 111.552 102.293 111.378 102.357C110.974 102.503 109.381 102.534 108.819 102.206C108.257 101.878 107.892 101.192 107.937 99.7046C107.957 99.0759 107.979 98.8213 108.012 98.6994C108.056 98.5313 108.121 98.6161 108.224 98.3442L108.332 98.187C108.332 98.187 108.337 98.1469 108.351 98.0825C108.409 97.7854 108.643 96.9492 109.399 96.9492C110.319 96.9492 110.589 97.3422 110.734 98.0188C110.823 98.4409 110.96 99.0885 111.128 99.6575C111.209 99.9616 111.32 100.257 111.46 100.539C111.642 100.916 111.718 101.335 111.679 101.752Z" fill="#263238"/>
<path d="M111.679 101.752C111.65 102.052 111.552 102.292 111.378 102.357C110.974 102.503 109.381 102.534 108.819 102.206C108.257 101.878 107.892 101.191 107.937 99.7044C107.957 99.0757 107.979 98.821 108.012 98.6992C108.041 99.4851 108.169 101.112 108.747 101.666C109.345 102.238 110.976 101.921 111.679 101.752Z" fill="#263238"/>
<path d="M111.125 99.6526C110.405 99.8145 109.385 99.7249 108.957 99.5166C108.6 99.3421 108.424 98.6828 108.35 98.0776C108.408 97.7805 108.642 96.9443 109.398 96.9443C110.318 96.9443 110.588 97.3373 110.733 98.014C110.822 98.436 110.959 99.0804 111.125 99.6526Z" fill="#977C6D"/>
<path d="M113.696 96.3692C113.562 96.3897 113.319 96.19 112.997 95.8324C112.782 95.5967 112.534 95.2894 112.26 94.9326C111.837 94.3824 111.354 93.7018 110.849 92.9757C110.36 92.2684 109.85 91.5202 109.351 90.7885C109.132 90.4655 108.918 90.1472 108.708 89.8375C108.643 89.7417 108.579 89.6481 108.517 89.5554C108.006 88.8041 107.535 88.118 107.146 87.5796C105.227 84.9248 104.867 83.1 104.044 78.2627C103.22 73.4254 104.469 68.7014 104.469 68.7014L109.485 67.8125L109.789 76.2272L109.868 76.6021L109.978 77.1247L109.832 77.2245C109.832 77.2245 108.729 79.2679 109.161 81.5431C109.178 81.6382 109.199 81.7341 109.223 81.8292C109.302 82.1435 109.488 82.5577 109.756 83.0481C110.133 83.7365 110.668 84.5704 111.28 85.4608C111.832 86.264 112.452 87.1112 113.072 87.9474C113.251 88.1895 113.43 88.4289 113.61 88.6658C113.756 88.8607 113.903 89.0532 114.046 89.2434C115.634 91.3268 117.022 93.0598 117.135 93.2916C117.404 93.8292 114.414 96.2576 113.696 96.3692Z" fill="#263238"/>
<path d="M114.051 89.2432C113.786 90.9479 113.277 94.0954 112.997 95.8323C112.782 95.5965 112.533 95.2892 112.26 94.9324C111.836 94.3823 111.353 93.7017 110.849 92.9755C111.43 91.2992 112.475 88.2978 112.583 88.0817C112.634 87.9811 112.834 87.9473 113.076 87.9473C113.255 88.1893 113.434 88.4288 113.614 88.6656C113.761 88.8628 113.908 89.053 114.051 89.2432Z" fill="#263238"/>
<path d="M112.285 82.684C112.272 82.7375 111.855 83.8983 111.289 85.4614C110.708 87.0678 109.971 89.101 109.359 90.7891C108.682 92.6486 108.158 94.0899 108.158 94.0899L108.399 91.1192L108.444 90.8205C108.541 90.4983 108.631 90.1701 108.716 89.8358C108.651 89.7399 108.586 89.6464 108.525 89.5537L109.17 81.5374C109.187 81.6325 109.208 81.7284 109.232 81.8235C109.311 82.1378 109.497 82.552 109.765 83.0424C109.821 82.3791 109.862 81.7441 109.893 81.1562C110.797 81.6789 112.309 82.5669 112.285 82.684Z" fill="#263238"/>
<path d="M114.384 83.2932C114.4 84.2323 114.063 86.3441 113.615 88.6656C113.195 90.8332 112.68 93.1838 112.26 94.9325C111.956 96.2017 111.703 97.155 111.576 97.4914C111.087 98.7897 110.824 98.414 109.987 98.4863C109.15 98.5586 107.889 97.867 107.673 97.4167C107.485 97.0238 108.2 92.3578 108.395 91.1208L108.44 90.8222C108.537 90.4999 108.627 90.1717 108.712 89.8374C109.268 87.6369 109.584 85.1943 109.761 83.048C109.817 82.3847 109.858 81.7497 109.889 81.1618C110.017 78.8041 109.983 77.1285 109.983 77.1285L109.88 76.9713L109.873 76.6035L109.692 68.0977C109.692 68.0977 113.737 66.4834 114.999 66.9675C116.261 67.4516 114.344 80.8411 114.384 83.2932Z" fill="#263238"/>
<path d="M118.228 96.7665C117.59 97.8487 117.637 98.8932 117.398 99.7152C117.16 100.537 116.048 101.366 115.287 101.731C114.904 101.916 114.706 101.678 114.603 101.38C114.533 101.146 114.496 100.904 114.492 100.66C114.492 100.588 114.454 100.078 114.397 99.4417C114.349 98.8916 114.282 98.2448 114.207 97.7025C114.05 96.5347 113.494 95.9869 113.545 95.7173C113.597 95.4478 114.708 95.3055 115.284 95.1672C115.521 95.1114 115.757 94.8222 115.959 94.4976C116.123 94.2277 116.268 93.9467 116.393 93.6567C116.419 93.5959 116.467 93.5467 116.527 93.5179C116.586 93.489 116.655 93.4825 116.719 93.4995C117.138 93.6111 117.943 93.9797 118.453 94.2005C118.588 94.2595 118.702 94.3082 118.781 94.3373C119.24 94.511 118.865 95.6843 118.228 96.7665Z" fill="#263238"/>
<path d="M109.971 76.9078L109.004 75.4358L108.487 67.8132L109.971 67.4902V76.9078Z" fill="#263238"/>
<path d="M99.2786 56.2826C99.2786 56.2826 95.8196 57.7806 95.6737 58.0352C95.5279 58.2898 95.4325 58.1515 94.6087 58.3425C93.785 58.5335 93.498 59.1284 94.0136 59.8522C94.5291 60.576 94.4716 61.7243 94.4716 61.7243C94.4716 61.7243 94.3849 62.1172 93.9986 62.1769C93.7519 62.2123 93.3822 62.1109 92.8335 61.681C91.424 60.5753 91.4981 58.8997 91.629 57.9047C91.7599 56.9098 93.7874 55.8284 94.0301 55.8394C94.2729 55.8504 95.1984 56.0398 95.8747 55.3105C96.5511 54.5811 97.6563 54.2031 97.6563 54.2031L99.0571 55.9966L99.2786 56.2826Z" fill="#977C6D"/>
<path d="M111.957 51.1566C112.036 53.1929 107.464 54.1006 106.597 53.4554C105.729 52.8101 105.402 49.804 105.402 49.804C105.402 49.804 105.724 49.2193 105.893 48.824C105.939 48.729 105.973 48.6283 105.994 48.5246C106.02 48.2723 105.888 47.2239 105.888 47.2239L109.934 46.5166C109.99 46.629 110.053 47.2294 110.158 47.7505C110.23 48.1112 110.32 48.4358 110.443 48.5317C110.742 48.7667 111.877 49.1187 111.957 51.1566Z" fill="#977C6D"/>
<path d="M120.057 54.9025L117.833 57.2696C117.833 57.2696 116.74 55.8385 114.966 56.2424C114.966 56.2424 115.528 62.2586 114.83 64.1644C114.83 64.1644 114.825 64.1762 114.817 64.1998C114.718 64.5796 114.739 64.9807 114.878 65.348C114.957 65.5594 115.048 65.8509 115.129 66.1488C115.296 66.75 115.437 67.3685 115.437 67.3685C115.437 67.3685 108.297 68.1607 105.189 68.9293C103.553 69.3333 103.21 68.4429 103.249 67.275C103.285 66.2337 103.623 64.9715 103.62 64.21V64.1911C103.6 62.5879 102.831 57.2107 101.913 56.1631C101.608 56.2018 101.32 56.3243 101.081 56.5167C100.673 56.8405 100.213 56.5513 99.69 56.6739C99.1666 56.7965 98.964 56.9804 98.7637 56.7305C98.5635 56.4806 97.3275 54.3484 97.3275 54.3484C97.3248 54.2782 97.339 54.2085 97.3689 54.1449C97.3988 54.0813 97.4435 54.0258 97.4993 53.983C97.6917 53.8344 98.3838 53.4006 98.4878 53.1012C98.5919 52.8017 100.414 50.8747 102.797 50.3434C102.797 50.3434 103.415 50.2523 103.75 49.8955C104.086 49.5387 104.585 50.1147 104.933 49.7226C105.281 49.3304 105.616 48.9642 105.83 49.3296C106.044 49.6951 106.345 51.1899 108.274 51.8099C108.319 51.8241 110.875 50.3253 110.75 48.73C110.75 48.73 110.822 48.1335 112.195 48.73C113.567 49.3265 113.9 49.5033 114.796 49.6055C115.692 49.7076 118.319 51.9192 120.057 54.9025Z" fill="#4CAF4F"/>
<path d="M110.583 44.812C110.588 45.2822 110.495 45.7483 110.311 46.1811C110.126 46.6139 109.854 47.004 109.511 47.3269C108.974 47.8352 108.262 48.1199 107.521 48.123C105.829 48.123 104.459 46.6416 104.459 44.8136C104.459 42.9855 105.829 41.5049 107.521 41.5049C108.187 41.5069 108.832 41.7378 109.347 42.1588C109.738 42.4813 110.052 42.8869 110.266 43.346C110.48 43.805 110.588 44.3059 110.583 44.812Z" fill="#977C6D"/>
<path d="M104.087 42.066C104.087 42.1203 103.652 43.4147 104.022 44.0788C104.392 44.7428 104.618 44.1833 104.937 44.1833C105.255 44.1833 105.816 42.9581 106.198 42.9887C106.579 43.0194 109.414 42.7466 109.809 43.8202C110.204 44.8937 111.375 44.1346 111.311 43.2347C111.246 42.3348 111.04 41.398 110.097 40.7819C109.153 40.1657 108.545 39.7445 107.792 39.794C107.039 39.8435 104.096 39.8231 104.087 42.066Z" fill="#263238"/>
<path d="M121.762 60.3472C121.413 61.7831 119.428 63.8492 119.003 64.3074C118.578 64.7656 118.23 65.1318 118.154 65.5853C118.077 66.0388 117.674 66.6934 116.741 67.6098C116.499 67.8578 116.202 68.0461 115.874 68.1599C115.26 68.3572 114.72 68.1552 114.448 67.8707C114.054 67.4558 114.308 66.4498 114.308 66.4498C114.308 65.5853 116.23 64.5856 117.146 63.7691C118.063 62.9525 118.967 61.1064 118.973 60.6145C118.971 60.3535 119.005 60.0936 119.074 59.8419C119.746 58.4273 119.137 58.2041 119.137 58.2041C118.806 58.0603 118.496 57.8726 118.216 57.6461C117.901 57.3718 117.901 57.1973 117.901 57.1973L119.985 54.9795C120.014 54.9835 120.041 54.9955 120.064 55.0141C120.212 55.11 120.583 55.473 121.325 56.8437C121.523 57.2091 121.672 57.5109 121.785 57.7695C122.246 58.8493 122.043 59.188 121.762 60.3472Z" fill="#977C6D"/>
<path d="M118.228 96.7664C117.59 97.8486 117.638 98.893 117.399 99.7151C117.16 100.537 116.048 101.365 115.287 101.731C114.904 101.916 114.706 101.678 114.604 101.38C115.581 101.065 116.647 99.9988 116.89 99.6373C117.179 99.2137 116.936 98.1252 117.693 96.8685C118.174 96.074 118.369 94.9313 118.446 94.2012C118.581 94.2601 118.696 94.3088 118.774 94.3379C119.24 94.5108 118.865 95.6842 118.228 96.7664Z" fill="#263238"/>
<path d="M114.397 99.4412C114.349 98.8911 114.282 98.2443 114.207 97.702C114.05 96.5341 113.494 95.9864 113.545 95.7168C113.597 95.4472 114.708 95.305 115.284 95.1667C115.521 95.1109 115.757 94.8217 115.959 94.4971C116.231 95.7443 116.492 98.3095 114.397 99.4412Z" fill="#977C6D"/>
<path d="M42.9153 66.889L11.5586 66.8167C11.3436 66.8154 11.1378 66.7295 10.9861 66.5775C10.8345 66.4256 10.7492 66.22 10.749 66.0056L10.7782 53.3069C10.7794 53.0924 10.8658 52.887 11.0183 52.7356C11.1709 52.5843 11.3773 52.4992 11.5925 52.499L42.9484 52.5713C43.1635 52.5724 43.3695 52.6582 43.5214 52.8102C43.6732 52.9622 43.7586 53.1679 43.7588 53.3824L43.7288 66.0819C43.7278 66.2963 43.6416 66.5016 43.4891 66.6528C43.3367 66.8041 43.1304 66.889 42.9153 66.889Z" fill="#4CAF4F"/>
<path d="M22.3389 63.8815C24.6709 61.5566 24.6709 57.7872 22.3389 55.4623C20.007 53.1374 16.2262 53.1374 13.8942 55.4623C11.5623 57.7872 11.5623 61.5566 13.8942 63.8815C16.2262 66.2063 20.007 66.2063 22.3389 63.8815Z" fill="white"/>
<path d="M18.0293 65.0506C17.9959 65.0526 17.9625 65.0526 17.9292 65.0506C16.9381 65.0183 15.9781 64.6982 15.167 64.1295C15.3409 63.7836 15.5848 63.4775 15.8833 63.2302C16.1818 62.983 16.5284 62.8 16.9012 62.6928C17.0271 62.6563 17.1558 62.6301 17.2859 62.6143C17.4082 62.5973 17.5314 62.5892 17.6548 62.5899H18.6662C18.7889 62.5902 18.9113 62.5988 19.0328 62.6158C19.1628 62.6321 19.2915 62.6584 19.4175 62.6944C19.9458 62.8463 20.4175 63.1503 20.7733 63.5683C20.9075 63.7263 21.0241 63.8984 21.121 64.0815C20.3311 64.6505 19.3946 64.9826 18.4218 65.0388C18.3769 65.0388 18.3312 65.0443 18.2839 65.0435C18.2769 65.0446 18.2697 65.0446 18.2626 65.0435C18.2532 65.0451 18.2436 65.0451 18.2342 65.0435C18.2257 65.0454 18.2168 65.0454 18.2082 65.0435C18.1725 65.0455 18.1367 65.0455 18.101 65.0435H18.0356L18.0293 65.0506Z" fill="#78909C"/>
<path d="M15.5191 58.649C15.5191 58.649 15.21 55.2374 17.0807 55.1745C18.9513 55.1116 19.7167 54.6409 20.1637 54.7988C20.6106 54.9568 20.9472 58.058 20.8274 58.6616C20.7076 59.2651 15.5191 58.649 15.5191 58.649Z" fill="#263238"/>
<path d="M19.0379 62.1186V63.0727C19.0379 63.4767 18.6437 63.8075 18.1629 63.806C17.682 63.8044 17.2894 63.4727 17.291 63.0688V62.1147C17.2932 61.949 17.358 61.7902 17.4723 61.6699C17.4988 61.6414 17.5275 61.6151 17.5583 61.5913C17.6189 61.5416 17.686 61.5004 17.7577 61.4687C17.8866 61.4122 18.026 61.3833 18.1668 61.3838C18.3076 61.3832 18.4469 61.4129 18.5751 61.471C18.6467 61.5027 18.7135 61.5439 18.7738 61.5936L18.7833 61.6015C18.8116 61.6255 18.838 61.6518 18.8621 61.6801C18.9729 61.7997 19.0355 61.9558 19.0379 62.1186Z" fill="#FFCDD2"/>
<path d="M20.5443 58.4396L20.5404 60.1859C20.5405 60.6077 20.4211 61.021 20.1959 61.3781C20.162 61.4332 20.1242 61.485 20.0864 61.5353C20.0404 61.5976 19.9909 61.6571 19.9382 61.7137C19.725 61.9469 19.4653 62.133 19.1757 62.26C18.8862 62.3871 18.5731 62.4524 18.2567 62.4517H18.0715C17.8054 62.4513 17.5414 62.4039 17.2919 62.3118C16.8544 62.1505 16.4768 61.8596 16.21 61.4782C15.9431 61.0968 15.7996 60.6431 15.7988 60.1781L15.8036 58.3705C15.816 58.0046 15.9168 57.647 16.0972 57.3282C16.2777 57.0093 16.5325 56.7384 16.8402 56.5385C17.2103 56.2963 17.6437 56.1681 18.0865 56.1699H18.2725C18.6185 56.1699 18.9598 56.2507 19.2689 56.4057C19.3295 56.4341 19.3884 56.4659 19.4455 56.5008C19.5153 56.5425 19.5827 56.5881 19.6473 56.6376C19.9257 56.8489 20.1515 57.1215 20.3071 57.434C20.4627 57.7466 20.5439 58.0907 20.5443 58.4396Z" fill="#FFCDD2"/>
<path d="M21.4554 59.3607C21.4548 59.6019 21.3581 59.833 21.1867 60.0032C21.0152 60.1734 20.783 60.2688 20.541 60.2684L20.545 58.4482C20.6674 58.4489 20.7885 58.4737 20.9013 58.5213C21.066 58.5916 21.2064 58.7087 21.3049 58.8579C21.4035 59.0072 21.4558 59.182 21.4554 59.3607Z" fill="#FFCDD2"/>
<path d="M15.7986 58.4375V60.2569C15.5743 60.2564 15.3581 60.1736 15.1911 60.0244C15.0242 59.8751 14.9182 59.6698 14.8933 59.4477C14.8685 59.2255 14.9265 59.0019 15.0564 58.8197C15.1863 58.6374 15.3789 58.5092 15.5975 58.4595C15.6116 58.4561 15.6258 58.4535 15.6401 58.4517H15.663C15.7077 58.4432 15.753 58.4385 15.7986 58.4375Z" fill="#FFCDD2"/>
<path d="M18.0794 65.0555H18.1046C18.1403 65.0575 18.1761 65.0575 18.2118 65.0555C18.2204 65.0574 18.2293 65.0574 18.2378 65.0555C18.2472 65.057 18.2568 65.057 18.2662 65.0555L18.3789 64.8747L18.9804 63.9002V63.6086L19.1916 63.4066L19.0868 63.0137C19.0709 63.0425 19.0533 63.0703 19.034 63.097V63.1009C18.87 63.3548 18.6469 63.5654 18.3836 63.7147C18.3122 63.7518 18.2369 63.7808 18.159 63.8012C18.0518 63.7712 17.9496 63.726 17.8555 63.6668C17.6269 63.5195 17.4339 63.3236 17.2903 63.0931C17.254 63.0404 17.2375 63.0098 17.2375 63.0098L17.1318 63.4027L17.3415 63.6063V63.8978L17.8555 64.7388L18.0494 65.0578L18.0794 65.0555Z" fill="white"/>
<path d="M19.0613 63.7052L19.256 64.0982L18.2895 65.0499C18.2825 65.0511 18.2753 65.0511 18.2683 65.0499C18.2589 65.0515 18.2493 65.0515 18.2399 65.0499C18.2313 65.0519 18.2224 65.0519 18.2139 65.0499L18.8626 63.5111L19.0361 63.0985V63.0946V62.623L19.5185 63.5025L19.0337 63.6597L19.0613 63.7052Z" fill="#78909C"/>
<path d="M18.0301 65.0535L17.0644 64.09L17.2615 63.701L17.2867 63.6522L16.8027 63.4935L17.2891 62.6172V62.6769L17.2883 63.0872L17.2899 63.0911L17.4633 63.5076V63.51L18.1042 65.0551H18.079H18.0482H18.0388L18.0301 65.0535Z" fill="#78909C"/>
<path d="M19.6074 56.1651C19.6074 56.1651 18.4684 55.8201 18.2476 55.8193C17.9282 55.8239 17.6106 55.8672 17.3017 55.9482C16.8634 56.0528 16.2044 56.5243 16.2044 56.5243L16.0798 56.7601C16.0239 56.8114 15.9756 56.8704 15.9364 56.9353C15.9364 56.9573 15.9174 57.0281 15.9033 57.0925L15.8008 57.2858C15.8142 57.2811 15.8489 57.2709 15.8906 57.2552L15.9482 57.4407C16.1152 57.2191 16.3271 57.0352 16.5702 56.9007C17.0684 56.7247 17.7384 56.6807 18.2122 57.0288C19.073 57.6576 20.6803 57.2976 20.6803 57.2976L19.6074 56.1651Z" fill="#263238"/>
<path d="M40.3006 56.0906L26.6174 56.0584C26.4473 56.0575 26.2844 55.9896 26.1644 55.8695C26.0443 55.7493 25.9768 55.5867 25.9766 55.4171V55.3833C25.9776 55.2138 26.0458 55.0516 26.1663 54.9321C26.2868 54.8125 26.4498 54.7453 26.6198 54.7451L40.3038 54.7766C40.4738 54.7774 40.6366 54.8453 40.7566 54.9655C40.8765 55.0857 40.9439 55.2483 40.9439 55.4178V55.4501C40.9434 55.62 40.8755 55.7828 40.755 55.9028C40.6344 56.0229 40.471 56.0904 40.3006 56.0906Z" fill="#E8F5E9"/>
<path d="M40.294 58.9484L26.6108 58.917C26.4407 58.9161 26.2779 58.8482 26.158 58.728C26.038 58.6078 25.9707 58.4452 25.9707 58.2757V58.2434C25.9715 58.0738 26.0396 57.9114 26.1602 57.7917C26.2807 57.672 26.4438 57.6047 26.614 57.6045L40.2971 57.6367C40.4672 57.6375 40.6301 57.7055 40.7502 57.8256C40.8703 57.9458 40.9378 58.1084 40.938 58.278V58.3102C40.937 58.4798 40.8687 58.6422 40.748 58.7617C40.6273 58.8813 40.4641 58.9484 40.294 58.9484Z" fill="#81C784"/>
<path d="M26.6122 60.464L40.2953 60.4949C40.4655 60.4953 40.6286 60.5631 40.7486 60.6833C40.8687 60.8036 40.9359 60.9664 40.9355 61.1361L40.9355 61.1683C40.9351 61.3382 40.867 61.5009 40.7463 61.6208C40.6255 61.7406 40.4619 61.8078 40.2915 61.8074L26.6092 61.7764C26.4388 61.776 26.2755 61.7082 26.1553 61.5878C26.0351 61.4674 25.9678 61.3043 25.9682 61.1345L25.9683 61.1007C25.9685 61.0167 25.9852 60.9335 26.0177 60.856C26.0501 60.7784 26.0975 60.708 26.1572 60.6487C26.217 60.5895 26.2878 60.5425 26.3657 60.5105C26.4437 60.4786 26.5271 60.4622 26.6114 60.4624L26.6122 60.464Z" fill="#81C784"/>
<path d="M40.2813 64.673L26.5981 64.6416C26.428 64.6405 26.2652 64.5724 26.1452 64.4521C26.0253 64.3318 25.958 64.1691 25.958 63.9995V63.968C25.9588 63.7984 26.027 63.636 26.1475 63.5163C26.268 63.3966 26.4311 63.3293 26.6013 63.3291L40.2844 63.3605C40.4546 63.3616 40.6175 63.4297 40.7376 63.5499C40.8576 63.6702 40.9251 63.8329 40.9253 64.0026V64.0341C40.9243 64.2037 40.856 64.3661 40.7353 64.4858C40.6147 64.6055 40.4515 64.6728 40.2813 64.673Z" fill="#81C784"/>
<path d="M51.3161 85.0472L20.1668 85.0417C19.9531 85.0411 19.7483 84.9562 19.5972 84.8055C19.4461 84.6549 19.361 84.4508 19.3604 84.2377V71.6223C19.361 71.4092 19.4462 71.2049 19.5975 71.0542C19.7488 70.9036 19.9537 70.8188 20.1676 70.8184L51.3169 70.8239C51.5306 70.8245 51.7354 70.9094 51.8865 71.06C52.0376 71.2107 52.1227 71.4148 52.1234 71.6278V84.2432C52.1225 84.4563 52.0372 84.6605 51.886 84.8111C51.7347 84.9617 51.5299 85.0466 51.3161 85.0472Z" fill="white"/>
<path d="M48.7117 74.472H35.1192C34.9502 74.4716 34.7882 74.4044 34.6687 74.2853C34.5492 74.1661 34.4819 74.0047 34.4814 73.8362V73.8047C34.4819 73.6362 34.5492 73.4748 34.6687 73.3556C34.7882 73.2365 34.9502 73.1694 35.1192 73.1689H48.7125C48.8815 73.1698 49.0434 73.2371 49.1628 73.3564C49.2822 73.4756 49.3496 73.637 49.3502 73.8055V73.837C49.3492 74.0053 49.2815 74.1665 49.162 74.2854C49.0424 74.4043 48.8806 74.4714 48.7117 74.472Z" fill="#4CAF4F"/>
<path d="M48.6978 75.9893H35.1045C34.7523 75.9893 34.4668 76.2739 34.4668 76.6251V76.6573C34.4668 77.0084 34.7523 77.2931 35.1045 77.2931H48.6978C49.05 77.2931 49.3356 77.0084 49.3356 76.6573V76.6251C49.3356 76.2739 49.05 75.9893 48.6978 75.9893Z" fill="#E8F5E9"/>
<path d="M48.6969 80.1398H35.1036C34.9345 80.1393 34.7726 80.0722 34.6531 79.9531C34.5336 79.8339 34.4662 79.6725 34.4658 79.504V79.4717C34.4667 79.3032 34.5342 79.1419 34.6538 79.0228C34.7734 78.9037 34.9353 78.8366 35.1043 78.8359H48.6969C48.8659 78.8364 49.0278 78.9035 49.1473 79.0226C49.2669 79.1418 49.3342 79.3032 49.3346 79.4717V79.504C49.3342 79.6725 49.2669 79.8339 49.1473 79.9531C49.0278 80.0722 48.8659 80.1393 48.6969 80.1398Z" fill="#E8F5E9"/>
<path d="M48.6969 82.9806H35.1036C34.9345 82.98 34.7725 82.9127 34.653 82.7934C34.5335 82.6741 34.4662 82.5126 34.4658 82.344V82.3126C34.4662 82.1441 34.5336 81.9826 34.6531 81.8634C34.7726 81.7443 34.9345 81.6772 35.1036 81.6768H48.6969C48.8659 81.6772 49.0278 81.7443 49.1473 81.8634C49.2669 81.9826 49.3342 82.1441 49.3346 82.3126V82.3448C49.3342 82.5133 49.2669 82.6747 49.1473 82.7939C49.0278 82.913 48.8659 82.9802 48.6969 82.9806Z" fill="#E8F5E9"/>
<path d="M30.9561 82.1519C33.2945 79.8206 33.2945 76.0408 30.9561 73.7094C28.6177 71.3781 24.8264 71.3781 22.488 73.7094C20.1496 76.0407 20.1496 79.8206 22.488 82.1519C24.8264 84.4833 28.6177 84.4832 30.9561 82.1519Z" fill="#E8F5E9"/>
<path d="M29.6323 81.7995C29.1362 82.1808 28.5697 82.461 27.965 82.624C27.7441 82.6836 27.5191 82.727 27.2918 82.7536C26.9127 82.7987 26.5295 82.7987 26.1504 82.7536C25.2985 82.6521 24.4902 82.3221 23.8115 81.7988C23.9861 81.4767 24.2235 81.1927 24.5096 80.9632C24.7958 80.7338 25.125 80.5637 25.478 80.4627C25.6024 80.4268 25.7294 80.4005 25.8579 80.3841H25.8737C25.989 80.369 26.1051 80.3614 26.2213 80.3613H27.2177C27.334 80.3611 27.4501 80.3684 27.5654 80.3833C27.5706 80.3829 27.5759 80.3829 27.5811 80.3833C27.7098 80.4002 27.8371 80.4265 27.9619 80.4619C28.3157 80.5626 28.6458 80.7328 28.9326 80.9625C29.2195 81.1922 29.4574 81.4768 29.6323 81.7995Z" fill="#78909C"/>
<path d="M29.5145 75.8834V79.0836C29.5145 79.4221 29.3796 79.7467 29.1396 79.9861C28.8995 80.2254 28.5739 80.3599 28.2343 80.3599H25.212C24.8726 80.3595 24.5471 80.2248 24.3072 79.9853C24.0674 79.7458 23.9326 79.4212 23.9326 79.0828V75.8826C23.9326 73.04 26.7216 73.1689 26.7216 73.1689C27.2182 73.1649 27.7093 73.2723 28.1587 73.4832C28.7948 73.7913 29.4199 74.4035 29.4987 75.6146C29.5074 75.6987 29.5145 75.7899 29.5145 75.8834Z" fill="#263238"/>
<path d="M27.5836 79.8889V80.832C27.5836 81.2312 27.1957 81.5574 26.722 81.5574C26.2482 81.5574 25.8604 81.2304 25.8604 80.832V79.8889C25.8622 79.7257 25.9255 79.5692 26.0377 79.4503C26.0637 79.422 26.0919 79.3957 26.1221 79.3718C26.182 79.3225 26.2482 79.2815 26.3191 79.2499C26.4461 79.194 26.5835 79.165 26.7223 79.165C26.8612 79.165 26.9986 79.194 27.1256 79.2499C27.1958 79.2816 27.2615 79.3222 27.3211 79.371L27.3305 79.3788C27.3585 79.4012 27.3849 79.4257 27.4093 79.4519C27.52 79.5708 27.5821 79.7267 27.5836 79.8889Z" fill="#FFCDD2"/>
<path d="M29.0613 76.2562V77.9774C29.0624 78.4308 28.925 78.8738 28.6672 79.2474C28.6081 79.3298 28.5441 79.4085 28.4756 79.4832C28.2322 79.7491 27.9284 79.9528 27.5896 80.0773C27.3433 80.1679 27.0827 80.2139 26.8202 80.2133H26.6294C26.367 80.2136 26.1065 80.1675 25.8601 80.0773C25.4278 79.9187 25.0546 79.632 24.7906 79.2558C24.5265 78.8796 24.3842 78.4319 24.3828 77.9727V76.2649C24.3828 76.2405 24.3828 76.217 24.3828 76.1934C24.3922 75.8809 24.4671 75.5738 24.6029 75.2919C24.7387 75.0101 24.9323 74.7597 25.1711 74.5571C25.5767 74.2077 26.0949 74.0154 26.631 74.0156H26.8155C27.306 74.0156 27.7829 74.1769 28.1721 74.4746C28.3738 74.6277 28.5481 74.8137 28.6877 75.0247C28.7467 75.1107 28.7994 75.2008 28.8453 75.2943C28.9894 75.5945 29.0632 75.9234 29.0613 76.2562Z" fill="#FFCDD2"/>
<path d="M29.9608 77.1631C29.9608 77.281 29.9375 77.3976 29.8922 77.5065C29.847 77.6153 29.7807 77.7142 29.6971 77.7975C29.6135 77.8808 29.5142 77.9468 29.405 77.9918C29.2958 78.0368 29.1787 78.06 29.0605 78.0599V76.2656C29.1814 76.2653 29.301 76.2897 29.4121 76.3371C29.5749 76.4058 29.7138 76.5207 29.8114 76.6677C29.909 76.8146 29.9609 76.9869 29.9608 77.1631Z" fill="#FFCDD2"/>
<path d="M27.9646 80.4627L27.2914 82.7528C26.9123 82.7979 26.5291 82.7979 26.15 82.7528L25.4775 80.4619H25.9505L25.9671 80.4792L26.7175 81.2525L27.4696 80.4792L27.4861 80.4619L27.9646 80.4627Z" fill="#81C784"/>
<path d="M24.3834 76.2656V78.0599C24.1628 78.0591 23.9501 77.9776 23.7858 77.8308C23.6215 77.684 23.517 77.4822 23.4921 77.2636C23.4672 77.0451 23.5236 76.825 23.6508 76.6453C23.7779 76.4655 23.9668 76.3385 24.1816 76.2884L24.2242 76.2798H24.2462C24.2915 76.2715 24.3374 76.2668 24.3834 76.2656Z" fill="#FFCDD2"/>
<path d="M27.9646 80.4615L27.3781 81.6821L26.7207 81.253L27.4893 80.4615L27.5894 80.3594L27.9646 80.4615Z" fill="white"/>
<path d="M26.7209 81.2537L26.065 81.6821L25.4785 80.4623L25.8537 80.3594L25.9539 80.4623L26.7209 81.2537Z" fill="white"/>
<path d="M29.5141 75.8238C27.8374 75.944 27.9967 74.4311 28.174 73.6924C28.8047 74.0005 29.429 74.6127 29.5141 75.8238Z" fill="#263238"/>
<path d="M28.6542 74.5086C28.5967 74.6005 28.0181 75.6379 26.9783 75.6371C25.9386 75.6363 24.2863 76.2596 24.2351 77.293C24.1838 78.3265 22.9328 74.1384 26.0923 73.813C29.2517 73.4877 28.6542 74.5086 28.6542 74.5086Z" fill="#263238"/>
<path d="M50.1692 21.9561L49.9824 5.40409L75.4813 0.000976562L50.1692 21.9561Z" fill="#CFD8DC"/>
<path d="M50.0967 10.6655C50.226 10.6011 75.4797 0 75.4797 0L41.8984 4.46788L50.0967 10.6655Z" fill="#ECEFF1"/>
<path d="M52.8799 12.7788L50.1689 21.9558L61.797 12.1084L52.8799 12.7788Z" fill="#90A4AE"/>
<path d="M52.8809 12.779L61.128 18.9783L75.482 0.000976562L52.8809 12.779Z" fill="#ECEFF1"/>
<path d="M10.3827 80.0879C11.3835 79.0901 11.3835 77.4724 10.3827 76.4746C9.38187 75.4768 7.75923 75.4768 6.75842 76.4746C5.75761 77.4724 5.75761 79.0901 6.75842 80.0879C7.75923 81.0857 9.38187 81.0857 10.3827 80.0879Z" fill="#EEEEEE"/>
<path d="M31.2619 22.3286C33.1178 22.3286 34.6223 20.8286 34.6223 18.9783C34.6223 17.1279 33.1178 15.6279 31.2619 15.6279C29.4059 15.6279 27.9014 17.1279 27.9014 18.9783C27.9014 20.8286 29.4059 22.3286 31.2619 22.3286Z" fill="#4CAF4F"/>
</svg>
