<svg width="172" height="32" viewBox="0 0 172 32" fill="none" xmlns="http://www.w3.org/2000/svg">
<rect x="0.5" y="0.5" width="171" height="31" rx="3.5" fill="white"/>
<path fill-rule="evenodd" clip-rule="evenodd" d="M28.6839 10.2947V14.3777H31.2019C31.8017 14.3777 32.2977 14.1761 32.6901 13.773C33.0928 13.3707 33.2946 12.891 33.2946 12.3357C33.2946 11.7916 33.0928 11.3175 32.6901 10.9143C32.2977 10.5009 31.8017 10.2937 31.2019 10.2937L28.6839 10.2947ZM28.6839 15.8149V20.5513H27.1797V8.85742H31.1691C32.1829 8.85742 33.0434 9.19527 33.7524 9.87002C34.4719 10.5448 34.8315 11.367 34.8315 12.3357C34.8315 13.3268 34.4718 14.1547 33.7524 14.8182C33.0545 15.4827 32.1931 15.814 31.1691 15.814L28.6839 15.8149Z" fill="#5F6368"/>
<path fill-rule="evenodd" clip-rule="evenodd" d="M36.3515 18.1014C36.3515 18.4934 36.5178 18.82 36.8505 19.0813C37.183 19.3426 37.5726 19.4733 38.0193 19.4733C38.6517 19.4733 39.2151 19.2389 39.7112 18.7715C40.2074 18.303 40.4549 17.7533 40.4549 17.1224C39.9859 16.7519 39.3319 16.5671 38.4929 16.5671C37.882 16.5671 37.3728 16.7145 36.9645 17.0085C36.5561 17.3024 36.3515 17.6655 36.3515 18.1014ZM38.2976 12.2871C39.4094 12.2871 40.2867 12.5839 40.9305 13.1774C41.5733 13.771 41.8946 14.5848 41.8946 15.6189V20.5512H40.4559V19.4406H40.3904C39.7691 20.3551 38.9404 20.8125 37.9053 20.8125C37.0224 20.8125 36.2834 20.5512 35.69 20.0286C35.0959 19.506 34.7988 18.8527 34.7988 18.0687C34.7988 17.2409 35.1117 16.5829 35.7386 16.093C36.3655 15.603 37.2018 15.3576 38.2482 15.3576C39.1413 15.3576 39.8775 15.5209 40.4549 15.8475V15.5041C40.4549 14.9815 40.2475 14.5382 39.8337 14.1732C39.4188 13.8083 38.9348 13.6264 38.3789 13.6264C37.539 13.6264 36.8748 13.9801 36.3843 14.6884L35.0594 13.855C35.79 12.8097 36.8691 12.2871 38.2976 12.2871Z" fill="#5F6368"/>
<path fill-rule="evenodd" clip-rule="evenodd" d="M50.1511 12.5488L45.1313 24.0794H43.5784L45.4424 20.0449L42.1396 12.5488H43.7746L46.1617 18.2978H46.1944L48.5161 12.5488H50.1511Z" fill="#5F6368"/>
<path fill-rule="evenodd" clip-rule="evenodd" d="M22.6052 14.7931C22.6052 14.3199 22.565 13.8635 22.4893 13.4268H16.1455V16.0147H19.7789C19.6229 16.8583 19.1511 17.5761 18.4354 18.0567V19.7375H20.6039C21.8736 18.5672 22.6052 16.8379 22.6052 14.7931Z" fill="#2194F3"/>
<path fill-rule="evenodd" clip-rule="evenodd" d="M16.146 21.3603C17.9613 21.3603 19.4898 20.7648 20.6044 19.7382L18.4359 18.0574C17.8324 18.4634 17.0551 18.7004 16.146 18.7004C14.3914 18.7004 12.9022 17.5189 12.3696 15.9268H10.1357V17.658C11.2429 19.853 13.5179 21.3603 16.146 21.3603Z" fill="#4CAF4F"/>
<path fill-rule="evenodd" clip-rule="evenodd" d="M12.3694 15.9264C12.233 15.5204 12.1583 15.0873 12.1583 14.6403C12.1583 14.1933 12.233 13.7602 12.3694 13.3543V11.623H10.1355C9.67774 12.5302 9.41895 13.5549 9.41895 14.6403C9.41895 15.7257 9.67774 16.7505 10.1355 17.6576L12.3694 15.9264Z" fill="#FBC02D"/>
<path fill-rule="evenodd" clip-rule="evenodd" d="M16.146 10.5807C17.1373 10.5807 18.0258 10.9214 18.7265 11.5886L20.6465 9.67171C19.4805 8.58725 17.9604 7.9209 16.146 7.9209C13.5179 7.9209 11.2429 9.42813 10.1357 11.6232L12.3696 13.3544C12.9022 11.7622 14.3914 10.5807 16.146 10.5807Z" fill="#F44236"/>
<path opacity="0.1" d="M60.1504 8H59.1504V24H60.1504V8Z" fill="#202124"/>
<path d="M72.7624 19.8363C71.9317 19.8363 71.1851 19.5936 70.5224 19.1083C69.8597 18.6229 69.4024 17.9416 69.1504 17.0643L70.6344 16.4623C70.7837 17.0129 71.0474 17.4633 71.4254 17.8133C71.8034 18.1633 72.2584 18.3383 72.7904 18.3383C73.2851 18.3383 73.7051 18.2099 74.0504 17.9533C74.3957 17.6966 74.5684 17.3443 74.5684 16.8963C74.5684 16.4856 74.4167 16.1473 74.1134 15.8813C73.8101 15.6153 73.2804 15.3469 72.5244 15.0763L71.8944 14.8523C71.2224 14.6189 70.6577 14.2829 70.2004 13.8443C69.7431 13.4056 69.5144 12.8269 69.5144 12.1083C69.5144 11.6136 69.6497 11.1563 69.9204 10.7363C70.1911 10.3163 70.5667 9.98259 71.0474 9.73526C71.5281 9.48792 72.0717 9.36426 72.6784 9.36426C73.5557 9.36426 74.2557 9.57659 74.7784 10.0013C75.3011 10.4259 75.6511 10.9043 75.8284 11.4363L74.4144 12.0383C74.3117 11.7209 74.1157 11.4409 73.8264 11.1983C73.5371 10.9556 73.1637 10.8343 72.7064 10.8343C72.2491 10.8343 71.8641 10.9509 71.5514 11.1843C71.2387 11.4176 71.0824 11.7163 71.0824 12.0803C71.0824 12.4256 71.2224 12.7103 71.5024 12.9343C71.7824 13.1583 72.2211 13.3729 72.8184 13.5783L73.4484 13.7883C74.3071 14.0869 74.9721 14.4766 75.4434 14.9573C75.9147 15.4379 76.1504 16.0796 76.1504 16.8823C76.1504 17.5356 75.9824 18.0839 75.6464 18.5273C75.3104 18.9706 74.8834 19.2996 74.3654 19.5143C73.8474 19.7289 73.3131 19.8363 72.7624 19.8363ZM80.0804 19.8363C79.5671 19.8363 79.1097 19.7359 78.7084 19.5353C78.3071 19.3346 77.9944 19.0499 77.7704 18.6813C77.5464 18.3126 77.4344 17.8949 77.4344 17.4283C77.4344 16.6909 77.7121 16.1076 78.2674 15.6783C78.8227 15.2489 79.5251 15.0343 80.3744 15.0343C80.7944 15.0343 81.1724 15.0739 81.5084 15.1533C81.8444 15.2326 82.1104 15.3189 82.3064 15.4123V15.0483C82.3064 14.6096 82.1431 14.2526 81.8164 13.9773C81.4897 13.7019 81.0697 13.5643 80.5564 13.5643C80.1924 13.5643 79.8494 13.6436 79.5274 13.8023C79.2054 13.9609 78.9464 14.1803 78.7504 14.4603L77.6724 13.6343C77.9897 13.1956 78.4004 12.8549 78.9044 12.6123C79.4084 12.3696 79.9684 12.2483 80.5844 12.2483C81.6204 12.2483 82.4184 12.5026 82.9784 13.0113C83.5384 13.5199 83.8184 14.2363 83.8184 15.1603V19.6123H82.3064V18.7583H82.2364C82.0311 19.0663 81.7417 19.3229 81.3684 19.5283C80.9951 19.7336 80.5657 19.8363 80.0804 19.8363ZM80.3464 18.5623C80.7197 18.5623 81.0557 18.4736 81.3544 18.2963C81.6531 18.1189 81.8864 17.8809 82.0544 17.5823C82.2224 17.2836 82.3064 16.9616 82.3064 16.6163C82.0917 16.4949 81.8421 16.3969 81.5574 16.3223C81.2727 16.2476 80.9764 16.2103 80.6684 16.2103C80.0897 16.2103 79.6651 16.3246 79.3944 16.5533C79.1237 16.7819 78.9884 17.0783 78.9884 17.4423C78.9884 17.7689 79.1144 18.0373 79.3664 18.2473C79.6184 18.4573 79.9451 18.5623 80.3464 18.5623ZM84.7104 12.4723H86.4324L88.4064 17.6243H88.4624L90.4784 12.4723H92.1584L89.1904 19.6123H87.6504L84.7104 12.4723ZM96.3544 19.8363C95.6544 19.8363 95.0267 19.6729 94.4714 19.3463C93.9161 19.0196 93.4821 18.5693 93.1694 17.9953C92.8567 17.4213 92.7004 16.7749 92.7004 16.0563C92.7004 15.3749 92.8521 14.7426 93.1554 14.1593C93.4587 13.5759 93.8811 13.1116 94.4224 12.7663C94.9637 12.4209 95.5797 12.2483 96.2704 12.2483C96.9891 12.2483 97.6121 12.4069 98.1394 12.7243C98.6667 13.0416 99.0681 13.4756 99.3434 14.0263C99.6187 14.5769 99.7564 15.1976 99.7564 15.8883C99.7564 16.0189 99.7424 16.1823 99.7144 16.3783H94.2404C94.2964 17.0409 94.5321 17.5519 94.9474 17.9113C95.3627 18.2706 95.8457 18.4503 96.3964 18.4503C96.8351 18.4503 97.2154 18.3499 97.5374 18.1493C97.8594 17.9486 98.1184 17.6756 98.3144 17.3303L99.6164 17.9463C99.2804 18.5343 98.8417 18.9963 98.3004 19.3323C97.7591 19.6683 97.1104 19.8363 96.3544 19.8363ZM98.1884 15.2023C98.1697 14.9503 98.0904 14.7006 97.9504 14.4533C97.8104 14.2059 97.5981 13.9983 97.3134 13.8303C97.0287 13.6623 96.6811 13.5783 96.2704 13.5783C95.7757 13.5783 95.3581 13.7253 95.0174 14.0193C94.6767 14.3133 94.4411 14.7076 94.3104 15.2023H98.1884ZM107.658 19.7243C107.341 19.7243 107.042 19.6729 106.762 19.5703C106.482 19.4676 106.254 19.3323 106.076 19.1643C105.675 18.7629 105.474 18.2169 105.474 17.5263V13.8303H104.228V12.4723H105.474V10.4563H107.014V12.4723H108.75V13.8303H107.014V17.1903C107.014 17.5729 107.089 17.8436 107.238 18.0023C107.378 18.1889 107.621 18.2823 107.966 18.2823C108.125 18.2823 108.265 18.2613 108.386 18.2193C108.508 18.1773 108.638 18.1096 108.778 18.0163V19.5143C108.47 19.6543 108.097 19.7243 107.658 19.7243ZM113.436 19.8363C112.718 19.8363 112.074 19.6706 111.504 19.3393C110.935 19.0079 110.492 18.5529 110.174 17.9743C109.857 17.3956 109.698 16.7516 109.698 16.0423C109.698 15.3329 109.857 14.6889 110.174 14.1103C110.492 13.5316 110.935 13.0766 111.504 12.7453C112.074 12.4139 112.718 12.2483 113.436 12.2483C114.155 12.2483 114.799 12.4163 115.368 12.7523C115.938 13.0883 116.381 13.5456 116.698 14.1243C117.016 14.7029 117.174 15.3423 117.174 16.0423C117.174 16.7516 117.016 17.3956 116.698 17.9743C116.381 18.5529 115.938 19.0079 115.368 19.3393C114.799 19.6706 114.155 19.8363 113.436 19.8363ZM113.436 18.4223C113.828 18.4223 114.192 18.3266 114.528 18.1353C114.864 17.9439 115.133 17.6686 115.333 17.3093C115.534 16.9499 115.634 16.5276 115.634 16.0423C115.634 15.5569 115.534 15.1369 115.333 14.7823C115.133 14.4276 114.864 14.1546 114.528 13.9633C114.192 13.7719 113.828 13.6763 113.436 13.6763C113.044 13.6763 112.68 13.7719 112.344 13.9633C112.008 14.1546 111.74 14.4276 111.539 14.7823C111.339 15.1369 111.238 15.5569 111.238 16.0423C111.238 16.5276 111.339 16.9499 111.539 17.3093C111.74 17.6686 112.008 17.9439 112.344 18.1353C112.68 18.3266 113.044 18.4223 113.436 18.4223ZM122.108 12.4723H123.578V13.4103H123.648C123.854 13.0836 124.157 12.8083 124.558 12.5843C124.96 12.3603 125.412 12.2483 125.916 12.2483C126.56 12.2483 127.144 12.4116 127.666 12.7383C128.189 13.0649 128.602 13.5153 128.905 14.0893C129.209 14.6633 129.36 15.3143 129.36 16.0423C129.36 16.7703 129.209 17.4213 128.905 17.9953C128.602 18.5693 128.189 19.0196 127.666 19.3463C127.144 19.6729 126.56 19.8363 125.916 19.8363C125.412 19.8363 124.96 19.7243 124.558 19.5003C124.157 19.2763 123.854 19.0056 123.648 18.6883H123.578L123.648 19.6823V22.6363H122.108V12.4723ZM125.692 18.4223C126.066 18.4223 126.416 18.3243 126.742 18.1283C127.069 17.9323 127.33 17.6523 127.526 17.2883C127.722 16.9243 127.82 16.5089 127.82 16.0423C127.82 15.5756 127.722 15.1626 127.526 14.8033C127.33 14.4439 127.069 14.1663 126.742 13.9703C126.416 13.7743 126.066 13.6763 125.692 13.6763C125.319 13.6763 124.971 13.7743 124.649 13.9703C124.327 14.1663 124.068 14.4439 123.872 14.8033C123.676 15.1626 123.578 15.5756 123.578 16.0423C123.578 16.5089 123.676 16.9243 123.872 17.2883C124.068 17.6523 124.327 17.9323 124.649 18.1283C124.971 18.3243 125.319 18.4223 125.692 18.4223ZM130.77 9.58826H132.31V12.3183L132.24 13.4103H132.31C132.516 13.0743 132.821 12.7966 133.227 12.5773C133.633 12.3579 134.07 12.2483 134.536 12.2483C135.404 12.2483 136.067 12.5026 136.524 13.0113C136.982 13.5199 137.21 14.2129 137.21 15.0903V19.6123H135.67V15.3003C135.67 14.7589 135.528 14.3529 135.243 14.0823C134.959 13.8116 134.588 13.6763 134.13 13.6763C133.785 13.6763 133.475 13.7743 133.199 13.9703C132.924 14.1663 132.707 14.4253 132.548 14.7473C132.39 15.0693 132.31 15.4123 132.31 15.7763V19.6123H130.77V9.58826ZM142.456 19.8363C141.738 19.8363 141.094 19.6706 140.524 19.3393C139.955 19.0079 139.512 18.5529 139.194 17.9743C138.877 17.3956 138.718 16.7516 138.718 16.0423C138.718 15.3329 138.877 14.6889 139.194 14.1103C139.512 13.5316 139.955 13.0766 140.524 12.7453C141.094 12.4139 141.738 12.2483 142.456 12.2483C143.175 12.2483 143.819 12.4163 144.388 12.7523C144.958 13.0883 145.401 13.5456 145.718 14.1243C146.036 14.7029 146.194 15.3423 146.194 16.0423C146.194 16.7516 146.036 17.3956 145.718 17.9743C145.401 18.5529 144.958 19.0079 144.388 19.3393C143.819 19.6706 143.175 19.8363 142.456 19.8363ZM142.456 18.4223C142.848 18.4223 143.212 18.3266 143.548 18.1353C143.884 17.9439 144.153 17.6686 144.353 17.3093C144.554 16.9499 144.654 16.5276 144.654 16.0423C144.654 15.5569 144.554 15.1369 144.353 14.7823C144.153 14.4276 143.884 14.1546 143.548 13.9633C143.212 13.7719 142.848 13.6763 142.456 13.6763C142.064 13.6763 141.7 13.7719 141.364 13.9633C141.028 14.1546 140.76 14.4276 140.559 14.7823C140.359 15.1369 140.258 15.5569 140.258 16.0423C140.258 16.5276 140.359 16.9499 140.559 17.3093C140.76 17.6686 141.028 17.9439 141.364 18.1353C141.7 18.3266 142.064 18.4223 142.456 18.4223ZM147.618 12.4723H149.088V13.4103H149.158C149.364 13.0743 149.669 12.7966 150.075 12.5773C150.481 12.3579 150.913 12.2483 151.37 12.2483C152.238 12.2483 152.899 12.5026 153.351 13.0113C153.804 13.5199 154.03 14.2129 154.03 15.0903V19.6123H152.49V15.3003C152.49 14.7403 152.353 14.3296 152.077 14.0683C151.802 13.8069 151.422 13.6763 150.936 13.6763C150.591 13.6763 150.283 13.7719 150.012 13.9633C149.742 14.1546 149.532 14.4089 149.382 14.7263C149.233 15.0436 149.158 15.3843 149.158 15.7483V19.6123H147.618V12.4723ZM159.178 19.8363C158.478 19.8363 157.851 19.6729 157.295 19.3463C156.74 19.0196 156.306 18.5693 155.993 17.9953C155.681 17.4213 155.524 16.7749 155.524 16.0563C155.524 15.3749 155.676 14.7426 155.979 14.1593C156.283 13.5759 156.705 13.1116 157.246 12.7663C157.788 12.4209 158.404 12.2483 159.094 12.2483C159.813 12.2483 160.436 12.4069 160.963 12.7243C161.491 13.0416 161.892 13.4756 162.167 14.0263C162.443 14.5769 162.58 15.1976 162.58 15.8883C162.58 16.0189 162.566 16.1823 162.538 16.3783H157.064C157.12 17.0409 157.356 17.5519 157.771 17.9113C158.187 18.2706 158.67 18.4503 159.22 18.4503C159.659 18.4503 160.039 18.3499 160.361 18.1493C160.683 17.9486 160.942 17.6756 161.138 17.3303L162.44 17.9463C162.104 18.5343 161.666 18.9963 161.124 19.3323C160.583 19.6683 159.934 19.8363 159.178 19.8363ZM161.012 15.2023C160.994 14.9503 160.914 14.7006 160.774 14.4533C160.634 14.2059 160.422 13.9983 160.137 13.8303C159.853 13.6623 159.505 13.5783 159.094 13.5783C158.6 13.5783 158.182 13.7253 157.841 14.0193C157.501 14.3133 157.265 14.7076 157.134 15.2023H161.012Z" fill="#3C4043"/>
<rect x="0.5" y="0.5" width="171" height="31" rx="3.5" stroke="#ECEFF1"/>
</svg>
