<svg width="12" height="14" viewBox="0 0 12 14" fill="none" xmlns="http://www.w3.org/2000/svg">
<path d="M9.33333 5.48244H2.66667V4.14911H9.33333M9.33333 8.14911H2.66667V6.81577H9.33333M7.33333 10.8158H2.66667V9.48244H7.33333M6 1.48244C6.17681 1.48244 6.34638 1.55268 6.4714 1.6777C6.59643 1.80273 6.66667 1.9723 6.66667 2.14911C6.66667 2.32592 6.59643 2.49549 6.4714 2.62051C6.34638 2.74554 6.17681 2.81578 6 2.81578C5.82319 2.81578 5.65362 2.74554 5.5286 2.62051C5.40357 2.49549 5.33333 2.32592 5.33333 2.14911C5.33333 1.9723 5.40357 1.80273 5.5286 1.6777C5.65362 1.55268 5.82319 1.48244 6 1.48244ZM10.6667 1.48244H7.88C7.6 0.709109 6.86667 0.149109 6 0.149109C5.13333 0.149109 4.4 0.709109 4.12 1.48244H1.33333C0.979711 1.48244 0.640573 1.62292 0.390524 1.87297C0.140476 2.12301 0 2.46215 0 2.81578V12.1491C0 12.5027 0.140476 12.8419 0.390524 13.0919C0.640573 13.342 0.979711 13.4824 1.33333 13.4824H10.6667C11.0203 13.4824 11.3594 13.342 11.6095 13.0919C11.8595 12.8419 12 12.5027 12 12.1491V2.81578C12 2.46215 11.8595 2.12301 11.6095 1.87297C11.3594 1.62292 11.0203 1.48244 10.6667 1.48244Z" fill="#263238"/>
</svg>
