<svg width="128" height="25" viewBox="0 0 128 25" fill="none" xmlns="http://www.w3.org/2000/svg">
<path d="M4.69429 19.64C4.61941 19.5359 4.58946 19.402 4.63439 19.2682C4.72425 18.9856 4.8141 18.703 4.91894 18.4204C4.99382 18.2122 5.17353 18.1676 5.36822 18.2866C5.8175 18.5692 6.26678 18.8517 6.71606 19.1343C6.92572 19.2682 6.98563 19.4467 6.8808 19.6698C6.74601 19.9375 6.61123 20.1903 6.46147 20.4431C6.34166 20.6514 6.22185 20.6811 5.99721 20.577C5.74262 20.458 4.79913 19.7887 4.69429 19.64Z" fill="#263238"/>
<path d="M10.7898 7.20705L13.2758 8.51587C13.5903 8.67947 13.9647 8.57536 14.1444 8.2779L15.5072 6.01722C15.6869 5.71976 15.5971 5.31819 15.2976 5.13972C14.7435 4.78277 13.785 4.24735 12.6618 3.92014C12.3922 3.84578 12.0927 3.94989 11.928 4.18786L10.5502 6.28493C10.3405 6.59726 10.4453 7.02858 10.7898 7.20705Z" fill="#263238"/>
<path d="M9.53099 6.40365L11.2383 4.00912C11.4479 3.71166 11.3431 3.29522 11.0136 3.13161C10.5344 2.89365 9.74066 2.58132 8.61746 2.29873C8.42277 2.25411 8.19813 2.29873 8.06334 2.44746C7.65899 2.84903 6.83531 3.68191 6.22129 4.6189C6.0266 4.91636 6.13144 5.30306 6.44593 5.46666C7.0899 5.79386 8.13822 6.32929 8.82712 6.597C9.08171 6.70111 9.36626 6.62674 9.53099 6.40365Z" fill="#263238"/>
<path d="M16.0314 14.0778L16.7203 14.4347C16.915 14.5388 17.1546 14.4793 17.2744 14.3009C17.4392 14.0778 17.6638 13.7208 17.8585 13.2895C17.9483 13.111 17.8884 12.8879 17.7237 12.7689C17.529 12.6202 17.2594 12.4417 16.9749 12.3079C16.7652 12.2038 16.5256 12.2781 16.4058 12.4715C16.2411 12.7541 16.0015 13.1705 15.8367 13.4977C15.7469 13.7208 15.8367 13.9588 16.0314 14.0778Z" fill="#263238"/>
<path d="M7.34541 13.9446C8.00436 14.3611 9.12756 15.0601 9.75655 15.4617C10.0111 15.6253 10.101 15.9673 9.96622 16.2351L8.67828 18.4809C8.52852 18.7635 8.16909 18.8824 7.88455 18.7337C7.19565 18.3768 6.08742 17.7967 5.4135 17.291C5.18886 17.1126 5.11398 16.8002 5.24877 16.5474L6.52173 14.1826C6.65651 13.8554 7.04589 13.7513 7.34541 13.9446Z" fill="#263238"/>
<path d="M4.60419 15.6993L5.60758 13.5725C5.75734 13.2453 5.66748 12.8586 5.36796 12.6504C4.93366 12.3232 4.27471 11.8621 3.60079 11.4903C3.22639 11.2821 2.74716 11.416 2.55247 11.8026C2.34281 12.2042 2.05826 12.8586 1.77372 13.8997C1.69884 14.1377 1.75874 14.4054 1.93845 14.5987C2.23797 14.9408 2.77711 15.4911 3.48098 15.9968C3.85538 16.2645 4.4095 16.1158 4.60419 15.6993Z" fill="#263238"/>
<path d="M6.1469 10.8953L7.13532 9.21463C7.34499 8.87255 7.2102 8.42637 6.86575 8.23302C6.50633 8.03967 6.04207 7.8017 5.54786 7.60836C5.23337 7.48937 4.88892 7.59348 4.69423 7.8612C4.42466 8.23302 4.05026 8.82793 3.72079 9.48234C3.55605 9.80954 3.67586 10.1962 3.97538 10.3896L5.14351 11.1332C5.48796 11.3415 5.93724 11.2373 6.1469 10.8953Z" fill="#263238"/>
<path d="M3.13641 8.91676C3.54077 8.24748 4.21469 7.10227 4.64899 6.38837C4.84368 6.07604 4.7089 5.6596 4.37943 5.51087C4.10986 5.39189 3.78038 5.2729 3.46589 5.16879C3.24125 5.1093 3.00163 5.16879 2.85187 5.34727C2.55235 5.68934 2.01321 6.41812 1.36924 7.89053C1.24943 8.15824 1.33929 8.4557 1.57891 8.6193C1.7736 8.75316 2.02819 8.93163 2.26781 9.09524C2.55235 9.31833 2.9567 9.22909 3.13641 8.91676Z" fill="#263238"/>
<path d="M17.7684 14.8363C18.038 14.3901 18.3825 13.8249 18.682 13.349C18.9366 12.9325 19.4757 12.7838 19.91 13.0218C20.2395 13.2151 20.6289 13.4382 20.9883 13.6464C21.3777 13.8844 21.5274 14.3901 21.3178 14.7916C21.0931 15.2676 20.7487 15.8922 20.3443 16.4128C20.0748 16.7549 19.5955 16.859 19.2061 16.6508C18.8767 16.4723 18.4723 16.2641 18.1129 16.0707C17.6486 15.8476 17.4989 15.2676 17.7684 14.8363Z" fill="#263238"/>
<path d="M12.6463 23.8197C12.9608 23.4627 13.44 22.9273 13.7096 22.5852C13.7845 22.4811 13.9342 22.4365 14.054 22.4811C14.4284 22.6001 15.2371 22.8529 15.9859 23.0463C16.2255 23.1058 16.3154 23.4181 16.1207 23.5817C15.8661 23.8197 15.5067 24.1171 15.1772 24.3402C14.8777 24.5336 14.5183 24.6228 14.1738 24.5782C13.8144 24.5336 13.2753 24.4592 12.796 24.3253C12.5714 24.2658 12.4965 23.9981 12.6463 23.8197Z" fill="#263238"/>
<path d="M3.07675 18.3766C3.18158 18.0047 3.3613 17.4098 3.55598 16.9636C3.60091 16.8744 3.57096 16.7703 3.49608 16.7108C3.21154 16.4728 2.49269 15.8928 2.01345 15.4317C1.89364 15.3127 1.68398 15.3722 1.63905 15.5358C1.56417 15.863 1.47432 16.3538 1.53422 16.9041C1.5492 17.0231 1.59412 17.1421 1.65403 17.2462C1.83374 17.5139 2.23809 18.0791 2.71733 18.4955C2.85211 18.5848 3.0468 18.5253 3.07675 18.3766Z" fill="#263238"/>
<path d="M18.2619 22.3171C18.7562 21.7222 19.6547 20.6514 20.1489 19.9821C20.2687 19.8333 20.4634 19.7739 20.6431 19.8333C20.9427 19.9375 21.3919 20.1011 21.7663 20.22C22.0509 20.3093 22.1557 20.6365 21.991 20.8744C21.6615 21.3504 21.1224 22.0643 20.5083 22.57C19.9992 22.9864 19.3252 23.1797 18.6813 23.0608C18.6064 23.0459 18.5315 23.031 18.4716 23.0161C18.1721 22.9269 18.0673 22.5551 18.2619 22.3171Z" fill="#263238"/>
<path d="M24.0283 14.8068L24.6123 15.2828C24.7771 15.4166 25.0317 15.3423 25.0916 15.134C25.1964 14.792 25.3462 14.2714 25.421 13.8401C25.4809 13.4385 25.3312 13.037 25.0167 12.7693L25.0017 12.7544C24.837 12.6205 24.5974 12.6949 24.5374 12.8882C24.3727 13.3344 24.1031 14.0929 23.9534 14.4648C23.8935 14.5837 23.9234 14.7176 24.0283 14.8068Z" fill="#263238"/>
<path d="M15.0878 0.484544C15.3424 0.350688 15.6269 0.320942 15.8965 0.395307C16.4356 0.529163 17.6187 0.856366 18.3376 1.28768C18.5622 1.42154 18.6221 1.70412 18.4724 1.92721L18.3226 2.15031C18.2178 2.29904 18.0231 2.35853 17.8584 2.26929C17.2593 1.98671 15.8665 1.31743 15.1177 0.990222C14.8931 0.871239 14.8931 0.588654 15.0878 0.484544Z" fill="#263238"/>
<path d="M14.4586 0.484077L14.6084 0.394839C14.6983 0.335348 14.6833 0.201492 14.5784 0.186619C14.0693 0.0825089 12.991 -0.110839 12.4518 0.0825089C12.347 0.127128 12.347 0.275856 12.4668 0.305602C12.7963 0.379967 13.3354 0.484077 13.7098 0.588187C13.9494 0.662551 14.219 0.617933 14.4586 0.484077Z" fill="#263238"/>
<path d="M18.8169 2.25376L18.9967 2.01579C19.0865 1.88194 19.2662 1.85219 19.401 1.92656C20.0001 2.26863 21.5725 3.23537 22.0218 4.17236C22.1566 4.45495 21.8271 4.73753 21.5725 4.55906L18.8768 2.68507C18.7421 2.58096 18.7121 2.38762 18.8169 2.25376Z" fill="#263238"/>
<path d="M6.86598 1.64459C7.04569 1.65947 7.31526 1.67434 7.52493 1.70408C7.76454 1.73383 8.00416 1.65947 8.21383 1.48099C8.42349 1.28764 8.76794 1.03481 9.21722 0.796839C9.30708 0.75222 9.27712 0.588618 9.18727 0.603491C8.6032 0.633237 7.62976 0.826585 6.83603 1.45125C6.76115 1.49586 6.77613 1.62972 6.86598 1.64459Z" fill="#263238"/>
<path d="M0.381127 13.5875C0.530904 13.7511 0.710635 13.9594 0.890366 14.123C1.08508 14.3014 1.17494 14.5692 1.11503 14.822C1.04014 15.1938 0.965254 15.7441 1.01019 16.3688C1.02516 16.5472 0.785523 16.6067 0.695657 16.458C0.411083 15.9375 0.0665975 15.0451 0.0965527 13.6917C0.0965527 13.5429 0.291262 13.4834 0.381127 13.5875Z" fill="#263238"/>
<path d="M5.89192 23.1501C5.23298 22.7486 4.16968 22.0198 3.63054 21.3356C3.49576 21.1571 3.49576 20.9043 3.64552 20.7258C3.7803 20.5622 4.01992 20.5325 4.19963 20.6515C4.76872 21.0828 5.98178 21.99 6.70063 22.466C6.86536 22.5701 6.91029 22.7932 6.80546 22.9568C6.61077 23.2542 6.20642 23.3286 5.89192 23.1501Z" fill="#263238"/>
<path d="M3.28647 20.4434C3.37633 20.3244 3.36136 20.1608 3.25652 20.0567C2.8971 19.7146 2.05844 18.9263 1.57921 18.2571C1.53428 18.1976 1.42945 18.2422 1.4594 18.3166C1.60916 18.7925 2.04346 19.67 2.86715 20.4582C2.98695 20.5921 3.18164 20.5772 3.28647 20.4434Z" fill="#263238"/>
<path d="M7.28513 23.4924C7.3001 23.4924 7.3001 23.4924 7.28513 23.4924C7.40493 23.3437 7.59962 23.314 7.74938 23.4181C8.12378 23.6709 8.84263 24.4294 9.77115 24.6971C9.84603 24.712 9.83105 24.831 9.75617 24.831C9.21703 24.8161 8.31847 24.3997 7.41991 24.0279C7.22522 23.9386 7.15034 23.6709 7.28513 23.4924Z" fill="#263238"/>
<path d="M15.867 4.33652C15.6573 4.4555 15.4626 4.52986 15.238 4.41088C14.5491 4.08368 13.8602 3.75647 13.1713 3.42927C13.0515 3.36978 12.9167 3.31029 12.8418 3.1913C12.737 3.0277 12.737 2.87897 12.8718 2.71537C13.1563 2.38817 13.4409 2.04609 13.7254 1.71889C13.9351 1.48092 14.2795 1.40656 14.5641 1.52554C15.1631 1.77838 15.7622 2.01635 16.3462 2.29893C16.7506 2.49228 16.8404 2.7005 16.6158 3.08719C16.4061 3.45902 16.1815 3.84571 15.9568 4.21753C15.9269 4.26215 15.8969 4.30677 15.867 4.33652Z" fill="#FDD835"/>
<path d="M8.67817 7.80235L6.5366 11.8032C6.35689 12.1304 6.4767 12.5468 6.80617 12.7401L10.8347 15.1496C11.1792 15.3578 11.6285 15.2388 11.8231 14.8818L14.2043 10.6728C14.399 10.3159 14.2642 9.88455 13.9048 9.6912L9.63664 7.50489C9.29219 7.32642 8.87286 7.46027 8.67817 7.80235Z" fill="#4CAF4F"/>
<path d="M15.0881 9.54166L18.278 11.3562C18.5625 11.5198 18.9369 11.4156 19.1017 11.1331C19.491 10.4787 20.135 9.27395 20.4645 8.05437C20.5244 7.83128 20.4495 7.59332 20.2698 7.44459C19.7606 7.01327 18.6075 6.1209 17.1698 5.63009C16.8852 5.54086 16.5857 5.64497 16.4359 5.89781L14.8634 8.73853C14.6987 9.02111 14.8035 9.37806 15.0881 9.54166Z" fill="#7B1FA2"/>
<path d="M12.4674 15.9226C13.1563 16.3093 14.1597 16.8745 14.9684 17.3207C15.4477 17.5884 15.6124 18.1833 15.3428 18.6444C14.9684 19.2988 14.3994 20.2209 13.8003 20.9645C13.5307 21.3066 13.0515 21.4256 12.6472 21.2471C11.9283 20.9348 10.865 20.4291 10.0413 19.8639C9.60702 19.5665 9.50219 18.9864 9.77176 18.5551L11.1496 16.2498C11.4491 15.8036 12.0182 15.6698 12.4674 15.9226Z" fill="#E53835"/>
<path d="M9.7271 20.4142C10.1315 20.6522 10.6706 20.9794 11.0899 21.2025C11.4344 21.3958 11.5392 21.8272 11.3445 22.1692C11.2097 22.4072 11.03 22.6749 10.8503 22.9278C10.4609 23.4483 9.75705 23.6268 9.15801 23.3591C8.82854 23.2103 8.46911 23.0319 8.15462 22.8236C7.82515 22.6154 7.73529 22.1692 7.95993 21.842C8.19955 21.4851 8.52902 20.9943 8.78361 20.6225C8.9783 20.3101 9.39763 20.2209 9.7271 20.4142Z" fill="#2194F3"/>
<path d="M37.1022 13.9507C37.1022 14.9918 36.9674 15.9437 36.7128 16.8063C36.4582 17.669 36.0539 18.3977 35.5297 19.0075C35.0056 19.6173 34.3466 20.0932 33.5379 20.4353C32.7442 20.7774 31.8007 20.941 30.7224 20.941C30.2282 20.941 29.749 20.9112 29.2697 20.8666C28.7905 20.822 28.2963 20.7328 27.7871 20.6138L28.0117 18.0854C28.0417 17.8623 28.1316 17.6838 28.2813 17.55C28.4311 17.4161 28.6557 17.3418 28.9403 17.3418C29.09 17.3418 29.2697 17.3715 29.4794 17.4161C29.6891 17.4607 29.9437 17.4905 30.2582 17.4905C30.6775 17.4905 31.0519 17.431 31.3514 17.312C31.6509 17.193 31.9205 16.9997 32.1302 16.732C32.3398 16.4643 32.4896 16.1073 32.5944 15.676C32.6992 15.2447 32.7442 14.6944 32.7442 14.0548V2.00781H37.0872V13.9507H37.1022Z" fill="#263238"/>
<path d="M50.4008 7.39258V20.7336H47.9297C47.4355 20.7336 47.106 20.5105 46.9563 20.0643L46.7316 19.2909C46.477 19.5437 46.2075 19.7668 45.9379 19.9602C45.6683 20.1684 45.3688 20.332 45.0543 20.4807C44.7398 20.6294 44.3954 20.7336 44.0359 20.8079C43.6765 20.8823 43.2722 20.9269 42.8528 20.9269C42.119 20.9269 41.475 20.793 40.9209 20.5402C40.3518 20.2874 39.8876 19.9304 39.4982 19.4842C39.1088 19.0232 38.8243 18.4878 38.6296 17.878C38.4349 17.2533 38.3301 16.584 38.3301 15.8404V7.39258H42.2987V15.8552C42.2987 16.5097 42.4485 17.0302 42.748 17.3872C43.0475 17.7441 43.4968 17.9226 44.0659 17.9226C44.5002 17.9226 44.9195 17.8333 45.2939 17.64C45.6683 17.4615 46.0427 17.2087 46.4022 16.8815V7.39258H50.4008Z" fill="#263238"/>
<path d="M60.2998 10.3224C60.195 10.486 60.0901 10.605 59.9703 10.6645C59.8505 10.7389 59.7008 10.7686 59.5211 10.7686C59.3264 10.7686 59.1467 10.724 58.952 10.6496C58.7573 10.5753 58.5626 10.486 58.3379 10.3819C58.1133 10.2927 57.8737 10.2035 57.6041 10.1142C57.3346 10.0399 57.0201 9.99524 56.6606 9.99524C56.1514 9.99524 55.7621 10.0845 55.4925 10.2778C55.2229 10.4712 55.0881 10.7389 55.0881 11.081C55.0881 11.3338 55.178 11.542 55.3577 11.7056C55.5374 11.8692 55.7621 12.018 56.0616 12.1369C56.3461 12.2559 56.6906 12.3749 57.05 12.4939C57.4244 12.6129 57.7988 12.7319 58.1882 12.8657C58.5776 12.9996 58.952 13.1632 59.3264 13.3416C59.7008 13.5201 60.0302 13.7581 60.3148 14.0258C60.5993 14.2935 60.8389 14.6207 61.0187 15.0074C61.1984 15.3941 61.2882 15.8552 61.2882 16.3906C61.2882 17.045 61.1684 17.6548 60.9288 18.2199C60.6892 18.7702 60.3298 19.2611 59.8505 19.6626C59.3713 20.0642 58.7872 20.3765 58.0834 20.5996C57.3795 20.8227 56.5858 20.9268 55.6722 20.9268C55.2229 20.9268 54.7587 20.8822 54.3094 20.793C53.8601 20.7037 53.4108 20.5847 52.9915 20.4509C52.5722 20.3022 52.1678 20.1385 51.8084 19.9303C51.449 19.7221 51.1345 19.5139 50.8799 19.2759L51.8084 17.8035C51.9132 17.625 52.048 17.4912 52.1978 17.4019C52.3625 17.2978 52.5572 17.2532 52.8118 17.2532C53.0364 17.2532 53.2461 17.2978 53.4408 17.4019C53.6205 17.5061 53.8302 17.6102 54.0398 17.7291C54.2495 17.8481 54.5041 17.9671 54.7886 18.0563C55.0732 18.1605 55.4326 18.2051 55.8819 18.2051C56.1964 18.2051 56.451 18.1753 56.6606 18.1158C56.8703 18.0563 57.05 17.9671 57.1698 17.8481C57.3046 17.744 57.3945 17.6102 57.4544 17.4763C57.5143 17.3424 57.5442 17.1937 57.5442 17.045C57.5442 16.7773 57.4544 16.5542 57.2747 16.3906C57.0949 16.2121 56.8553 16.0783 56.5708 15.9444C56.2862 15.8254 55.9418 15.7064 55.5674 15.6023C55.193 15.4982 54.8186 15.3792 54.4292 15.2305C54.0398 15.0966 53.6654 14.933 53.291 14.7397C52.9166 14.5463 52.5872 14.3084 52.2876 14.0109C52.0031 13.7135 51.7635 13.3565 51.5838 12.9252C51.404 12.4939 51.3142 11.9733 51.3142 11.3635C51.3142 10.7984 51.419 10.263 51.6437 9.7424C51.8683 9.23673 52.1978 8.79054 52.6321 8.40384C53.0664 8.01715 53.6205 7.70482 54.2794 7.48172C54.9384 7.25863 55.7171 7.13965 56.6007 7.13965C57.08 7.13965 57.5442 7.18427 57.9935 7.2735C58.4428 7.36274 58.8621 7.48172 59.2665 7.63045C59.6558 7.77918 60.0153 7.97253 60.3447 8.18075C60.6742 8.38897 60.9588 8.62694 61.2133 8.8649L60.2998 10.3224Z" fill="#263238"/>
<path d="M66.7694 20.9418C66.1404 20.9418 65.5713 20.8525 65.092 20.6592C64.6128 20.4807 64.1935 20.213 63.864 19.8709C63.5345 19.5288 63.2799 19.1273 63.1152 18.6365C62.9505 18.1605 62.8606 17.6251 62.8606 17.0302V10.1441H61.7224C61.5128 10.1441 61.348 10.0846 61.1983 9.9507C61.0485 9.81685 60.9736 9.6235 60.9736 9.37066V7.80901L63.1002 7.39257L63.879 4.1354C63.9838 3.71896 64.2684 3.51074 64.7476 3.51074H66.8293V7.40744H70.1539V10.1292H66.8442V16.7476C66.8442 17.0599 66.9191 17.3128 67.0689 17.5061C67.2186 17.7143 67.4283 17.8036 67.7128 17.8036C67.8626 17.8036 67.9824 17.7887 68.0723 17.759C68.1771 17.7292 68.252 17.6995 68.3269 17.6549C68.4017 17.6102 68.4616 17.5805 68.5365 17.5507C68.5964 17.521 68.6713 17.5061 68.7612 17.5061C68.881 17.5061 68.9708 17.5359 69.0457 17.5954C69.1206 17.6549 69.1955 17.7441 69.2704 17.8631L70.4834 19.7519C69.9742 20.1386 69.3902 20.4212 68.7462 20.6146C68.1172 20.8525 67.4583 20.9418 66.7694 20.9418Z" fill="#263238"/>
<path d="M80.0681 11.0212H86.7325V18.9336C85.774 19.6326 84.7556 20.1532 83.6624 20.4655C82.5841 20.7778 81.4459 20.9414 80.2628 20.9414C78.7203 20.9414 77.3125 20.7035 76.0546 20.2127C74.7966 19.7219 73.7033 19.0526 72.8048 18.2048C71.9062 17.3571 71.2023 16.3457 70.7231 15.1708C70.2289 13.9958 69.9893 12.7316 69.9893 11.3633C69.9893 9.96525 70.2139 8.68618 70.6782 7.51122C71.1424 6.33626 71.8014 5.3249 72.67 4.47715C73.5386 3.62939 74.5719 2.97499 75.8 2.49905C77.028 2.02312 78.3908 1.78516 79.9034 1.78516C80.6821 1.78516 81.416 1.84465 82.1049 1.9785C82.7938 2.11236 83.4228 2.27596 84.0068 2.49905C84.5909 2.72215 85.115 2.98986 85.5943 3.30219C86.0735 3.61452 86.5078 3.94173 86.8822 4.29867L85.6242 6.21728C85.4295 6.51473 85.175 6.70808 84.8605 6.76757C84.546 6.84194 84.2165 6.7527 83.8571 6.52961C83.5126 6.32139 83.1831 6.14291 82.8836 5.99418C82.5841 5.84545 82.2696 5.72647 81.9551 5.62236C81.6406 5.53312 81.2962 5.45876 80.9517 5.41414C80.6073 5.36952 80.2029 5.35465 79.7686 5.35465C78.9599 5.35465 78.2261 5.50338 77.5671 5.78596C76.9082 6.06855 76.3541 6.48499 75.9048 7.00554C75.4405 7.52609 75.0961 8.15075 74.8415 8.8944C74.5869 9.62317 74.4671 10.4412 74.4671 11.3484C74.4671 12.3449 74.6019 13.2224 74.8864 13.9958C75.156 14.7692 75.5454 15.4236 76.0546 15.9441C76.5637 16.4796 77.1628 16.8811 77.8517 17.1637C78.5556 17.4463 79.3193 17.5802 80.173 17.5802C80.6971 17.5802 81.1764 17.5355 81.5957 17.4314C82.015 17.3273 82.4343 17.1935 82.8387 17.015V14.1891H80.9367C80.6672 14.1891 80.4425 14.1148 80.2928 13.9661C80.143 13.8173 80.0681 13.6388 80.0681 13.4158V11.0212Z" fill="#263238"/>
<path d="M93.8909 7.18359C94.9093 7.18359 95.8228 7.3472 96.6615 7.65953C97.5001 7.97186 98.204 8.43292 98.8031 9.02783C99.4021 9.62275 99.8664 10.3366 100.196 11.1844C100.525 12.0322 100.69 12.984 100.69 14.04C100.69 15.1108 100.525 16.0627 100.196 16.9105C99.8664 17.7582 99.4021 18.487 98.8031 19.0819C98.204 19.6768 97.5001 20.1379 96.6615 20.4651C95.8228 20.7923 94.9093 20.941 93.8909 20.941C92.8726 20.941 91.944 20.7774 91.1054 20.4651C90.2667 20.1379 89.5479 19.6917 88.9488 19.0819C88.3498 18.487 87.8706 17.7582 87.5411 16.9105C87.2116 16.0627 87.0469 15.096 87.0469 14.04C87.0469 12.984 87.2116 12.0322 87.5411 11.1844C87.8706 10.3366 88.3348 9.62275 88.9488 9.02783C89.5479 8.43292 90.2667 7.98673 91.1054 7.65953C91.944 7.3472 92.8726 7.18359 93.8909 7.18359ZM93.8909 17.9813C94.8045 17.9813 95.4784 17.6541 95.9127 17.0146C96.347 16.375 96.5567 15.3786 96.5567 14.0549C96.5567 12.7312 96.347 11.7496 95.9127 11.11C95.4784 10.4705 94.8045 10.1433 93.8909 10.1433C92.9474 10.1433 92.2585 10.4705 91.8242 11.11C91.3899 11.7496 91.1653 12.7312 91.1653 14.0549C91.1653 15.3786 91.3899 16.3602 91.8242 17.0146C92.2585 17.6541 92.9474 17.9813 93.8909 17.9813Z" fill="#263238"/>
<path d="M102.417 19.9848C102.417 19.8608 102.439 19.7428 102.483 19.6308C102.531 19.5188 102.595 19.4228 102.675 19.3428C102.755 19.2628 102.851 19.1988 102.963 19.1508C103.075 19.1028 103.195 19.0788 103.323 19.0788C103.451 19.0788 103.569 19.1028 103.677 19.1508C103.789 19.1988 103.885 19.2628 103.965 19.3428C104.049 19.4228 104.115 19.5188 104.163 19.6308C104.211 19.7428 104.235 19.8608 104.235 19.9848C104.235 20.1128 104.211 20.2328 104.163 20.3448C104.115 20.4528 104.049 20.5468 103.965 20.6268C103.885 20.7068 103.789 20.7688 103.677 20.8128C103.569 20.8608 103.451 20.8848 103.323 20.8848C103.195 20.8848 103.075 20.8608 102.963 20.8128C102.851 20.7688 102.755 20.7068 102.675 20.6268C102.595 20.5468 102.531 20.4528 102.483 20.3448C102.439 20.2328 102.417 20.1128 102.417 19.9848ZM109.891 15.9468C109.847 16.0028 109.803 16.0468 109.759 16.0788C109.719 16.1108 109.659 16.1268 109.579 16.1268C109.503 16.1268 109.429 16.1048 109.357 16.0608C109.285 16.0128 109.199 15.9608 109.099 15.9048C108.999 15.8448 108.879 15.7928 108.739 15.7488C108.603 15.7008 108.433 15.6768 108.229 15.6768C107.969 15.6768 107.741 15.7248 107.545 15.8208C107.349 15.9128 107.185 16.0468 107.053 16.2228C106.925 16.3988 106.829 16.6128 106.765 16.8648C106.701 17.1128 106.669 17.3948 106.669 17.7108C106.669 18.0388 106.703 18.3308 106.771 18.5868C106.843 18.8428 106.945 19.0588 107.077 19.2348C107.209 19.4068 107.369 19.5388 107.557 19.6308C107.745 19.7188 107.957 19.7628 108.193 19.7628C108.429 19.7628 108.619 19.7348 108.763 19.6788C108.911 19.6188 109.035 19.5548 109.135 19.4868C109.235 19.4148 109.321 19.3508 109.393 19.2948C109.469 19.2348 109.553 19.2048 109.645 19.2048C109.765 19.2048 109.855 19.2508 109.915 19.3428L110.341 19.8828C110.177 20.0748 109.999 20.2368 109.807 20.3688C109.615 20.4968 109.415 20.6008 109.207 20.6808C109.003 20.7568 108.791 20.8108 108.571 20.8428C108.355 20.8748 108.139 20.8908 107.923 20.8908C107.543 20.8908 107.185 20.8208 106.849 20.6808C106.513 20.5368 106.219 20.3288 105.967 20.0568C105.715 19.7848 105.515 19.4528 105.367 19.0608C105.223 18.6648 105.151 18.2148 105.151 17.7108C105.151 17.2588 105.215 16.8408 105.343 16.4568C105.475 16.0688 105.667 15.7348 105.919 15.4548C106.171 15.1708 106.483 14.9488 106.855 14.7888C107.227 14.6288 107.655 14.5488 108.139 14.5488C108.599 14.5488 109.001 14.6228 109.345 14.7708C109.693 14.9188 110.005 15.1308 110.281 15.4068L109.891 15.9468ZM113.889 14.5488C114.345 14.5488 114.759 14.6228 115.131 14.7708C115.507 14.9188 115.827 15.1288 116.091 15.4008C116.359 15.6728 116.565 16.0048 116.709 16.3968C116.853 16.7888 116.925 17.2268 116.925 17.7108C116.925 18.1988 116.853 18.6388 116.709 19.0308C116.565 19.4228 116.359 19.7568 116.091 20.0328C115.827 20.3088 115.507 20.5208 115.131 20.6688C114.759 20.8168 114.345 20.8908 113.889 20.8908C113.429 20.8908 113.011 20.8168 112.635 20.6688C112.259 20.5208 111.937 20.3088 111.669 20.0328C111.405 19.7568 111.199 19.4228 111.051 19.0308C110.907 18.6388 110.835 18.1988 110.835 17.7108C110.835 17.2268 110.907 16.7888 111.051 16.3968C111.199 16.0048 111.405 15.6728 111.669 15.4008C111.937 15.1288 112.259 14.9188 112.635 14.7708C113.011 14.6228 113.429 14.5488 113.889 14.5488ZM113.889 19.7508C114.401 19.7508 114.779 19.5788 115.023 19.2348C115.271 18.8908 115.395 18.3868 115.395 17.7228C115.395 17.0588 115.271 16.5528 115.023 16.2048C114.779 15.8568 114.401 15.6828 113.889 15.6828C113.369 15.6828 112.983 15.8588 112.731 16.2108C112.483 16.5588 112.359 17.0628 112.359 17.7228C112.359 18.3828 112.483 18.8868 112.731 19.2348C112.983 19.5788 113.369 19.7508 113.889 19.7508ZM118.055 20.8008V14.6448H118.961C119.153 14.6448 119.279 14.7348 119.339 14.9148L119.435 15.3708C119.543 15.2508 119.655 15.1408 119.771 15.0408C119.891 14.9408 120.017 14.8548 120.149 14.7828C120.285 14.7108 120.429 14.6548 120.581 14.6148C120.737 14.5708 120.907 14.5488 121.091 14.5488C121.479 14.5488 121.797 14.6548 122.045 14.8668C122.297 15.0748 122.485 15.3528 122.609 15.7008C122.705 15.4968 122.825 15.3228 122.969 15.1788C123.113 15.0308 123.271 14.9108 123.443 14.8188C123.615 14.7268 123.797 14.6588 123.989 14.6148C124.185 14.5708 124.381 14.5488 124.577 14.5488C124.917 14.5488 125.219 14.6008 125.483 14.7048C125.747 14.8088 125.969 14.9608 126.149 15.1608C126.329 15.3608 126.465 15.6048 126.557 15.8928C126.653 16.1808 126.701 16.5108 126.701 16.8828V20.8008H125.219V16.8828C125.219 16.4908 125.133 16.1968 124.961 16.0008C124.789 15.8008 124.537 15.7008 124.205 15.7008C124.053 15.7008 123.911 15.7268 123.779 15.7788C123.651 15.8308 123.537 15.9068 123.437 16.0068C123.341 16.1028 123.265 16.2248 123.209 16.3728C123.153 16.5208 123.125 16.6908 123.125 16.8828V20.8008H121.637V16.8828C121.637 16.4708 121.553 16.1708 121.385 15.9828C121.221 15.7948 120.979 15.7008 120.659 15.7008C120.443 15.7008 120.241 15.7548 120.053 15.8628C119.869 15.9668 119.697 16.1108 119.537 16.2948V20.8008H118.055Z" fill="#263238"/>
</svg>
