<svg width="12" height="12" viewBox="0 0 12 12" fill="none" xmlns="http://www.w3.org/2000/svg">
<path d="M6.00002 0C7.47335 0 8.66669 1.19333 8.66669 2.66667C8.66669 4.14 7.47335 5.33333 6.00002 5.33333C4.52669 5.33333 3.33335 4.14 3.33335 2.66667C3.33335 1.19333 4.52669 0 6.00002 0ZM8.66669 7.02667C8.66669 7.73333 8.48002 9.38 7.20669 11.22L6.66669 8L7.29335 6.74667C6.88002 6.7 6.44669 6.66667 6.00002 6.66667C5.55335 6.66667 5.12002 6.7 4.70669 6.74667L5.33335 8L4.79335 11.22C3.52002 9.38 3.33335 7.73333 3.33335 7.02667C1.74002 7.49333 0.666687 8.33333 0.666687 9.33333V12H11.3334V9.33333C11.3334 8.33333 10.2667 7.49333 8.66669 7.02667Z" fill="#263238"/>
</svg>
