<svg width="16" height="16" viewBox="0 0 16 16" fill="none" xmlns="http://www.w3.org/2000/svg">
<path d="M2.58614 11.9034V3.1252H11.3643V7.9623H11.4207C11.828 7.9623 12.2227 7.99989 12.6112 8.08134V3.11267C12.6112 2.42971 12.0598 1.87207 11.3769 1.87207H2.57361C1.89065 1.87207 1.33301 2.42971 1.33301 3.11267V11.9159C1.33301 12.5989 1.89065 13.1503 2.57361 13.1503H6.61496C6.33301 12.7618 6.10744 12.342 5.93201 11.9034H2.58614Z" fill="#388E3B"/>
<path d="M10.0548 4.37834H3.78915V5.63147H10.0548V4.37834Z" fill="#388E3B"/>
<path d="M3.78915 9.39087V10.644H6.20769C6.53351 10.1803 6.93451 9.75428 7.3919 9.39087H3.78915Z" fill="#388E3B"/>
<path d="M10.0548 8.13773V6.8846H3.78915V8.13773H10.0548Z" fill="#388E3B"/>
<path d="M10.9069 9.11518C9.21521 9.11518 7.71145 10.1803 7.14754 11.6214C7.71145 13.0625 9.21521 14.1277 10.9069 14.1277C12.5987 14.1277 14.1024 13.0625 14.6663 11.6214C14.1024 10.1803 12.5987 9.11518 10.9069 9.11518ZM10.9069 13.1879C10.0297 13.1879 9.34053 12.4986 9.34053 11.6214C9.34053 10.7443 10.0297 10.055 10.9069 10.055C11.7841 10.055 12.4734 10.7443 12.4734 11.6214C12.4734 12.4986 11.7841 13.1879 10.9069 13.1879Z" fill="#388E3B"/>
<path d="M10.9069 12.248C11.253 12.248 11.5335 11.9675 11.5335 11.6214C11.5335 11.2754 11.253 10.9949 10.9069 10.9949C10.5609 10.9949 10.2804 11.2754 10.2804 11.6214C10.2804 11.9675 10.5609 12.248 10.9069 12.248Z" fill="#388E3B"/>
</svg>
