<svg width="12" height="12" viewBox="0 0 12 12" fill="none" xmlns="http://www.w3.org/2000/svg">
<path d="M9.76663 2.23317C8.79996 1.2665 7.47329 0.666504 5.99996 0.666504C4.58547 0.666504 3.22892 1.22841 2.22872 2.2286C1.22853 3.2288 0.666626 4.58535 0.666626 5.99984C0.666626 7.41432 1.22853 8.77088 2.22872 9.77107C3.22892 10.7713 4.58547 11.3332 5.99996 11.3332C8.48663 11.3332 10.56 9.63317 11.1533 7.33317H9.76663C9.21996 8.8865 7.73996 9.99984 5.99996 9.99984C4.93909 9.99984 3.92168 9.57841 3.17153 8.82826C2.42139 8.07812 1.99996 7.0607 1.99996 5.99984C1.99996 4.93897 2.42139 3.92156 3.17153 3.17141C3.92168 2.42126 4.93909 1.99984 5.99996 1.99984C7.10663 1.99984 8.09329 2.45984 8.81329 3.1865L6.66663 5.33317H11.3333V0.666504L9.76663 2.23317Z" fill="#008345"/>
</svg>
