<svg width="124" height="112" viewBox="0 0 124 112" fill="none" xmlns="http://www.w3.org/2000/svg">
<path d="M6.41379 104.057L5.39746 104.397L5.58651 104.963L6.60284 104.623L6.41379 104.057Z" fill="#FFCDD2"/>
<path d="M6.05704 106.078L6.1653 104.96C6.12752 104.847 5.86522 104.767 5.74025 104.546C5.63489 104.36 5.78021 104.211 5.67558 104.119C5.61455 104.067 5.12846 104.207 5.07324 104.208C5.07324 104.208 5.72354 106.586 6.0614 106.712C6.0614 106.712 6.31207 106.725 6.05704 106.078Z" fill="#263238"/>
<path d="M6.03021 106.771L6.11668 106.691C6.1719 106.647 6.22566 106.509 6.05637 106.078L5.71415 106.142H5.70979C5.39953 105.402 5.07257 104.207 5.07257 104.207L4.80664 104.302C4.80664 104.302 5.16993 105.387 5.39445 106.092C5.53323 106.52 5.70906 106.706 5.82459 106.786C5.85568 106.806 5.89269 106.816 5.92987 106.813C5.96705 106.811 6.00232 106.796 6.03021 106.771Z" fill="#263238"/>
<path d="M1.15669 66.7241C-0.143174 65.6626 -0.490483 63.5954 0.860242 62.213C0.903837 62.1686 0.947432 62.125 0.993207 62.0813C3.17951 60.0025 6.04952 60.2797 7.8718 61.1609C8.97801 61.7025 9.92822 62.5173 10.6328 63.5285C10.6328 63.5285 10.5762 60.3918 11.8927 58.2214C13.2093 56.0509 18.6006 53.8565 22.5103 55.0934C26.4201 56.3303 28.1516 59.8774 28.1516 59.8774C36.9273 54.5018 39.8336 62.6299 39.8336 62.6299C42.9216 61.5836 45.2641 62.2661 46.0096 63.6915C46.6388 64.8906 46.5284 66.2032 45.8025 66.9708C30.8617 67.7573 15.2903 68.6625 1.15669 66.7241Z" fill="#EEEEEE"/>
<path d="M92.6782 61.8466C91.3522 58.2304 94.6923 56.9717 96.8198 57.9961C96.8198 57.9961 97.0705 54.7023 98.8455 54.11C101.633 53.1787 102.923 54.7547 103.046 55.8562C103.046 55.8562 105.861 50.8511 112.367 51.3167C118.872 51.7824 118.009 58.2544 118.009 58.2544C118.009 58.2544 119.57 56.4718 121.809 57.334C123.611 58.0281 124.328 60.1382 123.861 61.8452C115.285 62.97 102.85 63.0719 92.6782 61.8466Z" fill="#EEEEEE"/>
<path d="M101.835 29.7559C105.486 19.7957 96.2893 16.3301 90.4366 19.1496C90.4366 19.1496 89.7442 10.0764 84.8572 8.4451C77.1786 5.88175 73.6271 10.2212 73.2877 13.2538C73.2877 13.2538 65.5358 -0.53135 47.6196 0.750688C29.7034 2.03273 32.0787 19.8576 32.0787 19.8576C32.0787 19.8576 27.7802 14.9484 21.6122 17.324C16.6496 19.2347 14.674 25.0468 15.963 29.7537C39.577 32.8497 73.8232 33.1305 101.835 29.7559Z" fill="#EEEEEE"/>
<path d="M18.1504 52.2899C19.3652 56.2582 19.9523 62.9456 20.4653 69.9525L32.9386 68.4892C33.6652 67.3367 32.6342 54.0827 30.8787 50.0889L18.1504 52.2899Z" fill="#81C784"/>
<path d="M29.6727 53.4906L20.3096 54.7217L20.3527 55.0506L29.7158 53.8196L29.6727 53.4906Z" fill="white"/>
<path d="M29.91 55.3002L20.5469 56.5312L20.59 56.8602L29.9531 55.6291L29.91 55.3002Z" fill="white"/>
<path d="M30.0658 57.0104L20.7168 58.2397L20.7599 58.5682L30.1089 57.3388L30.0658 57.0104Z" fill="white"/>
<path d="M30.3846 58.9193L21.0215 60.1504L21.0646 60.4794L30.4277 59.2483L30.3846 58.9193Z" fill="white"/>
<path d="M30.6229 60.7289L21.2598 61.96L21.3029 62.2889L30.666 61.0579L30.6229 60.7289Z" fill="white"/>
<path d="M27.4092 62.9916L21.4961 63.769L21.5392 64.098L27.4523 63.3205L27.4092 62.9916Z" fill="white"/>
<path d="M96.9671 72.7197H50.3711L57.9261 39.354H104.521L96.9671 72.7197Z" fill="#B0BEC5"/>
<path d="M94.9098 51.0522L73.3302 50.126C73.9281 56.8629 72.5491 67.7071 70.9375 79.0344L91.8392 81.0455C93.4363 79.4681 96.3811 58.0219 94.9098 51.0522Z" fill="#CFD8DC"/>
<path d="M75.4174 55.8542L75.3945 56.4409L92.1005 57.0953L92.1234 56.5086L75.4174 55.8542Z" fill="white"/>
<path d="M75.2905 59.0822L75.2676 59.6689L91.9736 60.3233L91.9965 59.7366L75.2905 59.0822Z" fill="white"/>
<path d="M75.1645 62.3107L75.1416 62.8975L91.8476 63.5518L91.8705 62.9651L75.1645 62.3107Z" fill="white"/>
<path d="M75.0376 65.5393L75.0146 66.126L91.7206 66.7804L91.7435 66.1936L75.0376 65.5393Z" fill="white"/>
<path d="M74.9126 68.7673L74.8896 69.354L91.5956 70.0084L91.6186 69.4217L74.9126 68.7673Z" fill="white"/>
<path d="M80.9399 72.237L80.917 72.8237L91.4684 73.237L91.4913 72.6503L80.9399 72.237Z" fill="white"/>
<path opacity="0.57" d="M81.9762 49.8154L60.3966 48.8892C60.9945 55.626 59.6155 66.4703 58.0039 77.7976L78.9056 79.8087C80.5027 78.2312 83.4475 56.7851 81.9762 49.8154Z" fill="#B0BEC5"/>
<path d="M91.0591 25.1678L49.7178 27.2378L51.1573 56.0676L92.4986 53.9977L91.0591 25.1678Z" fill="#C8E6C9"/>
<path d="M49.5078 27.4145L68.7297 42.8775C69.9867 43.8961 71.9455 43.8074 73.1044 42.673L90.8041 25.4834L49.5078 27.4145Z" fill="#A5D6A7"/>
<path d="M35.0238 49.2788C35.7503 56.9914 34.303 69.4407 32.6006 82.4452L55.956 84.4825C57.7216 82.6504 60.8241 58.0333 59.1232 50.0632L35.0238 49.2788Z" fill="#4CAF4F"/>
<path d="M37.7483 53.935L37.6914 54.5845L56.1783 56.2074L56.2351 55.5579L37.7483 53.935Z" fill="#4CAF4F"/>
<path d="M37.0481 64.104L36.9912 64.7534L55.4781 66.3763L55.5349 65.7269L37.0481 64.104Z" fill="white"/>
<path d="M36.4983 68.2256L36.4414 68.875L54.9283 70.4979L54.9851 69.8485L36.4983 68.2256Z" fill="white"/>
<path d="M42.9963 72.396L42.9395 73.0454L54.6152 74.0704L54.6721 73.421L42.9963 72.396Z" fill="#4CAF4F"/>
<path d="M50.3798 53.3203C51.5801 60.8066 50.9611 73.0558 50.127 85.8638L73.0646 86.3623C74.6725 84.4603 76.1351 60.2216 73.9648 52.5469L50.3798 53.3203Z" fill="#90A4AE"/>
<path d="M53.3354 57.7214L53.3213 58.3594L71.4786 58.7625L71.4927 58.1245L53.3354 57.7214Z" fill="white"/>
<path d="M53.1045 61.065L53.0918 61.7031L71.2536 62.0669L71.2663 61.4288L53.1045 61.065Z" fill="white"/>
<path d="M53.1792 64.739L53.165 65.377L71.3223 65.78L71.3365 65.1421L53.1792 64.739Z" fill="white"/>
<path d="M52.9502 68.067L52.9375 68.7051L71.0993 69.0688L71.112 68.4307L52.9502 68.067Z" fill="white"/>
<path d="M53.0239 71.7566L53.0098 72.3945L71.1671 72.7976L71.1812 72.1597L53.0239 71.7566Z" fill="white"/>
<path d="M59.6352 75.4138L59.6211 76.0518L71.0889 76.3063L71.103 75.6684L59.6352 75.4138Z" fill="white"/>
<path d="M26.6058 38.6465L25.2832 61.7573L58.4229 63.6592L59.7456 40.5484L26.6058 38.6465Z" fill="#B0BEC5"/>
<path d="M26.6035 38.645L40.6688 52.5961C41.5872 53.5165 43.1595 53.6067 44.1789 52.7976L59.7431 40.5455L26.6035 38.645Z" fill="#CFD8DC"/>
<path d="M97.037 72.7192H48.2314V109.374H97.037V72.7192Z" fill="#CFD8DC"/>
<path d="M97.037 72.7192H48.2314V74.7383H97.037V72.7192Z" fill="#B0BEC5"/>
<path d="M72.6343 72.7192H28.2871V109.374H72.6343V72.7192Z" fill="#ECEFF1"/>
<path d="M72.6343 72.7192H28.2871V74.7383H72.6343V72.7192Z" fill="#CFD8DC"/>
<path d="M14.4258 60.8681C15.661 64.8765 16.2742 71.6366 16.8112 78.7162L29.4131 77.205C30.1462 76.0408 29.068 62.6464 27.2835 58.6104L14.4258 60.8681Z" fill="#90A4AE"/>
<path d="M26.3677 61.8403L16.3896 63.0317L16.4314 63.3821L26.4094 62.1907L26.3677 61.8403Z" fill="white"/>
<path d="M26.5962 63.768L16.6182 64.9595L16.6599 65.3099L26.6379 64.1184L26.5962 63.768Z" fill="white"/>
<path d="M26.8266 65.6957L16.8486 66.8872L16.8904 67.2376L26.8684 66.0461L26.8266 65.6957Z" fill="white"/>
<path d="M27.0561 67.6244L17.0781 68.8159L17.1199 69.1663L27.0979 67.9749L27.0561 67.6244Z" fill="white"/>
<path d="M27.2856 69.5536L17.3076 70.7451L17.3493 71.0955L27.3273 69.9041L27.2856 69.5536Z" fill="white"/>
<path d="M27.515 71.4809L21.2129 72.2334L21.2546 72.5838L27.5567 71.8313L27.515 71.4809Z" fill="white"/>
<path d="M69.9372 16.3336C69.9372 16.3336 70.7008 20.4845 70.9188 21.3584C69.5732 20.9582 66.7373 19.356 66.7373 19.356V22.815C66.7373 22.815 71.7188 23.5798 72.4461 23.1061C73.1734 22.6324 70.3731 15.6045 70.3731 15.6045L69.9372 16.3336Z" fill="#977C6D"/>
<path d="M69.9336 20.9826L69.7185 23.2528L67.3549 22.9246L66.9189 19.3564L69.9336 20.9826Z" fill="#C8E6C9"/>
<path d="M63.3955 52.5997L62.4589 52.0242C62.3441 52.0097 62.161 52.2061 61.9126 52.2214C61.704 52.2345 61.635 52.0424 61.51 52.0955C61.4374 52.1261 61.3516 52.6157 61.3291 52.6645C61.3291 52.6645 63.6992 53.112 63.9543 52.8675C63.9543 52.8675 64.0712 52.6529 63.3955 52.5997Z" fill="#263238"/>
<path d="M63.994 52.9198L63.9606 52.8092C63.9453 52.7415 63.8472 52.6345 63.396 52.5996L63.3059 52.9292C62.5219 52.8856 61.3303 52.6607 61.3303 52.6607L61.2998 52.9358C61.2998 52.9358 62.4086 53.0813 63.1257 53.1853C63.5617 53.2472 63.8007 53.1722 63.925 53.1046C63.9545 53.085 63.977 53.0566 63.9894 53.0234C64.0018 52.9902 64.0034 52.9539 63.994 52.9198Z" fill="#E8F5E9"/>
<path d="M68.0046 52.4071L67.071 51.8251C66.9555 51.8098 66.7716 52.0062 66.5231 52.0201C66.3146 52.0324 66.247 51.8396 66.1213 51.892C66.0487 51.9226 65.9608 52.4115 65.9375 52.4603C65.9375 52.4603 68.3062 52.9187 68.5627 52.6785C68.5627 52.6778 68.6825 52.4639 68.0046 52.4071Z" fill="#263238"/>
<path d="M68.6021 52.7308L68.5694 52.6194C68.5542 52.551 68.4568 52.4441 68.0056 52.4062L67.9133 52.7359C67.1286 52.6886 65.9385 52.4579 65.9385 52.4579L65.9072 52.7329C65.9072 52.7329 67.0145 52.8865 67.7317 52.9912C68.1676 53.0553 68.4067 52.9811 68.5309 52.9141C68.5606 52.895 68.5835 52.867 68.5963 52.834C68.6091 52.8011 68.6111 52.7649 68.6021 52.7308Z" fill="#E8F5E9"/>
<path d="M63.0205 29.4028C63.0205 29.4028 64.8958 40.7207 65.496 42.4568C65.2962 43.1909 66.0664 51.3917 66.0664 51.3917L67.1221 51.3823C67.1221 51.3823 67.8036 43.5394 68.0507 42.2952C68.2977 41.051 67.8407 30.1908 67.8407 30.1908L63.0205 29.4028Z" fill="#263238"/>
<path d="M61.3984 29.5674C61.3984 29.5674 61.5634 41.2549 61.83 42.4569C61.4965 43.5919 61.4297 51.4712 61.4297 51.4712H62.4302C62.4302 51.4712 64.4973 43.258 64.6303 42.4569C64.7633 41.6558 66.4402 30.1604 66.0973 30.1036L61.3984 29.5674Z" fill="#263238"/>
<path d="M61.4949 22.0813C61.5247 21.8252 61.3343 20.044 62.119 19.5347C62.3479 19.3892 64.4652 18.7285 65.1707 18.7896C65.954 18.8573 66.7067 19.0807 67.3185 19.6075C67.9303 20.1342 68.1068 21.6236 68.1177 22.2268L67.8961 30.3549L61.2842 30.336C61.3212 29.1907 61.4201 22.715 61.4949 22.0813Z" fill="#C8E6C9"/>
<path d="M65.0152 19.9361C64.8993 19.9256 64.7867 19.8923 64.6837 19.8381C64.5808 19.7838 64.4895 19.7097 64.4153 19.6201C64.341 19.5304 64.2851 19.427 64.2509 19.3156C64.2167 19.2043 64.2048 19.0873 64.2159 18.9713L64.3467 17.623L66.1036 17.794L65.9728 19.1423C65.95 19.3743 65.8366 19.5879 65.6572 19.7366C65.4778 19.8853 65.2471 19.957 65.0152 19.9361Z" fill="#977C6D"/>
<path d="M66.0162 18.7305L66.1071 17.794L64.3502 17.623L64.2383 18.7814L66.0162 18.7305Z" fill="#977C6D"/>
<path d="M59.0703 31.1157L59.8245 31.2489C59.8245 31.2489 61.1026 26.0596 61.2653 25.3626C61.7456 24.9071 64.0264 20.8907 64.0264 20.8907C64.2211 20.4345 63.8883 19.8553 63.2889 19.5905C62.6894 19.3256 61.9563 19.4559 61.763 19.9121C61.763 19.9121 59.4489 24.0791 59.3021 24.7324C59.1553 25.3858 59.0703 31.1157 59.0703 31.1157Z" fill="#977C6D"/>
<path d="M62.0775 24.4232L64.0241 20.8907C64.2188 20.4345 63.886 19.8553 63.2866 19.5905C62.6871 19.3256 61.954 19.4559 61.7607 19.9121C61.7607 19.9121 60.7101 21.7223 59.998 23.1179L62.0775 24.4232Z" fill="#C8E6C9"/>
<path d="M58.3108 32.6571C58.3421 32.6702 58.3772 32.6709 58.4089 32.659C58.4406 32.6471 58.4666 32.6235 58.4816 32.593L58.7533 32.0459L58.4874 32.9794C58.4777 33.0136 58.4817 33.0504 58.4987 33.0816C58.5157 33.1129 58.5442 33.1363 58.5782 33.1467C58.6113 33.1569 58.647 33.1541 58.6781 33.1388C58.7091 33.1235 58.7332 33.097 58.7453 33.0645L59.0164 32.3369L58.8819 33.3046C58.8771 33.3395 58.8858 33.3748 58.9064 33.4033C58.927 33.4318 58.9578 33.4512 58.9924 33.4574H59.0156C59.0501 33.4639 59.0857 33.4567 59.1149 33.4372C59.1441 33.4178 59.1645 33.3877 59.1718 33.3534L59.3993 32.326L59.3179 33.3257C59.3152 33.361 59.3264 33.396 59.3491 33.4231C59.3718 33.4503 59.4041 33.4676 59.4392 33.4713C59.4731 33.4743 59.5069 33.4645 59.5338 33.4437C59.5607 33.4229 59.5788 33.3928 59.5846 33.3592L59.7894 32.195L59.8287 31.6537L60.5393 32.1776C60.5689 32.1993 60.6053 32.2097 60.6418 32.2067C60.6784 32.2038 60.7127 32.1878 60.7384 32.1616C60.7651 32.1341 60.7804 32.0976 60.7814 32.0592C60.7823 32.0209 60.7688 31.9837 60.7435 31.9549L59.8781 30.969C59.7977 30.8764 59.6956 30.8051 59.5809 30.7617C59.4019 30.6989 59.2081 30.6921 59.0251 30.742C58.8936 30.7718 58.5731 31.5358 58.5731 31.5358L58.2324 32.4817C58.2256 32.4984 58.2224 32.5162 58.2227 32.5341C58.223 32.5521 58.2269 32.5698 58.2343 32.5861C58.2416 32.6025 58.2522 32.6173 58.2653 32.6294C58.2785 32.6416 58.294 32.651 58.3108 32.6571Z" fill="#977C6D"/>
<path d="M70.0908 15.6731L69.6461 14.092C69.6403 14.0731 69.6384 14.0533 69.6405 14.0336C69.6425 14.014 69.6486 13.995 69.6582 13.9778C69.6679 13.9605 69.6809 13.9455 69.6966 13.9335C69.7123 13.9215 69.7302 13.9128 69.7493 13.9079C69.7681 13.9021 69.7879 13.9001 69.8075 13.9021C69.827 13.9042 69.846 13.9102 69.8632 13.9198C69.8804 13.9294 69.8954 13.9424 69.9075 13.958C69.9195 13.9736 69.9282 13.9914 69.9331 14.0105L70.3778 15.5923L70.0908 15.6731Z" fill="#977C6D"/>
<path d="M70.4204 16.2013C70.1806 16.4923 70.0034 16.5047 69.7214 16.2704C69.4395 16.0361 69.1038 15.5603 69.3436 15.2707C69.4556 15.132 69.618 15.0436 69.7951 15.0248C69.9722 15.0059 70.1496 15.0583 70.2882 15.1703C70.5694 15.4046 70.6595 15.9117 70.4204 16.2013Z" fill="#977C6D"/>
<path d="M66.4998 14.7627C66.4998 14.7627 67.2547 17.4548 66.9568 18.2035C66.7926 18.6168 64.7044 18.0362 64.3316 17.7073C64.1275 17.529 63.9473 16.6159 63.9473 16.6159L64.7465 15.0501L66.4998 14.7627Z" fill="#977C6D"/>
<path d="M64.1288 17.429C64.264 17.5061 65.5093 15.5518 65.5304 15.3459L65.0944 14.4946C65.0944 14.4946 64.2225 14.3854 63.8723 14.2988C63.5221 14.2123 63.3259 14.4487 63.27 14.9304C63.214 15.4121 63.8658 17.2784 64.1288 17.429Z" fill="#263238"/>
<path d="M64.3883 15.4326C64.3883 15.4326 66.172 15.3372 66.555 15.0782C66.9379 14.8192 67.1362 13.9257 67.0846 13.7176C66.8819 12.926 65.0698 13.7452 64.8475 13.7816C64.6251 13.818 63.9262 14.0967 63.7874 14.2502C63.6486 14.4037 63.5622 14.8046 63.7097 15.108C63.8571 15.4115 64.3883 15.4326 64.3883 15.4326Z" fill="#263238"/>
<path d="M64.4689 16.6963C64.5525 17.0041 64.745 17.2195 64.8991 17.178C65.0531 17.1365 65.1054 16.6258 65.0211 16.318C64.9368 16.0102 64.7486 16.0211 64.5946 16.0633C64.4406 16.1055 64.3846 16.3886 64.4689 16.6963Z" fill="#977C6D"/>
<path d="M11.3836 72.5559L11.7891 78.0282L15.3966 81.4618C15.3966 81.4618 14.497 83.0901 13.8431 82.9206C13.134 82.0773 10.7871 78.9348 10.7813 78.9304C10.5633 78.7703 10.8823 72.4038 10.8823 72.4038L11.3836 72.5559Z" fill="#FFCDD2"/>
<path d="M11.4863 80.1579L13.9872 83.3172C13.9872 83.3172 15.4331 82.2585 15.5443 81.4982L12.8727 78.937L11.4863 80.1579Z" fill="#4CAF4F"/>
<path d="M15.931 78.8623L15.8857 80.415L17.0783 80.4499L17.1235 78.8971L15.931 78.8623Z" fill="#FFCDD2"/>
<path d="M18.5273 110.708L17.5341 110.185C17.4156 110.178 17.2434 110.391 16.9906 110.423C16.7792 110.451 16.6963 110.259 16.5721 110.322C16.4994 110.358 16.4464 110.863 16.4268 110.914C16.4268 110.914 18.8717 111.205 19.1151 110.943C19.1144 110.943 19.2212 110.716 18.5273 110.708Z" fill="#263238"/>
<path d="M19.1593 110.994L19.1172 110.883C19.0975 110.815 18.99 110.713 18.5286 110.708L18.456 111.049V111.054C17.6567 111.062 16.4215 110.915 16.4215 110.915L16.4092 111.197C16.4092 111.197 17.5485 111.27 18.286 111.326C18.735 111.36 18.9733 111.268 19.091 111.19C19.1223 111.17 19.1459 111.139 19.1582 111.104C19.1706 111.068 19.171 111.03 19.1593 110.994Z" fill="#263238"/>
<path d="M11.3404 72.8587C11.076 72.9759 10.8863 72.7801 10.7592 72.4876C10.632 72.1951 10.8442 71.5861 11.1552 71.2674C11.4662 70.9487 11.3426 71.9121 11.4727 72.2053C11.6027 72.4985 11.6049 72.7408 11.3404 72.8587Z" fill="#FFCDD2"/>
<path d="M6.07422 104.073C6.07422 104.073 11.0455 100.561 12.3483 100.098C12.3483 100.098 12.9136 95.4526 12.4457 94.292C11.9777 93.1315 12.1819 91.0571 13.1207 90.7995C14.3646 90.4561 15.8374 90.9509 15.8374 90.9509C15.8374 90.9509 15.4523 99.2587 14.1037 101.296C13.1359 102.558 6.41063 104.8 6.41063 104.8L6.07422 104.073Z" fill="#263238"/>
<path d="M16.6496 109.761C16.6496 109.761 15.9855 103.072 16.9047 101.019C16.9047 101.019 15.8366 96.6429 14.7147 95.0749C13.614 93.5367 14.4713 91.124 14.4713 91.124L18.3644 90.2363C18.3644 90.2363 18.8643 92.7611 19.1128 94.0592C19.3613 95.3572 19.2254 100.015 18.9566 101.871C18.6877 103.727 17.4365 109.786 17.4365 109.786L16.6496 109.761Z" fill="#263238"/>
<path d="M23.5404 74.1304L21.402 79.177L16.834 81.1561C16.834 81.1561 17.1174 82.9948 17.7902 83.061C18.7464 82.5146 22.1323 80.6359 22.1388 80.6337C22.3975 80.5609 24.1885 74.2104 24.1885 74.2104L23.5404 74.1304Z" fill="#FFCDD2"/>
<path d="M21.0315 81.451L17.517 83.382C17.517 83.382 16.5238 81.889 16.6822 81.1359L20.071 79.6538L21.0315 81.451Z" fill="#4CAF4F"/>
<path d="M18.4958 90.6676C16.1242 91.3953 13.7447 92.0377 12.5342 91.2825C12.5342 91.2825 13.3712 80.765 13.6284 80.7722C14.8498 80.2731 16.0523 79.7398 18.1376 80.8326C18.3948 80.8399 18.4958 90.6676 18.4958 90.6676Z" fill="#4CAF4F"/>
<path d="M24.1166 74.0684C23.8717 74.2074 23.6007 74.1906 23.5106 74.0313C23.4205 73.8719 23.5462 73.6311 23.7903 73.4929C24.0345 73.3546 24.3062 73.3706 24.3963 73.53C24.4864 73.6893 24.3607 73.9302 24.1166 74.0684Z" fill="#FFCDD2"/>
<path d="M23.5605 73.8541C23.7059 73.8744 24.0466 73.9072 24.1266 73.8184C24.2065 73.7296 24.1222 73.6074 24.1992 73.4626C24.2523 73.3622 24.3867 73.443 24.4651 73.5019C24.4826 73.5152 24.4955 73.5337 24.5021 73.5546C24.5088 73.5756 24.5088 73.5981 24.5022 73.619C24.5022 73.619 24.346 74.2011 24.2726 74.2739C24.1992 74.3466 24.0742 74.4769 23.8366 74.3205C23.5991 74.164 23.5605 73.8541 23.5605 73.8541Z" fill="#FFCDD2"/>
<path d="M24.4871 73.5174C24.3709 73.3457 24.1471 72.947 24.1093 72.9128C24.0715 72.8786 24.0432 72.8538 23.9516 72.8895C23.8677 72.9295 23.7868 72.9757 23.7097 73.0277C23.5883 73.1005 23.3914 73.2111 23.443 73.2569C23.4946 73.3028 23.6116 73.2809 23.7525 73.2446C23.8263 73.2158 23.8971 73.18 23.964 73.1376C23.964 73.1376 24.0897 73.5058 24.1187 73.6011C24.1478 73.6964 24.2328 73.7823 24.3164 73.7655C24.3999 73.7488 24.5547 73.6178 24.4871 73.5174Z" fill="#FFCDD2"/>
<path d="M22.5277 73.4811L22.0518 72.9143L22.7907 72.8735L22.5277 73.4811Z" fill="#4CAF4F"/>
<path d="M23.8308 74.0464L22.5273 73.4811L22.5513 73.1311L22.7904 72.8735L24.0939 73.4389L23.8308 74.0464Z" fill="#263238"/>
<path d="M23.8308 74.0467L22.5273 73.4813L22.5513 73.1313L23.9624 73.7425L23.8308 74.0467Z" fill="#263238"/>
<path d="M24.1606 73.4675L23.8779 73.3452L23.6055 73.5882L23.6149 73.9535L23.8976 74.0757L24.17 73.8327L24.1606 73.4675Z" fill="#4CAF4F"/>
<path d="M23.989 73.7434C23.9806 73.7628 23.9667 73.7793 23.9489 73.7908C23.9311 73.8023 23.9104 73.8082 23.8892 73.8078C23.8681 73.8075 23.8475 73.8009 23.8301 73.7888C23.8128 73.7768 23.7994 73.7598 23.7916 73.7402C23.7839 73.7205 23.7821 73.699 23.7866 73.6783C23.7911 73.6577 23.8017 73.6388 23.8169 73.6241C23.8321 73.6095 23.8514 73.5996 23.8722 73.5959C23.893 73.5922 23.9144 73.5947 23.9338 73.6032C23.9597 73.6145 23.98 73.6356 23.9904 73.6619C24.0007 73.6882 24.0002 73.7175 23.989 73.7434Z" fill="#263238"/>
<path d="M22.269 72.9023L22.0518 72.9147L22.192 73.0811L22.269 72.9023Z" fill="#263238"/>
<path d="M23.8449 74.1562C23.8472 74.1824 23.8442 74.2088 23.8361 74.2338C23.828 74.2588 23.8149 74.2819 23.7977 74.3017C23.7886 74.3139 23.7771 74.3241 23.7639 74.3317C23.7508 74.3393 23.7363 74.3441 23.7212 74.346C23.7061 74.3478 23.6909 74.3466 23.6763 74.3423C23.6617 74.3381 23.6481 74.331 23.6364 74.3214C23.5761 74.2741 23.4395 74.0885 23.3799 74.0412C23.2826 73.9894 23.179 73.9503 23.0718 73.9248C23.0188 73.9139 22.9018 73.7327 23.0965 73.7204C23.2579 73.7176 23.418 73.7507 23.5652 73.8171C23.6541 73.8468 23.7338 73.8992 23.7962 73.9692C23.8174 73.995 23.8327 74.0251 23.8411 74.0573C23.8495 74.0896 23.8508 74.1234 23.8449 74.1562Z" fill="#FFCDD2"/>
<path d="M18.0053 77.251C18.2087 78.453 17.9515 79.4018 17.2271 79.3807C16.5027 79.3596 15.694 78.7382 15.3707 77.5333C15.08 76.4492 16.0173 75.5193 16.7417 75.5404C17.4662 75.5615 17.82 76.145 18.0053 77.251Z" fill="#FFCDD2"/>
<path d="M11.6836 85.4343C11.6836 85.4343 12.9413 83.1191 13.0924 82.0473C13.2436 80.9756 13.2327 77.3499 13.7464 76.1697C14.2601 74.9896 15.2235 74.6585 16.0547 74.8026C16.886 74.9466 17.8298 75.3323 17.8094 76.0489C17.7891 76.7656 16.6905 77.5704 16.6905 77.5704C16.6905 77.5704 16.8663 79.7277 16.8242 81.1611C16.7864 82.4802 15.5062 85.4263 14.7767 85.8832C14.0472 86.3402 12.0135 86.2812 11.6836 85.4343Z" fill="#263238"/>
<path d="M30.1245 7.43001L27.7666 20.6724L46.7551 24.0629L49.113 10.8205L30.1245 7.43001Z" fill="#CFD8DC"/>
<path d="M30.2441 7.48291L37.3959 16.5052C37.6334 16.7953 37.9665 16.9909 38.3352 17.0568C38.704 17.1227 39.0841 17.0546 39.4071 16.8646L49.2328 10.8735L30.2441 7.48291Z" fill="#B0BEC5"/>
<path d="M50.6102 29.5703L34.2861 30.4985L34.9652 42.4745L51.2893 41.5463L50.6102 29.5703Z" fill="#FBC02D"/>
<path d="M46.3975 35.4954L40.9859 32.4321C40.9275 32.3991 40.8614 32.3825 40.7944 32.3839C40.7274 32.3853 40.662 32.4047 40.6051 32.4401C40.5481 32.4755 40.5018 32.5256 40.4709 32.5852C40.4399 32.6447 40.4256 32.7115 40.4293 32.7785L40.8107 39.5001C40.8147 39.5671 40.8365 39.6318 40.874 39.6874C40.9114 39.743 40.9632 39.7875 41.0237 39.8162C41.0843 39.845 41.1514 39.8568 41.2181 39.8506C41.2849 39.8444 41.3487 39.8204 41.4029 39.7809L46.4331 36.1233C46.4836 36.0865 46.5241 36.0376 46.5509 35.981C46.5777 35.9245 46.5899 35.8621 46.5863 35.7996C46.5828 35.7371 46.5636 35.6765 46.5306 35.6234C46.4976 35.5702 46.4518 35.5262 46.3975 35.4954Z" fill="white"/>
<path d="M107.521 110.073C107.449 110.073 107.178 110.176 107.005 110.158C106.806 110.138 106.641 109.929 106.555 109.946C106.469 109.963 105.623 110.569 105.623 110.569L104.838 110.762C104.791 110.774 104.75 110.801 104.72 110.839C104.691 110.878 104.676 110.925 104.677 110.973V111.119L104.681 111.331L106.062 111.301L106.854 111.124L106.857 111.283L107.759 111.263L107.75 110.892C107.749 110.614 107.598 110.07 107.521 110.073Z" fill="#263238"/>
<path d="M120.112 106.071C120.08 106.138 120.046 106.424 119.951 106.571C119.842 106.738 119.58 106.789 119.555 106.873C119.531 106.957 119.623 107.812 119.623 107.812L119.197 108.634C119.186 108.681 119.191 108.73 119.212 108.774C119.232 108.818 119.267 108.853 119.311 108.875L119.542 108.987C119.664 108.934 119.78 108.865 119.884 108.781C120.076 108.631 120.534 107.933 120.534 107.933L120.74 107.147L120.886 107.22L121.282 106.409L120.948 106.245C120.695 106.121 120.143 106.004 120.112 106.071Z" fill="#263238"/>
<path d="M114.168 89.1938C114.168 89.1938 114.434 97.3859 114.352 98.8571C115.018 99.7004 119.543 104.915 119.914 105.849L119.215 106.714C119.215 106.714 111.314 99.7237 110.936 99.0332C110.558 98.3427 109.098 91.5134 109.098 91.5134C111.989 90.4897 112.778 89.9513 114.168 89.1938Z" fill="#263238"/>
<path d="M106.341 109.615C106.341 109.615 106.696 99.7368 106.771 98.0691C106.846 96.4015 108.46 89.6544 108.46 89.6544L114.187 88.563C114.187 88.563 114.269 91.6007 113.376 93.3244C112.297 95.4025 112.082 95.5356 111.576 96.2654C111.124 96.9202 109.905 98.3544 109.653 99.6066C109.828 101.457 107.65 109.519 107.65 109.519L106.341 109.615Z" fill="#263238"/>
<path d="M110.981 81.0512C111.391 81.0418 111.902 80.9333 111.892 80.523L111.888 78.6465L110.403 78.6814V80.5572C110.416 80.9683 110.573 81.0607 110.981 81.0512Z" fill="#FFCDD2"/>
<path d="M111.888 78.6465L110.403 78.6814L110.406 79.8958L111.891 79.8921L111.888 78.6465Z" fill="#FFCDD2"/>
<path d="M109.52 76.0825C109.52 76.0825 108.961 78.7521 109.302 79.4608C109.488 79.8515 111.481 79.1501 111.824 78.8059C112.01 78.619 112.127 77.7145 112.127 77.7145L111.245 76.244L109.52 76.0825Z" fill="#FFCDD2"/>
<path d="M112.001 78.5222C111.875 78.6058 110.535 76.7861 110.502 76.5875L110.865 75.7303C110.865 75.7303 111.706 75.5674 112.042 75.4597C112.377 75.352 112.583 75.5703 112.669 76.0352C112.754 76.5001 112.244 78.3577 112.001 78.5222Z" fill="#263238"/>
<path d="M111.618 76.5953C111.618 76.5953 109.875 76.6193 109.487 76.3923C109.1 76.1653 108.844 75.3097 108.883 75.1037C109.028 74.3201 110.845 74.999 111.062 75.0193C111.28 75.0397 111.979 75.266 112.124 75.4064C112.269 75.5469 112.38 75.9303 112.256 76.2352C112.133 76.54 111.618 76.5953 111.618 76.5953Z" fill="#263238"/>
<path d="M111.623 77.8311C111.561 78.1359 111.387 78.3586 111.235 78.3273C111.084 78.296 110.999 77.8041 111.06 77.4985C111.122 77.1929 111.306 77.1922 111.459 77.2228C111.611 77.2533 111.684 77.5262 111.623 77.8311Z" fill="#FFCDD2"/>
<path d="M101.753 78.8779L101.02 79.3408L101.62 80.2942L102.353 79.8313L101.753 78.8779Z" fill="#FFCDD2"/>
<path d="M111.88 81.2377C112.204 81.8416 112.145 82.7912 111.685 83.0313C111.685 83.0313 107.37 85.1886 105.952 85.1813C104.534 85.1741 101.302 79.9833 101.302 79.9833L102.27 79.4951C102.27 79.4951 104.409 82.933 105.915 83.1251C107.708 81.8322 110.12 80.5531 110.12 80.5531C110.584 80.3129 111.558 80.6324 111.88 81.2377Z" fill="#4CAF4F"/>
<path d="M108.335 89.9672C108.335 89.9672 108.316 85.8082 108.437 84.1762C108.558 82.5442 109.262 80.4087 111.024 80.2115C112.786 80.0143 114.087 81.6427 114.259 83.7338C114.431 85.825 114.263 89.6776 114.263 89.6776L108.335 89.9672Z" fill="#4CAF4F"/>
<path d="M116.868 93.6371C116.94 93.4778 117.309 93.0376 117.309 93.0376L117.535 93.3898L117.205 93.9791L117.055 93.9507C116.912 93.9231 116.793 93.7972 116.868 93.6371Z" fill="#FFCDD2"/>
<path d="M117.987 91.9598L117.13 92.0889L117.297 93.2034L118.154 93.0743L117.987 91.9598Z" fill="#FFCDD2"/>
<path d="M111.384 81.41C111.826 80.8861 112.73 80.5929 113.121 80.9319C113.121 80.9319 116.597 83.8212 117.111 85.144C117.626 86.4668 118.081 92.4739 118.081 92.4739L117.166 92.6238C117.166 92.6238 115.925 88.1127 115.55 86.6385C113.69 85.4438 111.394 83.2981 111.394 83.2981C111.003 82.9605 110.942 81.9338 111.384 81.41Z" fill="#4CAF4F"/>
<path d="M117.323 92.987L117.804 92.8C117.846 92.784 117.892 92.7818 117.935 92.7937C117.978 92.8056 118.016 92.831 118.044 92.8662L118.382 93.3027C118.403 93.3299 118.417 93.3619 118.422 93.3959L118.503 93.8645C118.512 93.9154 118.515 94.253 118.372 94.341C118.229 94.4291 117.742 94.456 117.742 94.456C117.713 94.4451 117.373 94.4684 117.373 94.4684C117.321 94.4731 117.269 94.458 117.228 94.4261C117.186 94.3941 117.158 94.3476 117.149 94.2959L117.087 93.9321C117.082 93.9021 117.083 93.8713 117.091 93.8419L117.323 92.987Z" fill="#FFCDD2"/>
<path d="M114.262 85.7939C113.146 84.9996 112.089 84.1242 111.102 83.1745L111.174 83.0967C112.158 84.0439 113.21 84.917 114.323 85.7088L114.262 85.7939Z" fill="#43A046"/>
<path d="M101.657 78.8973L101.512 78.3262C101.439 78.0402 100.931 78.5633 100.82 78.8355C100.71 79.1076 101.223 79.7086 101.322 79.6213C101.422 79.534 101.657 78.8973 101.657 78.8973Z" fill="#FFCDD2"/>
<path d="M102.435 73.3798L101.741 75.0293L96.4947 75.5866L93.2229 71.44L93.9161 69.7905L92.3706 70.3581L89.877 76.2924L100.617 80.8181L103.11 74.8838L102.435 73.3798Z" fill="#78909C"/>
<path d="M100.053 68.0818C99.9965 67.955 99.8938 67.8545 99.7659 67.8005C99.6379 67.7465 99.4943 67.743 99.3639 67.7907L97.0752 68.6304L101.054 70.3039L100.053 68.0818Z" fill="#78909C"/>
<path d="M103.089 74.8521L96.5074 75.5506L92.3826 70.341C92.3816 70.3391 92.3801 70.3376 92.3783 70.3366C92.3765 70.3355 92.3745 70.335 92.3724 70.335C92.3703 70.335 92.3683 70.3355 92.3665 70.3366C92.3647 70.3376 92.3632 70.3391 92.3622 70.341L89.8867 76.2346C89.8854 76.2376 89.8848 76.2409 89.8848 76.2442C89.8848 76.2475 89.8854 76.2508 89.8867 76.2539C89.888 76.2569 89.8899 76.2597 89.8923 76.262C89.8946 76.2643 89.8974 76.2661 89.9005 76.2673L89.9616 76.2935L100.593 80.7741C100.599 80.7763 100.606 80.7762 100.612 80.7736C100.619 80.7711 100.624 80.7663 100.626 80.7602L103.102 74.8667C103.102 74.8648 103.102 74.8629 103.102 74.8611C103.101 74.8593 103.1 74.8576 103.099 74.8562C103.098 74.8548 103.096 74.8537 103.094 74.853C103.093 74.8523 103.091 74.852 103.089 74.8521Z" fill="#B0BEC5"/>
<path d="M103.323 71.2643L101.74 75.0297L96.4935 75.587L93.2217 71.4404L94.8042 67.6743L103.323 71.2643Z" fill="#4CAF4F"/>
<path d="M95.6382 69.305L95.5488 69.5176L101.281 71.9329L101.37 71.7203L95.6382 69.305Z" fill="white"/>
<path d="M95.2221 70.2977L95.1328 70.5103L100.865 72.9255L100.954 72.7129L95.2221 70.2977Z" fill="white"/>
<path d="M94.8042 71.2898L94.7148 71.5024L100.447 73.9177L100.536 73.7051L94.8042 71.2898Z" fill="white"/>
<path d="M96.0854 72.9974L95.9961 73.21L100.03 74.9096L100.119 74.697L96.0854 72.9974Z" fill="white"/>
<path d="M101.952 79.4237C101.952 79.4237 102.243 79.1516 101.967 78.7907C101.691 78.4298 101.903 77.7036 101.691 77.6745C101.48 77.6454 101.431 78.536 101.463 78.7419C101.496 78.9478 101.8 79.5321 101.952 79.4237Z" fill="#FFCDD2"/>
</svg>
