<svg width="124" height="124" viewBox="0 0 124 124" fill="none" xmlns="http://www.w3.org/2000/svg">
<path d="M10.1493 77.7864C6.83744 76.115 4.50314 74.3223 2.86847 72.5756C-1.57128 67.8334 -0.72779 60.1778 4.50314 56.3435C7.44554 54.1936 11.6695 52.7385 17.2797 54.6721C29.6083 58.9095 29.8633 87.1461 29.8633 87.1461L25.8813 89.1354C25.8813 89.1354 23.3835 84.4686 10.1493 77.7864Z" fill="#C8E6C9"/>
<path d="M21.4418 91.3508C21.4418 91.3508 8.56716 94.6084 2.03831 86.7627C1.5706 86.1838 1.24279 85.5043 1.0805 84.7774C0.918216 84.0504 0.925851 83.2957 1.10281 82.5722C1.27977 81.8487 1.62126 81.176 2.10058 80.6067C2.57991 80.0375 3.18408 79.587 3.86587 79.2906C18.6105 72.8476 25.8783 89.142 25.8783 89.142L21.4418 91.3508Z" fill="#ECEFF1"/>
<path d="M27.7609 88.2736L27.2052 88.4047C27.143 88.1491 20.7613 62.7571 2.60018 58.1297L3.04154 57.6381C21.5394 62.3475 27.6988 88.0114 27.7609 88.2736Z" fill="#81C784"/>
<path d="M24.0573 90.2105C23.9102 90.1154 9.14592 80.6573 0.969318 83.7379L1.01182 83.1022C9.46304 79.9167 23.7598 89.3289 24.3712 89.732L24.0573 90.2105Z" fill="#CFD8DC"/>
<path d="M76.4051 87.6247L22.0427 87.6772L5.222 101.251H76.4051V87.6247Z" fill="#B0BEC5"/>
<path d="M52.8201 87.6247L107.183 87.6772L124 101.251H52.8201V87.6247Z" fill="#B0BEC5"/>
<path d="M76.4019 101.065H5.222C5.222 102.503 6.85667 103.667 8.86077 103.667H120.345C122.356 103.667 123.984 102.503 123.984 101.065H76.4019Z" fill="#78909C"/>
<path d="M107.631 32.5541H22.4357C21.5781 32.5541 20.8828 33.2511 20.8828 34.1108V87.3002C20.8828 88.16 21.5781 88.8569 22.4357 88.8569H107.631C108.489 88.8569 109.184 88.16 109.184 87.3002V34.1108C109.184 33.2511 108.489 32.5541 107.631 32.5541Z" fill="#B0BEC5"/>
<path d="M104.63 34.7074H25.2864C24.0929 34.7074 23.1254 35.6773 23.1254 36.8737V84.2165C23.1254 85.4129 24.0929 86.3828 25.2864 86.3828H104.63C105.823 86.3828 106.791 85.4129 106.791 84.2165V36.8737C106.791 35.6773 105.823 34.7074 104.63 34.7074Z" fill="#78909C"/>
<path d="M84.8049 98.6723H83.0852C83.0076 98.6723 82.9315 98.6505 82.8657 98.6094C82.7998 98.5682 82.7467 98.5094 82.7125 98.4396L82.1959 97.3876C82.1648 97.3241 82.1504 97.2538 82.1539 97.1832C82.1575 97.1126 82.1789 97.044 82.2162 96.984C82.2535 96.924 82.3054 96.8745 82.3671 96.8402C82.4287 96.8059 82.4981 96.7879 82.5687 96.7879H84.2033C84.2769 96.7874 84.3493 96.8067 84.4131 96.8435C84.4768 96.8804 84.5297 96.9336 84.5662 96.9976L85.1612 98.0496C85.1971 98.1126 85.216 98.1839 85.2159 98.2565C85.2159 98.329 85.1969 98.4003 85.1609 98.4632C85.1248 98.5261 85.0731 98.5785 85.0106 98.6152C84.9482 98.6519 84.8772 98.6716 84.8049 98.6723Z" fill="white"/>
<path d="M88.3914 98.6723H86.7175C86.6452 98.6721 86.5742 98.6534 86.5112 98.6178C86.4482 98.5822 86.3954 98.531 86.3579 98.4691L85.7367 97.4171C85.6992 97.3539 85.679 97.2819 85.6782 97.2084C85.6775 97.1349 85.6961 97.0625 85.7324 96.9986C85.7686 96.9347 85.821 96.8815 85.8844 96.8445C85.9477 96.8075 86.0198 96.7879 86.0931 96.7879H87.6918C87.7597 96.7877 87.8265 96.8044 87.8864 96.8364C87.9463 96.8685 87.9974 96.9148 88.0351 96.9714L88.738 98.0234C88.7802 98.0862 88.8046 98.1593 88.8084 98.2349C88.8122 98.3105 88.7954 98.3858 88.7598 98.4525C88.7241 98.5193 88.671 98.575 88.6061 98.6137C88.5412 98.6524 88.467 98.6727 88.3914 98.6723Z" fill="white"/>
<path d="M40.273 91.5573H36.4348C36.3891 91.5571 36.3445 91.5433 36.3066 91.5177C36.2686 91.4921 36.2391 91.4559 36.2216 91.4135C36.2042 91.3711 36.1996 91.3246 36.2084 91.2796C36.2173 91.2347 36.2392 91.1933 36.2713 91.1608L37.0429 90.3972C37.0857 90.3552 37.1432 90.3316 37.2031 90.3316H40.9236C40.9679 90.3317 41.0113 90.3444 41.0485 90.3684C41.0858 90.3923 41.1155 90.4265 41.1341 90.4668C41.1527 90.5071 41.1593 90.5519 41.1533 90.5959C41.1473 90.6399 41.1288 90.6812 41.1001 90.7151L40.4463 91.4754C40.4252 91.501 40.3987 91.5215 40.3687 91.5357C40.3388 91.5499 40.3061 91.5572 40.273 91.5573Z" fill="white"/>
<path d="M79.207 98.6819H46.0625C45.9969 98.6804 45.9328 98.662 45.8764 98.6285C45.82 98.5949 45.7731 98.5474 45.7402 98.4905C45.7074 98.4335 45.6897 98.3691 45.6889 98.3033C45.6881 98.2376 45.7042 98.1727 45.7356 98.115L46.347 96.9941C46.3791 96.935 46.4263 96.8853 46.4837 96.8502C46.5411 96.8151 46.6067 96.7958 46.6739 96.7942H78.7493C78.8253 96.7941 78.8996 96.8168 78.9625 96.8594C79.0255 96.9021 79.0742 96.9627 79.1024 97.0335L79.5601 98.1543C79.5836 98.2124 79.5926 98.2754 79.5862 98.3378C79.5798 98.4002 79.5582 98.46 79.5233 98.5121C79.4885 98.5642 79.4414 98.6069 79.3863 98.6365C79.3311 98.6661 79.2696 98.6817 79.207 98.6819Z" fill="white"/>
<path d="M33.8652 91.5574H30.0989C30.0513 91.5567 30.005 91.5415 29.9663 91.5136C29.9276 91.4857 29.8984 91.4465 29.8827 91.4014C29.867 91.3563 29.8655 91.3074 29.8784 91.2615C29.8914 91.2155 29.9181 91.1746 29.9551 91.1444L30.8934 90.3808C30.9357 90.3487 30.9874 90.3314 31.0405 90.3317H34.6858C34.7324 90.3309 34.7781 90.3444 34.8168 90.3704C34.8556 90.3964 34.8854 90.4336 34.9025 90.477C34.9196 90.5205 34.923 90.5682 34.9123 90.6136C34.9016 90.6591 34.8773 90.7002 34.8427 90.7315L34.0221 91.4951C33.9791 91.5343 33.9233 91.5564 33.8652 91.5574Z" fill="white"/>
<path d="M53.4281 91.5574H49.4689C49.4287 91.5572 49.3893 91.5465 49.3545 91.5265C49.3196 91.5064 49.2905 91.4777 49.2701 91.443C49.2497 91.4083 49.2386 91.3689 49.2379 91.3286C49.2372 91.2884 49.247 91.2486 49.2662 91.2132L49.6912 90.4496C49.7105 90.4135 49.7392 90.3834 49.7744 90.3626C49.8096 90.3418 49.8498 90.3311 49.8907 90.3317H53.7321C53.7712 90.331 53.8098 90.3402 53.8443 90.3585C53.8789 90.3768 53.9083 90.4035 53.9298 90.4361C53.9513 90.4688 53.9642 90.5064 53.9674 90.5454C53.9706 90.5845 53.9639 90.6236 53.9479 90.6594L53.6439 91.4197C53.625 91.4611 53.5945 91.496 53.5562 91.5205C53.518 91.5449 53.4735 91.5577 53.4281 91.5574Z" fill="white"/>
<path d="M47.0333 91.5573H43.1264C43.0833 91.557 43.0411 91.5447 43.0046 91.5217C42.9681 91.4987 42.9387 91.466 42.9197 91.4272C42.9007 91.3884 42.8928 91.3451 42.897 91.3021C42.9012 91.2591 42.9172 91.2181 42.9433 91.1837L43.5351 90.4201C43.5569 90.3924 43.5847 90.3701 43.6164 90.3547C43.6482 90.3394 43.683 90.3315 43.7182 90.3316H47.5073C47.5484 90.332 47.5886 90.3432 47.6239 90.3643C47.6592 90.3853 47.6883 90.4153 47.7083 90.4513C47.7282 90.4873 47.7383 90.5279 47.7374 90.5691C47.7366 90.6102 47.7249 90.6504 47.7035 90.6856L47.2294 91.4459C47.2089 91.4796 47.1801 91.5076 47.1457 91.5271C47.1114 91.5466 47.0727 91.557 47.0333 91.5573Z" fill="white"/>
<path d="M66.4928 91.5573H62.599C62.5578 91.5578 62.517 91.5492 62.4793 91.5323C62.4417 91.5154 62.4083 91.4905 62.3812 91.4593C62.3542 91.4282 62.3342 91.3915 62.3227 91.3518C62.3112 91.3121 62.3084 91.2704 62.3146 91.2296L62.3799 90.5741C62.3865 90.504 62.419 90.4389 62.471 90.3916C62.523 90.3443 62.5909 90.3182 62.6611 90.3185H66.4535C66.5262 90.3184 66.5962 90.3462 66.6491 90.3961C66.702 90.4461 66.7338 90.5145 66.738 90.5872L66.7772 91.2427C66.7813 91.2825 66.777 91.3228 66.7646 91.3609C66.7522 91.3989 66.7319 91.434 66.7051 91.4636C66.6782 91.4933 66.6454 91.517 66.6089 91.5331C66.5723 91.5493 66.5327 91.5575 66.4928 91.5573Z" fill="white"/>
<path d="M60.1728 91.5573H56.1777C56.1412 91.5569 56.1052 91.5479 56.0727 91.5311C56.0402 91.5143 56.0121 91.4902 55.9905 91.4606C55.969 91.4311 55.9545 91.3969 55.9484 91.3607C55.9423 91.3246 55.9447 91.2876 55.9554 91.2525L56.2006 90.4922C56.2152 90.4455 56.2444 90.4048 56.2838 90.3759C56.3232 90.347 56.3708 90.3315 56.4196 90.3316H60.2971C60.3306 90.3317 60.3636 90.339 60.394 90.3531C60.4244 90.3672 60.4514 90.3877 60.4731 90.4132C60.4949 90.4388 60.5109 90.4687 60.52 90.501C60.5291 90.5333 60.5311 90.5672 60.5259 90.6004L60.4017 91.364C60.3924 91.4181 60.3644 91.4672 60.3225 91.5026C60.2806 91.5379 60.2276 91.5573 60.1728 91.5573Z" fill="white"/>
<path d="M37.5625 94.7232H33.2306C33.1849 94.7229 33.1403 94.7091 33.1024 94.6836C33.0644 94.658 33.0349 94.6217 33.0174 94.5794C33 94.537 32.9954 94.4904 33.0042 94.4455C33.0131 94.4005 33.035 94.3592 33.0672 94.3266L34.1166 93.2878C34.1606 93.2455 34.2192 93.2221 34.2801 93.2222H38.4419C38.486 93.2229 38.5289 93.2361 38.5657 93.2603C38.6025 93.2845 38.6317 93.3187 38.6499 93.3589C38.668 93.3991 38.6744 93.4436 38.6683 93.4873C38.6621 93.531 38.6437 93.5721 38.6152 93.6057L37.7292 94.6445C37.708 94.6681 37.6824 94.6871 37.6537 94.7006C37.6251 94.7141 37.5941 94.7218 37.5625 94.7232Z" fill="white"/>
<path d="M30.449 94.7232H26.1989C26.1508 94.7244 26.1036 94.7104 26.0639 94.6832C26.0243 94.6559 25.9942 94.6169 25.9779 94.5716C25.9616 94.5262 25.96 94.4769 25.9732 94.4306C25.9865 94.3843 26.014 94.3433 26.0517 94.3136L27.3333 93.2747C27.3746 93.2402 27.4267 93.2216 27.4804 93.2222H31.5769C31.6234 93.2225 31.6688 93.2367 31.7072 93.2631C31.7455 93.2895 31.7751 93.3269 31.792 93.3703C31.8089 93.4138 31.8124 93.4613 31.8021 93.5068C31.7917 93.5523 31.7679 93.5936 31.7338 93.6253L30.5961 94.6642C30.5553 94.7003 30.5033 94.7212 30.449 94.7232Z" fill="white"/>
<path d="M52.1736 94.7233H47.7143C47.6741 94.7231 47.6347 94.7124 47.5998 94.6924C47.565 94.6724 47.5359 94.6436 47.5155 94.6089C47.4951 94.5742 47.484 94.5348 47.4833 94.4945C47.4826 94.4543 47.4923 94.4145 47.5116 94.3792L48.087 93.3403C48.1075 93.3046 48.1371 93.2749 48.1726 93.2542C48.2082 93.2335 48.2486 93.2225 48.2897 93.2223H52.5823C52.6214 93.2213 52.6601 93.2304 52.6947 93.2486C52.7293 93.2669 52.7587 93.2937 52.78 93.3266C52.8013 93.3595 52.8138 93.3973 52.8164 93.4364C52.819 93.4755 52.8116 93.5146 52.7948 93.55L52.3829 94.566C52.3678 94.6102 52.3398 94.6489 52.3025 94.677C52.2652 94.705 52.2203 94.7212 52.1736 94.7233Z" fill="white"/>
<path d="M45.066 94.7232H40.6655C40.6224 94.7229 40.5802 94.7106 40.5437 94.6876C40.5072 94.6646 40.4778 94.6319 40.4588 94.5931C40.4398 94.5543 40.4319 94.511 40.4361 94.468C40.4402 94.425 40.4563 94.384 40.4824 94.3496L41.2899 93.3107C41.3117 93.283 41.3396 93.2606 41.3713 93.2453C41.403 93.23 41.4378 93.2221 41.473 93.2222H45.7231C45.7642 93.2226 45.8044 93.2338 45.8397 93.2549C45.875 93.2759 45.9042 93.3059 45.9241 93.3419C45.944 93.3779 45.9541 93.4185 45.9533 93.4597C45.9524 93.5008 45.9407 93.541 45.9193 93.5762L45.2654 94.615C45.2449 94.6494 45.2156 94.6775 45.1805 94.6965C45.1454 94.7156 45.1059 94.7248 45.066 94.7232Z" fill="white"/>
<path d="M66.6761 94.7233H62.2887C62.2475 94.7237 62.2066 94.7152 62.169 94.6983C62.1314 94.6814 62.098 94.6565 62.0709 94.6253C62.0438 94.5942 62.0239 94.5575 62.0124 94.5178C62.0009 94.4781 61.9981 94.4364 62.0043 94.3956L62.0958 93.4615C62.1031 93.3912 62.1363 93.326 62.1888 93.2787C62.2414 93.2315 62.3096 93.2055 62.3802 93.2059H66.6304C66.7033 93.205 66.7737 93.2325 66.8268 93.2826C66.8798 93.3328 66.9114 93.4016 66.9148 93.4747L66.9704 94.4054C66.9751 94.4463 66.971 94.4878 66.9582 94.527C66.9454 94.5662 66.9243 94.6021 66.8964 94.6323C66.8684 94.6625 66.8342 94.6863 66.7962 94.702C66.7582 94.7177 66.7172 94.725 66.6761 94.7233Z" fill="white"/>
<path d="M59.6539 94.7232H55.1652C55.1287 94.7233 55.0928 94.7148 55.0603 94.6984C55.0278 94.682 54.9995 94.6582 54.9779 94.6288C54.9563 94.5995 54.9418 94.5654 54.9357 94.5294C54.9296 94.4935 54.9321 94.4566 54.9428 94.4217L55.2698 93.3828C55.2849 93.3364 55.3141 93.2959 55.3534 93.2671C55.3928 93.2383 55.4401 93.2226 55.4888 93.2222H59.8239C59.8574 93.2223 59.8905 93.2296 59.9209 93.2437C59.9513 93.2578 59.9783 93.2783 60 93.3038C60.0218 93.3294 60.0377 93.3593 60.0468 93.3916C60.056 93.4239 60.058 93.4578 60.0528 93.491L59.8828 94.5298C59.8735 94.584 59.8455 94.633 59.8036 94.6684C59.7617 94.7038 59.7087 94.7232 59.6539 94.7232Z" fill="white"/>
<path d="M88.9041 91.5573H92.7423C92.788 91.5571 92.8326 91.5433 92.8706 91.5177C92.9085 91.4921 92.938 91.4559 92.9555 91.4135C92.9729 91.3711 92.9775 91.3246 92.9687 91.2796C92.9598 91.2347 92.9379 91.1933 92.9058 91.1608L92.1342 90.3972C92.0914 90.3552 92.0339 90.3316 91.974 90.3316H88.2535C88.2092 90.3317 88.1658 90.3444 88.1285 90.3684C88.0912 90.3923 88.0616 90.4265 88.043 90.4668C88.0244 90.5071 88.0178 90.5519 88.0238 90.5959C88.0298 90.6399 88.0483 90.6812 88.077 90.7151L88.7308 91.4754C88.7519 91.501 88.7784 91.5215 88.8083 91.5357C88.8383 91.5499 88.871 91.5572 88.9041 91.5573Z" fill="white"/>
<path d="M95.3284 91.5574H99.0947C99.1423 91.5568 99.1887 91.5415 99.2273 91.5136C99.266 91.4857 99.2952 91.4465 99.3109 91.4014C99.3266 91.3563 99.3281 91.3074 99.3152 91.2615C99.3022 91.2155 99.2755 91.1746 99.2385 91.1444L98.2708 90.3808C98.2285 90.3487 98.1768 90.3314 98.1237 90.3317H94.4915C94.4449 90.3309 94.3992 90.3444 94.3604 90.3704C94.3217 90.3964 94.2918 90.4336 94.2748 90.477C94.2577 90.5205 94.2543 90.5682 94.265 90.6136C94.2757 90.6591 94.2999 90.7002 94.3346 90.7315L95.1552 91.4951C95.1785 91.5164 95.2058 91.5329 95.2356 91.5436C95.2653 91.5543 95.2969 91.559 95.3284 91.5574Z" fill="white"/>
<path d="M75.7487 91.5574H79.7079C79.7481 91.5572 79.7875 91.5465 79.8224 91.5265C79.8572 91.5064 79.8863 91.4777 79.9067 91.443C79.9271 91.4083 79.9382 91.3689 79.9389 91.3286C79.9396 91.2884 79.9298 91.2486 79.9106 91.2132L79.4856 90.4496C79.4664 90.4135 79.4376 90.3834 79.4024 90.3626C79.3672 90.3418 79.327 90.3311 79.2862 90.3317H75.4447C75.4056 90.331 75.3671 90.3402 75.3325 90.3585C75.298 90.3768 75.2686 90.4035 75.2471 90.4361C75.2255 90.4688 75.2126 90.5064 75.2094 90.5454C75.2063 90.5845 75.213 90.6236 75.2289 90.6594L75.533 91.4197C75.5519 91.4611 75.5823 91.496 75.6206 91.5205C75.6589 91.5449 75.7034 91.5577 75.7487 91.5574Z" fill="white"/>
<path d="M82.1438 91.5573H86.0506C86.0937 91.557 86.1359 91.5447 86.1724 91.5217C86.2089 91.4987 86.2383 91.466 86.2573 91.4272C86.2763 91.3884 86.2842 91.3451 86.28 91.3021C86.2758 91.2591 86.2598 91.2181 86.2337 91.1837L85.6419 90.4201C85.6201 90.3924 85.5923 90.3701 85.5606 90.3547C85.5289 90.3394 85.4941 90.3315 85.4589 90.3316H81.6697C81.6286 90.332 81.5884 90.3432 81.5531 90.3643C81.5178 90.3853 81.4887 90.4153 81.4687 90.4513C81.4488 90.4873 81.4387 90.5279 81.4396 90.5691C81.4404 90.6102 81.4521 90.6504 81.4735 90.6856L81.9476 91.4459C81.9682 91.4796 81.997 91.5076 82.0313 91.5271C82.0656 91.5466 82.1043 91.557 82.1438 91.5573Z" fill="white"/>
<path d="M69.0042 91.5573H72.9993C73.0358 91.5569 73.0718 91.5479 73.1043 91.5311C73.1368 91.5143 73.1649 91.4902 73.1865 91.4606C73.208 91.4311 73.2224 91.3969 73.2285 91.3607C73.2346 91.3246 73.2323 91.2876 73.2216 91.2525L72.9764 90.4922C72.9618 90.4455 72.9326 90.4048 72.8932 90.3759C72.8538 90.347 72.8062 90.3315 72.7574 90.3316H68.8799C68.8465 90.3317 68.8134 90.339 68.783 90.3531C68.7526 90.3672 68.7256 90.3877 68.7039 90.4132C68.6821 90.4388 68.6661 90.4687 68.657 90.501C68.6479 90.5333 68.6459 90.5672 68.6511 90.6004L68.7753 91.364C68.7846 91.4181 68.8126 91.4672 68.8545 91.5026C68.8964 91.5379 68.9494 91.5573 69.0042 91.5573Z" fill="white"/>
<path d="M91.6144 94.7232H95.9463C95.992 94.7229 96.0366 94.7091 96.0746 94.6836C96.1125 94.658 96.142 94.6217 96.1595 94.5794C96.177 94.537 96.1816 94.4904 96.1727 94.4455C96.1639 94.4005 96.142 94.3592 96.1098 94.3266L95.0603 93.2878C95.0163 93.2455 94.9577 93.2221 94.8968 93.2222H90.7252C90.6812 93.2229 90.6382 93.2361 90.6014 93.2603C90.5646 93.2845 90.5354 93.3187 90.5173 93.3589C90.4991 93.3991 90.4927 93.4436 90.4988 93.4873C90.505 93.531 90.5234 93.5721 90.5519 93.6057L91.4379 94.6445C91.4602 94.6693 91.4875 94.689 91.5179 94.7026C91.5483 94.7161 91.5812 94.7231 91.6144 94.7232Z" fill="white"/>
<path d="M98.729 94.7232H102.979C103.027 94.7244 103.074 94.7104 103.114 94.6832C103.154 94.6559 103.184 94.6169 103.2 94.5716C103.216 94.5262 103.218 94.4769 103.205 94.4306C103.192 94.3843 103.164 94.3433 103.126 94.3136L101.868 93.2747C101.826 93.2402 101.774 93.2216 101.72 93.2222H97.6175C97.5709 93.2225 97.5255 93.2367 97.4872 93.2631C97.4488 93.2895 97.4193 93.3269 97.4024 93.3703C97.3854 93.4138 97.3819 93.4613 97.3923 93.5068C97.4027 93.5523 97.4265 93.5936 97.4605 93.6253L98.5787 94.6642C98.6203 94.701 98.6735 94.7219 98.729 94.7232Z" fill="white"/>
<path d="M77.0202 94.7233H81.4731C81.5132 94.7231 81.5527 94.7124 81.5875 94.6924C81.6224 94.6723 81.6514 94.6436 81.6719 94.6089C81.6923 94.5742 81.7034 94.5348 81.7041 94.4945C81.7048 94.4543 81.695 94.4145 81.6758 94.3792L81.1004 93.3403C81.0798 93.3046 81.0503 93.2749 81.0147 93.2542C80.9791 93.2335 80.9388 93.2225 80.8977 93.2223H76.5952C76.5561 93.2213 76.5174 93.2304 76.4828 93.2486C76.4482 93.2669 76.4189 93.2937 76.3976 93.3266C76.3763 93.3595 76.3637 93.3973 76.3611 93.4364C76.3585 93.4755 76.3659 93.5146 76.3827 93.55L76.7947 94.5889C76.8143 94.6315 76.8464 94.6671 76.8867 94.6911C76.9269 94.7151 76.9735 94.7263 77.0202 94.7233Z" fill="white"/>
<path d="M84.1109 94.7232H88.5115C88.5546 94.7229 88.5967 94.7106 88.6333 94.6876C88.6698 94.6646 88.6992 94.6319 88.7182 94.5931C88.7372 94.5543 88.745 94.511 88.7409 94.468C88.7367 94.425 88.7207 94.384 88.6945 94.3496L87.887 93.3107C87.8652 93.283 87.8374 93.2606 87.8057 93.2453C87.7739 93.23 87.7391 93.2221 87.7039 93.2222H83.4538C83.4127 93.2226 83.3725 93.2338 83.3372 93.2549C83.3019 93.2759 83.2728 93.3059 83.2528 93.3419C83.2329 93.3779 83.2228 93.4185 83.2237 93.4597C83.2245 93.5008 83.2362 93.541 83.2576 93.5762L83.9115 94.615C83.932 94.6494 83.9613 94.6775 83.9964 94.6965C84.0315 94.7156 84.0711 94.7248 84.1109 94.7232Z" fill="white"/>
<path d="M69.5237 94.7232H74.0125C74.0489 94.7233 74.0848 94.7148 74.1174 94.6984C74.1499 94.682 74.1781 94.6582 74.1998 94.6288C74.2214 94.5995 74.2359 94.5654 74.242 94.5294C74.248 94.4935 74.2456 94.4566 74.2348 94.4217L73.9079 93.3828C73.8928 93.3364 73.8635 93.2959 73.8242 93.2671C73.7849 93.2383 73.7376 93.2226 73.6889 93.2222H69.3537C69.3202 93.2223 69.2872 93.2296 69.2568 93.2437C69.2264 93.2578 69.1994 93.2783 69.1776 93.3038C69.1559 93.3294 69.1399 93.3593 69.1308 93.3916C69.1217 93.4239 69.1197 93.4578 69.1249 93.491L69.2949 94.5298C69.3041 94.584 69.3322 94.633 69.3741 94.6684C69.4159 94.7038 69.469 94.7232 69.5237 94.7232Z" fill="white"/>
<path d="M25.2441 84.2654L104.365 84.0754L104.352 36.9554L25.2539 37.0471L25.2441 40.4587V84.2654Z" fill="#F5F5F5"/>
<path d="M32.1426 25.3803C32.1426 25.3803 45.0957 27.0549 65.3002 20.3333C83.4515 25.3803 97.5554 25.3803 97.5554 25.3803C97.5554 25.3803 103.931 59.1095 64.8621 86.1663C27.6538 58.7883 32.1426 25.3803 32.1426 25.3803Z" fill="#4CAF4F"/>
<path d="M97.5551 25.3802C97.5551 25.3802 83.5755 25.3802 65.5386 20.3988V85.6779C103.845 58.7063 97.5551 25.3802 97.5551 25.3802Z" fill="#4CAF4F"/>
<path d="M35.3786 28.1266C35.3786 28.1266 47.0533 29.6472 65.2504 23.5811C81.6298 28.1266 94.3475 28.1266 94.3475 28.1266C94.3475 28.1266 100.095 58.5327 64.8647 82.9219C31.3213 58.2411 35.3786 28.1266 35.3786 28.1266Z" fill="#F5F5F5"/>
<path d="M94.348 28.1267C94.348 28.1267 81.7447 28.1267 65.4863 23.6369V82.4828C100.01 58.169 94.348 28.1267 94.348 28.1267Z" fill="#F5F5F5"/>
<path d="M57.0769 43.382C57.2924 41.2597 58.2859 39.293 59.865 37.863C61.4441 36.4329 63.4965 35.6412 65.6246 35.6412C67.7527 35.6412 69.8051 36.4329 71.3842 37.863C72.9634 39.293 73.9569 41.2597 74.1723 43.382H76.7877C76.5672 40.564 75.2947 37.9331 73.2243 36.0141C71.1539 34.0952 68.4378 33.0294 65.6181 33.0294C62.7983 33.0294 60.0822 34.0952 58.0118 36.0141C55.9414 37.9331 54.669 40.564 54.4484 43.382H57.0769Z" fill="#78909C"/>
<path d="M76.2158 43.0739H55.0044C54.5873 43.0739 54.2492 43.4129 54.2492 43.831V61.1544C54.2492 61.5725 54.5873 61.9115 55.0044 61.9115H76.2158C76.6329 61.9115 76.971 61.5725 76.971 61.1544V43.831C76.971 43.4129 76.6329 43.0739 76.2158 43.0739Z" fill="#FBC02D"/>
<path d="M76.9743 44.9291V43.4412C76.9743 43.2347 76.6474 43.0643 76.2158 43.0643H55.0077C54.5892 43.0643 54.2492 43.2347 54.2492 43.4412V44.9192L76.9743 44.9291Z" fill="#78909C"/>
<path d="M54.2492 60.1811V61.6591C54.2492 61.8656 54.5761 62.036 55.0077 62.036H76.2158C76.6343 62.036 76.9743 61.8656 76.9743 61.6591V60.1811H54.2492Z" fill="#78909C"/>
<path d="M68.1696 50.2741C68.1706 49.8884 68.0711 49.5091 67.881 49.1737C67.6909 48.8383 67.4167 48.5585 67.0856 48.362C66.7545 48.1654 66.378 48.059 65.9932 48.0531C65.6085 48.0472 65.2288 48.1421 64.8919 48.3284C64.555 48.5148 64.2724 48.786 64.0722 49.1154C63.872 49.4448 63.761 49.8209 63.7503 50.2065C63.7396 50.5921 63.8295 50.9738 64.0111 51.3139C64.1927 51.6539 64.4598 51.9405 64.7858 52.1454V55.2719C64.8017 55.5736 64.9324 55.8577 65.1511 56.0657C65.3698 56.2736 65.6597 56.3895 65.9611 56.3895C66.2625 56.3895 66.5525 56.2736 66.7711 56.0657C66.9898 55.8577 67.1206 55.5736 67.1364 55.2719V52.1454C67.4526 51.9467 67.7133 51.6708 67.894 51.3434C68.0747 51.0161 68.1695 50.6482 68.1696 50.2741Z" fill="#263238"/>
<path d="M28.6343 79.5234C27.8627 85.0652 28.7062 90.8036 28.7062 90.7545C28.7062 90.7053 29.3241 90.7545 29.3241 90.7545C29.3241 90.7545 30.1774 84.0198 30.3768 81.7716C30.5763 79.5234 30.3768 79.3759 30.3768 79.3759C30.3768 79.3759 29.3895 73.9849 28.6343 79.5234Z" fill="#FFCDD2"/>
<path d="M28.4155 65.2281L26.5258 66.4374L25.7281 64.7726L28.1703 61.9673L28.4155 65.2281Z" fill="#4CAF4F"/>
<path d="M38.3898 54.1347L36.0751 60.1975L34.5974 59.0931L37.8994 53.5153L38.3898 54.1347Z" fill="#FFCDD2"/>
<path d="M38.5241 52.0798C38.3461 52.2291 38.2296 52.4393 38.1972 52.6697L37.9128 53.5152L38.001 53.6758L38.4032 54.1379C38.421 54.0152 38.4757 53.9009 38.5601 53.8102L39.1878 53.1056C39.1878 53.1056 40.2209 51.8963 39.2597 51.4866C39.8253 50.3658 39.4199 50.3953 39.4199 50.3953L38.9132 51.3555L38.5241 52.0798Z" fill="#FFCDD2"/>
<path d="M38.668 52.2897C38.668 52.2897 38.4587 52.093 38.6451 51.6342C38.8314 51.1754 38.5503 51.1984 38.5503 51.1984C38.5503 51.1984 37.7787 53.0205 38.0272 53.2302C38.2756 53.44 38.668 52.2897 38.668 52.2897Z" fill="#FFCDD2"/>
<path d="M31.756 61.4429L32.4491 61.4953L34.8031 58.7457L36.0748 60.1976C35.2239 61.7592 34.267 63.2604 33.2109 64.6906C33.1161 65.1527 32.6093 69.8293 32.6093 69.8293H28.5194C28.5194 69.8293 29.1733 66.3981 28.0192 64.4907C26.8651 62.5834 31.756 61.4429 31.756 61.4429Z" fill="#4CAF4F"/>
<path d="M30.4189 79.5234C29.6474 85.0652 30.4941 90.8036 30.4941 90.7545C30.4941 90.7053 31.1088 90.7545 31.1088 90.7545C31.1088 90.7545 31.9621 84.0198 32.1615 81.7716C32.3609 79.5234 32.1615 79.3759 32.1615 79.3759C32.1615 79.3759 31.1938 73.9849 30.4189 79.5234Z" fill="#FFCDD2"/>
<path d="M31.9036 57.1628L29.553 57.9887L29.7851 59.7486C29.7851 59.7715 29.7851 59.7977 29.7851 59.8207C29.7851 59.8436 29.8766 59.837 29.9191 59.8502H29.942H29.9649C30.2248 59.928 30.4612 60.0693 30.653 60.2616C30.8448 60.4538 30.9858 60.6908 31.0634 60.9513C31.3992 61.0168 31.7444 61.0168 32.0802 60.9513C32.2766 60.9294 32.462 60.8496 32.6131 60.7219C33.1264 59.6339 31.9036 57.1628 31.9036 57.1628Z" fill="#FFCDD2"/>
<path d="M31.9656 58.644C31.856 58.8519 31.7949 59.0821 31.787 59.3171C31.7791 59.5521 31.8245 59.7859 31.9198 60.0008C32.0611 60.2874 32.1411 60.6005 32.1546 60.9199C32.1681 61.2393 32.1148 61.5581 31.9983 61.8557C31.776 62.1803 31.4802 62.4476 31.1352 62.6357C30.9605 62.7443 30.8133 62.8919 30.705 63.067C30.5967 63.2421 30.5302 63.4399 30.5107 63.645C30.4584 64.2153 30.4061 64.9199 29.9157 65.087C28.4968 65.5786 27.977 65.5294 27.7874 64.3464C27.7314 63.9542 27.7741 63.5543 27.9116 63.183C28.0979 62.6777 28.0815 62.1197 27.8658 61.6263C27.7224 61.3355 27.6316 61.0214 27.5977 60.6988C27.6684 60.3296 27.8431 59.9884 28.1012 59.7156C28.4206 59.3119 28.5707 58.7995 28.5197 58.2868C28.4737 57.9938 28.4993 57.694 28.5944 57.4131C28.6895 57.1323 28.8513 56.8788 29.0657 56.6744C30.0465 55.8452 32.1879 57.1496 32.1879 57.1496C32.3035 57.658 32.2241 58.1915 31.9656 58.644Z" fill="#263238"/>
<path d="M25.7283 64.7725L24.8194 65.7262C24.2179 66.3521 24.0315 67.2238 24.7573 67.6925L27.7226 70.0554L27.448 70.5666C27.3359 70.7776 27.2867 71.0166 27.3065 71.2548C27.3262 71.4931 27.4139 71.7206 27.5591 71.9103L27.8861 72.3232L28.5791 69.9341L26.4279 67.2435C26.3743 67.1871 26.3341 67.1193 26.3103 67.0451C26.2864 66.9709 26.2796 66.8923 26.2903 66.8152C26.301 66.738 26.3289 66.6642 26.372 66.5994C26.415 66.5345 26.4722 66.4802 26.5391 66.4406L25.7283 64.7725Z" fill="#FFCDD2"/>
<path d="M32.5994 69.8294C32.965 70.8338 33.167 71.8905 33.1977 72.9592C33.1977 73.8244 32.449 80.3493 32.449 80.3493H28.565C28.8266 75.5285 27.3717 74.9386 27.3717 72.8576C27.3717 71.3861 28.5193 69.8294 28.5193 69.8294H32.5994Z" fill="#263238"/>
<path d="M28.6899 90.0301C28.598 90.1008 28.5249 90.1931 28.477 90.2989C28.4291 90.4046 28.4079 90.5205 28.4152 90.6364C28.4774 90.9641 28.5656 91.7769 28.5656 91.7769H28.9122V91.033C28.9122 90.9838 29.6609 91.7769 29.7884 91.7769H31.6355C31.6355 91.7769 31.7598 91.2755 30.6743 91.1214C29.9225 90.9551 29.2338 90.5764 28.6899 90.0301Z" fill="#263238"/>
<path d="M30.6646 90.0301C30.5725 90.1009 30.4991 90.1931 30.4507 90.2987C30.4022 90.4044 30.3803 90.5203 30.3867 90.6364C30.4488 90.9641 30.5371 91.7769 30.5371 91.7769H30.8869V91.033C30.8869 90.9838 31.6355 91.7769 31.7631 91.7769H33.6102C33.6102 91.7769 33.7345 91.2755 32.649 91.1214C31.8971 90.9551 31.2085 90.5764 30.6646 90.0301Z" fill="#263238"/>
</svg>
