<svg width="16" height="16" viewBox="0 0 16 16" fill="none" xmlns="http://www.w3.org/2000/svg">
        <path
          d="M2.90369 12.6554C2.85641 12.5883 2.8375 12.502 2.86587 12.4158C2.92261 12.2337 2.97934 12.0516 3.04554 11.8695C3.09282 11.7354 3.2063 11.7066 3.32923 11.7833C3.61292 11.9654 3.89661 12.1474 4.18029 12.3295C4.31268 12.4158 4.35051 12.5308 4.28431 12.6745C4.19921 12.847 4.1141 13.01 4.01954 13.1729C3.94389 13.307 3.86824 13.3262 3.72639 13.2591C3.56563 13.1825 2.96989 12.7512 2.90369 12.6554Z"
          fill="#263238"
        />
        <path
          d="M6.75354 4.64368L8.32329 5.48702C8.52187 5.59244 8.75828 5.52536 8.87175 5.33369L9.73227 3.87701C9.84575 3.68534 9.78901 3.42659 9.59989 3.31158C9.25 3.08158 8.6448 2.73658 7.93558 2.52574C7.76536 2.47783 7.57624 2.54491 7.47222 2.69824L6.60224 4.04951C6.46985 4.25076 6.53604 4.52868 6.75354 4.64368Z"
          fill="#263238"
        />
        <path
          d="M5.95852 4.12637L7.03654 2.58343C7.16893 2.39177 7.10273 2.12343 6.89469 2.01801C6.59209 1.86468 6.09091 1.66342 5.38168 1.48134C5.25875 1.45259 5.11691 1.48134 5.0318 1.57717C4.77648 1.83593 4.25638 2.3726 3.86868 2.97636C3.74574 3.16802 3.81194 3.41719 4.01052 3.52261C4.41714 3.73345 5.07908 4.07845 5.51407 4.25095C5.67483 4.31804 5.8545 4.27012 5.95852 4.12637Z"
          fill="#263238"
        />
        <path
          d="M10.063 9.0712L10.498 9.3012C10.6209 9.36828 10.7722 9.32995 10.8479 9.21495C10.9519 9.0712 11.0937 8.84119 11.2166 8.56328C11.2734 8.44827 11.2356 8.30452 11.1315 8.22785C11.0086 8.13202 10.8384 8.01702 10.6587 7.93077C10.5263 7.86368 10.375 7.9116 10.2994 8.03619C10.1954 8.21827 10.0441 8.48661 9.94005 8.69744C9.88331 8.84119 9.94005 8.99453 10.063 9.0712Z"
          fill="#263238"
        />
        <path
          d="M4.57818 8.9851C4.99426 9.25343 5.70348 9.70385 6.10065 9.96261C6.2614 10.068 6.31814 10.2884 6.23303 10.4609L5.41979 11.908C5.32523 12.0901 5.09828 12.1668 4.91861 12.071C4.48362 11.841 3.78385 11.4672 3.35832 11.1414C3.21647 11.0264 3.16919 10.8251 3.2543 10.6622L4.05809 9.13843C4.14319 8.9276 4.38906 8.86051 4.57818 8.9851Z"
          fill="#263238"
        />
        <path
          d="M2.84719 10.1157L3.48076 8.74523C3.57532 8.5344 3.51859 8.28523 3.32946 8.15106C3.05523 7.94023 2.63915 7.64314 2.21362 7.40355C1.97721 7.26938 1.67461 7.35564 1.55168 7.60481C1.41929 7.86356 1.23962 8.28523 1.05995 8.95607C1.01267 9.1094 1.05049 9.28191 1.16397 9.40649C1.35309 9.62691 1.69352 9.9815 2.13797 10.3073C2.37437 10.4798 2.72426 10.384 2.84719 10.1157Z"
          fill="#263238"
        />
        <path
          d="M3.822 7.02047L4.44612 5.93754C4.57851 5.71712 4.4934 5.42962 4.2759 5.30503C4.04895 5.18045 3.75581 5.02711 3.44375 4.90253C3.24517 4.82586 3.02767 4.89295 2.90474 5.06545C2.73453 5.30503 2.49812 5.68837 2.29008 6.11004C2.18606 6.32088 2.26171 6.57005 2.45084 6.69463L3.18843 7.1738C3.40592 7.30797 3.68961 7.24089 3.822 7.02047Z"
          fill="#263238"
        />
        <path
          d="M1.92069 5.74581C2.17601 5.31455 2.60154 4.57663 2.87578 4.11662C2.99871 3.91537 2.9136 3.64703 2.70556 3.5512C2.53535 3.47453 2.32731 3.39787 2.12873 3.33078C1.98689 3.29245 1.83558 3.33078 1.74102 3.44578C1.5519 3.6662 1.21147 4.13579 0.804847 5.08455C0.729197 5.25705 0.785934 5.44872 0.937235 5.55414C1.06017 5.64039 1.22092 5.75539 1.37223 5.86081C1.5519 6.00456 1.80722 5.94706 1.92069 5.74581Z"
          fill="#263238"
        />
        <path
          d="M11.1596 9.55998C11.3298 9.27248 11.5473 8.90831 11.7364 8.60164C11.8972 8.3333 12.2376 8.23747 12.5119 8.39081C12.7199 8.51539 12.9658 8.65914 13.1927 8.79331C13.4386 8.94664 13.5331 9.27248 13.4007 9.53123C13.2589 9.8379 13.0414 10.2404 12.7861 10.5758C12.6159 10.7962 12.3133 10.8633 12.0674 10.7292C11.8594 10.6142 11.6041 10.48 11.3771 10.3554C11.084 10.2117 10.9894 9.8379 11.1596 9.55998Z"
          fill="#263238"
        />
        <path
          d="M7.92517 15.3482C8.12376 15.1182 8.42636 14.7732 8.59657 14.5528C8.64385 14.4857 8.73842 14.457 8.81407 14.4857C9.05047 14.5624 9.56111 14.7253 10.0339 14.8499C10.1852 14.8882 10.242 15.0895 10.119 15.1949C9.95828 15.3482 9.73133 15.5399 9.52329 15.6836C9.33416 15.8082 9.10721 15.8657 8.88972 15.837C8.66277 15.8082 8.32234 15.7603 8.01974 15.6741C7.87789 15.6357 7.83061 15.4632 7.92517 15.3482Z"
          fill="#263238"
        />
        <path
          d="M1.88284 11.8409C1.94904 11.6013 2.06251 11.218 2.18544 10.9305C2.21381 10.873 2.1949 10.8059 2.14762 10.7676C1.96795 10.6142 1.51405 10.2405 1.21144 9.9434C1.13579 9.86673 1.00341 9.90507 0.975037 10.0105C0.927755 10.2213 0.871017 10.5376 0.908843 10.8922C0.918299 10.9688 0.946668 11.0455 0.984493 11.1126C1.09797 11.2851 1.35329 11.6493 1.65589 11.9176C1.741 11.9751 1.86393 11.9368 1.88284 11.8409Z"
          fill="#263238"
        />
        <path
          d="M11.4716 14.38C11.7837 13.9967 12.351 13.3067 12.6631 12.8754C12.7387 12.7796 12.8617 12.7412 12.9752 12.7796C13.1643 12.8467 13.448 12.9521 13.6844 13.0288C13.864 13.0863 13.9302 13.2971 13.8262 13.4504C13.6182 13.7571 13.2778 14.2171 12.89 14.5429C12.5685 14.8113 12.143 14.9359 11.7364 14.8592C11.6891 14.8496 11.6418 14.84 11.604 14.8304C11.4149 14.7729 11.3487 14.5334 11.4716 14.38Z"
          fill="#263238"
        />
        <path
          d="M15.1125 9.5408L15.4813 9.84747C15.5853 9.93372 15.746 9.8858 15.7839 9.75163C15.85 9.53122 15.9446 9.1958 15.9919 8.91788C16.0297 8.65912 15.9352 8.40037 15.7366 8.22787L15.7271 8.21829C15.6231 8.13203 15.4718 8.17995 15.434 8.30454C15.33 8.59204 15.1597 9.08079 15.0652 9.32038C15.0274 9.39705 15.0463 9.4833 15.1125 9.5408Z"
          fill="#263238"
        />
        <path
          d="M9.46691 0.311686C9.62767 0.225435 9.80734 0.206268 9.97756 0.254186C10.318 0.340436 11.065 0.551272 11.5189 0.829192C11.6608 0.915443 11.6986 1.09753 11.604 1.24128L11.5095 1.38503C11.4433 1.48087 11.3204 1.5192 11.2163 1.4617C10.8381 1.27961 9.95864 0.848359 9.48583 0.637523C9.34398 0.560855 9.34398 0.37877 9.46691 0.311686Z"
          fill="#263238"
        />
        <path
          d="M9.06957 0.311918L9.16414 0.254417C9.22088 0.216083 9.21142 0.129833 9.14522 0.120249C8.82371 0.0531651 8.14286 -0.0714195 7.80243 0.0531651C7.73623 0.0819154 7.73623 0.17775 7.81189 0.196917C8.01992 0.244834 8.36035 0.311918 8.59676 0.379002C8.74806 0.426919 8.91827 0.398169 9.06957 0.311918Z"
          fill="#263238"
        />
        <path
          d="M11.822 1.45257L11.9355 1.29924C11.9922 1.21298 12.1057 1.19382 12.1908 1.24173C12.5691 1.46215 13.562 2.08508 13.8457 2.68883C13.9308 2.87092 13.7227 3.053 13.562 2.938L11.8599 1.73049C11.7747 1.66341 11.7558 1.53882 11.822 1.45257Z"
          fill="#263238"
        />
        <path
          d="M4.27575 1.05939C4.38922 1.06898 4.55944 1.07856 4.69183 1.09773C4.84313 1.11689 4.99443 1.06898 5.12682 0.953976C5.2592 0.829391 5.4767 0.666473 5.76039 0.513138C5.81713 0.484387 5.79821 0.37897 5.74148 0.388553C5.37268 0.40772 4.75802 0.532305 4.25684 0.934809C4.20955 0.963559 4.21901 1.04981 4.27575 1.05939Z"
          fill="#263238"
        />
        <path
          d="M0.180842 8.75495C0.275415 8.86037 0.388903 8.99453 0.50239 9.09995C0.625335 9.21495 0.682079 9.38746 0.64425 9.55037C0.596963 9.78996 0.549677 10.1445 0.578049 10.5471C0.587506 10.6621 0.436189 10.7004 0.379445 10.6046C0.199756 10.2691 -0.0177615 9.69413 0.00115307 8.82203C0.00115307 8.7262 0.124098 8.68787 0.180842 8.75495Z"
          fill="#263238"
        />
        <path
          d="M3.66052 14.9171C3.24444 14.6584 2.57304 14.1888 2.23262 13.748C2.14751 13.633 2.14751 13.47 2.24207 13.355C2.32718 13.2496 2.47848 13.2305 2.59196 13.3071C2.9513 13.5851 3.71726 14.1696 4.17116 14.4763C4.27518 14.5434 4.30355 14.6871 4.23735 14.7926C4.11442 14.9842 3.8591 15.0321 3.66052 14.9171Z"
          fill="#263238"
        />
        <path
          d="M2.01541 13.1726C2.07215 13.096 2.06269 12.9905 1.9965 12.9235C1.76955 12.703 1.24 12.1951 0.937394 11.7639C0.909025 11.7255 0.842831 11.7543 0.861744 11.8022C0.956307 12.1089 1.23054 12.6743 1.75064 13.1822C1.82629 13.2685 1.94922 13.2589 2.01541 13.1726Z"
          fill="#263238"
        />
        <path
          d="M4.54021 15.1377C4.54967 15.1377 4.54967 15.1377 4.54021 15.1377C4.61587 15.0418 4.7388 15.0227 4.83336 15.0898C5.06977 15.2527 5.52367 15.7414 6.10996 15.9139C6.15724 15.9235 6.14779 16.0002 6.1005 16.0002C5.76008 15.9906 5.1927 15.7223 4.62532 15.4827C4.50239 15.4252 4.45511 15.2527 4.54021 15.1377Z"
          fill="#263238"
        />
        <path
          d="M9.95963 2.79377C9.82724 2.87043 9.70431 2.91835 9.56247 2.84168C9.12748 2.63085 8.69249 2.42001 8.2575 2.20918C8.18185 2.17084 8.09674 2.13251 8.04946 2.05584C7.98326 1.95042 7.98326 1.85459 8.06837 1.74917C8.24804 1.53834 8.42771 1.31792 8.60738 1.10708C8.73977 0.953747 8.95726 0.90583 9.13693 0.982497C9.51518 1.14542 9.89344 1.29875 10.2622 1.48084C10.5176 1.60542 10.5743 1.73959 10.4324 1.98876C10.3001 2.22834 10.1582 2.47751 10.0164 2.7171C9.99746 2.74585 9.97854 2.7746 9.95963 2.79377Z"
          fill="#FDD835"
        />
        <path
          d="M5.42059 5.02633L4.06833 7.60428C3.95486 7.81511 4.03051 8.08345 4.23855 8.20803L6.78229 9.76055C6.99979 9.89472 7.28348 9.81805 7.40641 9.58805L8.90996 6.87594C9.03289 6.64593 8.94779 6.36802 8.72084 6.24343L6.02579 4.83467C5.80829 4.71966 5.54352 4.80592 5.42059 5.02633Z"
          fill="#4CAF4F"
        />
        <path
          d="M9.46764 6.14789L11.4818 7.31707C11.6615 7.42249 11.8979 7.35541 12.0019 7.17332C12.2478 6.75165 12.6544 5.97539 12.8625 5.18955C12.9003 5.0458 12.853 4.89246 12.7395 4.79663C12.418 4.51871 11.6899 3.9437 10.7821 3.62745C10.6024 3.56995 10.4133 3.63703 10.3187 3.79995L9.3258 5.63039C9.22178 5.81247 9.28797 6.04248 9.46764 6.14789Z"
          fill="#7B1FA2"
        />
        <path
          d="M7.813 10.2594C8.24799 10.5086 8.88156 10.8727 9.3922 11.1602C9.6948 11.3327 9.79882 11.7161 9.62861 12.0132C9.3922 12.4348 9.03286 13.029 8.65461 13.5082C8.48439 13.7286 8.18179 13.8053 7.92647 13.6903C7.47257 13.489 6.80117 13.1632 6.28108 12.799C6.00684 12.6073 5.94065 12.2336 6.11086 11.9557L6.98084 10.4702C7.16997 10.1827 7.52931 10.0965 7.813 10.2594Z"
          fill="#E53835"
        />
        <path
          d="M6.08281 13.1534C6.33813 13.3068 6.67856 13.5176 6.94333 13.6614C7.16083 13.786 7.22702 14.0639 7.10409 14.2843C7.01898 14.4376 6.90551 14.6101 6.79203 14.773C6.54617 15.1085 6.10172 15.2235 5.72347 15.051C5.51543 14.9551 5.28848 14.8401 5.0899 14.706C4.88186 14.5718 4.82512 14.2843 4.96696 14.0735C5.11827 13.8435 5.3263 13.5272 5.48706 13.2876C5.60999 13.0864 5.87477 13.0289 6.08281 13.1534Z"
          fill="#2194F3"
        />
      </svg>